<svg width="40" height="40" viewBox="0 0 40 40" fill="none" xmlns="http://www.w3.org/2000/svg">
<path d="M20.2 39.4C15.1078 39.4 10.2242 37.3772 6.62355 33.7765C3.02285 30.1758 1 25.2922 1 20.2V20.2C1 15.1078 3.02285 10.2243 6.62355 6.62355C10.2242 3.02285 15.1078 1 20.2 1V1C25.2922 1 30.1757 3.02285 33.7764 6.62355C37.3771 10.2243 39.4 15.1078 39.4 20.2V20.2C39.4 22.7214 38.9034 25.2181 37.9385 27.5475C36.9736 29.877 35.5593 31.9936 33.7764 33.7765C31.9936 35.5593 29.877 36.9736 27.5475 37.9385C25.2181 38.9034 22.7214 39.4 20.2 39.4V39.4Z" stroke="#5F6AC0" stroke-miterlimit="10"/>
<path opacity="0.8" d="M17.6044 30.4901H21.737V20.1091H24.6215L24.9356 16.6377H21.737V14.6623C21.737 13.8358 21.894 13.5217 22.6875 13.5217H24.9356V9.91809H22.0593C18.9764 9.91809 17.5879 11.2736 17.5879 13.8688V16.6459H15.4307V20.1586H17.5879L17.6044 30.4901Z" fill="#5F6AC0"/>
</svg>
