<svg width="40" height="40" viewBox="0 0 40 40" fill="none" xmlns="http://www.w3.org/2000/svg">
<path d="M20.1959 39.4C15.1041 39.3978 10.2215 37.3736 6.62184 33.7723C3.02216 30.1711 1 25.2877 1 20.1959V20.1959C1 15.1048 3.02242 10.2223 6.62234 6.62234C10.2223 3.02242 15.1048 1 20.1959 1C22.7174 0.998916 25.2144 1.49463 27.5444 2.45883C29.8743 3.42303 31.9914 4.83681 33.7747 6.61942C35.5581 8.40203 36.9728 10.5185 37.938 12.848C38.9032 15.1775 39.4 17.6743 39.4 20.1959V20.1959C39.4 25.2891 37.3767 30.1738 33.7752 33.7753C30.1738 37.3767 25.2891 39.4 20.1959 39.4V39.4Z" stroke="#5F6AC0" stroke-miterlimit="10"/>
<g opacity="0.8">
<path d="M20.1956 12.5443C22.6746 12.5443 22.9886 12.5443 23.972 12.6021C24.5648 12.6073 25.1521 12.7164 25.7073 12.9244C26.11 13.0733 26.4742 13.3105 26.7732 13.6185C27.0823 13.9216 27.322 14.2881 27.4756 14.6928C27.6795 15.2491 27.7884 15.8357 27.7979 16.4281C27.7979 17.4114 27.8475 17.7089 27.8475 20.1962C27.8475 22.6835 27.8475 22.9892 27.7979 23.9726C27.7884 24.565 27.6795 25.1516 27.4756 25.7079C27.316 26.1071 27.077 26.4696 26.773 26.7736C26.469 27.0776 26.1064 27.3166 25.7073 27.4762C25.151 27.6801 24.5644 27.7891 23.972 27.7985C22.9886 27.7985 22.6911 27.8481 20.1956 27.8481C17.7 27.8481 17.4108 27.8481 16.4275 27.7985C15.8351 27.7891 15.2485 27.6801 14.6922 27.4762C14.293 27.3166 13.9304 27.0776 13.6264 26.7736C13.3224 26.4696 13.0834 26.1071 12.9238 25.7079C12.7199 25.1516 12.611 24.565 12.6015 23.9726C12.5602 22.9892 12.5519 22.6917 12.5519 20.1962C12.5519 17.7006 12.5519 17.4114 12.6015 16.4281C12.611 15.8357 12.7199 15.2491 12.9238 14.6928C13.0774 14.2881 13.3171 13.9216 13.6262 13.6185C13.9252 13.3105 14.2895 13.0733 14.6922 12.9244C15.2473 12.7164 15.8347 12.6073 16.4275 12.6021C17.4108 12.6021 17.7083 12.5443 20.1956 12.5443ZM20.1956 10.8916C17.667 10.8916 17.3447 10.8916 16.3531 10.9495C15.5793 10.9619 14.8135 11.1072 14.0889 11.3791C13.4695 11.6226 12.907 11.9912 12.4364 12.4618C11.9658 12.9324 11.5972 13.4949 11.3538 14.1143C11.081 14.8386 10.9356 15.6046 10.9241 16.3785C10.8745 17.3701 10.8662 17.6924 10.8662 20.221C10.8662 22.7496 10.8662 23.0801 10.9241 24.0717C10.9365 24.8455 11.0818 25.6114 11.3538 26.3359C11.5972 26.9553 11.9658 27.5179 12.4364 27.9885C12.907 28.4591 13.4695 28.8276 14.0889 29.0711C14.8146 29.339 15.5798 29.4842 16.3531 29.5008C17.3447 29.5504 17.667 29.5586 20.1956 29.5586C22.7242 29.5586 23.0547 29.5586 24.0463 29.5008C24.8197 29.4842 25.5849 29.339 26.3105 29.0711C26.9299 28.8276 27.4925 28.4591 27.9631 27.9885C28.4337 27.5179 28.8022 26.9553 29.0457 26.3359C29.3176 25.6114 29.463 24.8455 29.4754 24.0717C29.525 23.0801 29.5332 22.7578 29.5332 20.221C29.5332 17.6841 29.5332 17.3701 29.4754 16.3785C29.4638 15.6046 29.3184 14.8386 29.0457 14.1143C28.8022 13.4949 28.4337 12.9324 27.9631 12.4618C27.4925 11.9912 26.9299 11.6226 26.3105 11.3791C25.586 11.1072 24.8201 10.9619 24.0463 10.9495C23.0547 10.8999 22.7324 10.8916 20.1956 10.8916Z" fill="#5F6AC0"/>
<path d="M20.1951 15.4034C19.2472 15.4034 18.3206 15.6845 17.5324 16.2112C16.7442 16.7378 16.1299 17.4863 15.7672 18.3621C15.4044 19.2379 15.3095 20.2015 15.4944 21.1312C15.6794 22.0609 16.1358 22.9149 16.8061 23.5852C17.4764 24.2555 18.3304 24.712 19.2601 24.8969C20.1898 25.0818 21.1535 24.9869 22.0292 24.6241C22.905 24.2614 23.6535 23.6471 24.1802 22.8589C24.7068 22.0708 24.9879 21.1441 24.9879 20.1962C24.9879 18.9251 24.4829 17.706 23.5841 16.8072C22.6853 15.9084 21.4662 15.4034 20.1951 15.4034V15.4034ZM20.1951 23.3115C19.579 23.3115 18.9767 23.1288 18.4643 22.7865C17.952 22.4442 17.5527 21.9576 17.317 21.3884C17.0812 20.8191 17.0195 20.1927 17.1397 19.5884C17.2599 18.9841 17.5566 18.429 17.9923 17.9934C18.4279 17.5577 18.983 17.261 19.5873 17.1408C20.1917 17.0206 20.818 17.0823 21.3873 17.318C21.9565 17.5538 22.4431 17.9531 22.7854 18.4654C23.1277 18.9777 23.3104 19.5801 23.3104 20.1962C23.3104 20.6053 23.2298 21.0104 23.0733 21.3884C22.9167 21.7663 22.6872 22.1098 22.398 22.3991C22.1087 22.6883 21.7653 22.9178 21.3873 23.0744C21.0093 23.2309 20.6042 23.3115 20.1951 23.3115" fill="#5F6AC0"/>
<path d="M26.2613 15.2215C26.2613 15.4444 26.1949 15.6624 26.0707 15.8475C25.9465 16.0327 25.77 16.1767 25.5637 16.2612C25.3573 16.3458 25.1305 16.3671 24.9121 16.3223C24.6937 16.2776 24.4935 16.1689 24.337 16.0101C24.1805 15.8513 24.0748 15.6495 24.0333 15.4304C23.9918 15.2113 24.0164 14.9849 24.104 14.7798C24.1916 14.5748 24.3382 14.4004 24.5252 14.279C24.7122 14.1575 24.9311 14.0944 25.154 14.0977C25.4521 14.0977 25.7379 14.2161 25.9487 14.4268C26.1594 14.6376 26.2778 14.9234 26.2778 15.2215" fill="#5F6AC0"/>
</g>
</svg>
