<svg width="40" height="40" viewBox="0 0 40 40" fill="none" xmlns="http://www.w3.org/2000/svg">
<path d="M20.1959 39.4C15.1041 39.3978 10.2215 37.3736 6.62184 33.7723C3.02216 30.1711 1 25.2877 1 20.1959V20.1959C1 15.1048 3.02242 10.2223 6.62234 6.62234C10.2223 3.02242 15.1048 1 20.1959 1C22.7174 0.998916 25.2144 1.49463 27.5444 2.45883C29.8743 3.42303 31.9914 4.83681 33.7747 6.61942C35.5581 8.40203 36.9728 10.5185 37.938 12.848C38.9032 15.1775 39.4 17.6743 39.4 20.1959V20.1959C39.4 25.2891 37.3767 30.1738 33.7752 33.7753C30.1738 37.3767 25.2891 39.4 20.1959 39.4V39.4Z" stroke="#5F6AC0" stroke-miterlimit="10"/>
<g opacity="0.8" clip-path="url(#clip0)">
<path d="M17.7568 23.6033L20.3219 25.5248L24.5157 28.6283C25.2848 29.0614 25.8267 28.8333 26.0342 27.9132L28.787 14.8788L28.7877 14.878C29.0317 13.7291 28.3766 13.2798 27.6272 13.5617L11.4464 19.8216C10.3421 20.2548 10.3588 20.8769 11.2587 21.1587L15.3955 22.4589L25.0044 16.3833C25.4566 16.0807 25.8678 16.2482 25.5295 16.5507L17.7568 23.6033Z" fill="#5F6AC0"/>
</g>
<defs>
<clipPath id="clip0">
<rect width="18.24" height="18.24" fill="white" transform="translate(10.5996 10.6)"/>
</clipPath>
</defs>
</svg>
