<svg width="40" height="40" viewBox="0 0 40 40" fill="none" xmlns="http://www.w3.org/2000/svg">
<path d="M20.2 39.4C15.1071 39.3978 10.2235 37.3736 6.62304 33.7723C3.02258 30.1711 1 25.2877 1 20.1959V20.1959C1 15.1048 3.02285 10.2223 6.62355 6.62234C10.2242 3.02242 15.1078 1 20.2 1C25.2922 1 30.1757 3.02242 33.7764 6.62234C37.3771 10.2223 39.4 15.1048 39.4 20.1959V20.1959C39.4 25.2877 37.3774 30.1711 33.7769 33.7723C30.1765 37.3736 25.2929 39.3978 20.2 39.4V39.4Z" stroke="#5F6AC0" stroke-miterlimit="10"/>
<path opacity="0.8" d="M13.2881 24.6573C14.531 25.4736 15.9682 25.9235 17.4428 25.9578C18.9175 25.9922 20.373 25.6097 21.6507 24.8521C22.9283 24.0945 23.9791 22.9909 24.6884 21.6615C25.3977 20.3322 25.7384 18.8282 25.6731 17.3135C26.2362 16.9015 26.7235 16.3897 27.1121 15.8021C26.5959 16.0405 26.0469 16.1952 25.4846 16.2607C26.0804 15.9001 26.5273 15.3282 26.7414 14.6525C26.1853 14.9911 25.5778 15.2313 24.9442 15.3629C24.5189 14.8947 23.955 14.584 23.3402 14.4791C22.7253 14.3743 22.094 14.4812 21.5444 14.7832C20.9947 15.0852 20.5576 15.5654 20.3008 16.1491C20.0441 16.7329 19.9822 17.3874 20.1247 18.0111C18.9988 17.9549 17.8971 17.6555 16.8913 17.1325C15.8855 16.6094 14.9982 15.8745 14.2872 14.9754C13.9268 15.6152 13.8172 16.3721 13.9806 17.0921C14.1441 17.812 14.5683 18.4409 15.1669 18.8507C14.7263 18.8325 14.2959 18.7087 13.9102 18.489C13.9028 19.1663 14.1252 19.825 14.5392 20.352C14.9532 20.8789 15.5329 21.241 16.1786 21.3762C15.7684 21.4878 15.3394 21.5054 14.9218 21.4278C15.1008 22.0056 15.4519 22.511 15.9255 22.8726C16.399 23.2341 16.9711 23.4337 17.561 23.443C16.965 23.9308 16.2793 24.2898 15.5451 24.4984C14.8108 24.7071 14.0432 24.7611 13.2881 24.6573Z" fill="#5F6AC0"/>
</svg>
