<svg width="22" height="22" viewBox="0 0 22 22" fill="none" xmlns="http://www.w3.org/2000/svg">
<path d="M20.6491 15.5334C20.6126 15.5031 16.4904 12.5703 15.3773 12.7497C14.8404 12.8446 14.5338 13.211 13.9184 13.9439C13.8194 14.0621 13.5809 14.3447 13.3966 14.5461C13.0077 14.4194 12.6284 14.265 12.2616 14.0841C10.3679 13.1622 8.83781 11.6321 7.91587 9.73844C7.73497 9.3716 7.58057 8.99228 7.45388 8.60337C7.656 8.41844 7.93925 8.17987 8.06025 8.07812C8.78969 7.46625 9.15544 7.15894 9.25031 6.62131C9.44487 5.50825 6.49688 1.38737 6.46663 1.35025C6.33237 1.15985 6.15752 1.00164 5.95469 0.887024C5.75186 0.772413 5.52612 0.704265 5.29375 0.6875C4.09887 0.6875 0.6875 5.11225 0.6875 5.85819C0.6875 5.9015 0.750063 10.3042 6.17925 15.8269C11.6958 21.2499 16.0985 21.3125 16.1418 21.3125C16.8871 21.3125 21.3125 17.9011 21.3125 16.7062C21.2956 16.4738 21.2273 16.2481 21.1125 16.0453C20.9978 15.8425 20.8395 15.6676 20.6491 15.5334ZM16.0655 19.9334C15.4688 19.8825 11.77 19.3951 7.15 14.8569C2.58981 10.2142 2.11475 6.50925 2.06731 5.93519C2.96847 4.52075 4.05679 3.2347 5.30269 2.112C5.33019 2.1395 5.36662 2.18075 5.41337 2.23438C6.36888 3.53872 7.19199 4.93506 7.8705 6.40269C7.64985 6.62466 7.41664 6.83378 7.172 7.029C6.79263 7.31806 6.44427 7.64569 6.1325 8.00663C6.07975 8.08064 6.04219 8.16438 6.02202 8.25301C6.00184 8.34163 5.99943 8.43338 6.01494 8.52294C6.16043 9.15319 6.38327 9.76304 6.67837 10.3386C7.73567 12.5098 9.49009 14.2639 11.6614 15.3209C12.2368 15.6165 12.8467 15.8395 13.4771 15.9851C13.5666 16.0009 13.6584 15.9987 13.7471 15.9785C13.8358 15.9583 13.9195 15.9206 13.9934 15.8675C14.3556 15.5545 14.6844 15.2047 14.9744 14.8239C15.1903 14.5668 15.4784 14.2237 15.5877 14.1267C17.059 14.8046 18.4585 15.6287 19.7649 16.5866C19.822 16.6347 19.8626 16.6719 19.8894 16.6959C18.7666 17.9422 17.4803 19.0308 16.0655 19.932V19.9334Z" fill="#FF675E"/>
<path d="M15.8125 10.3125H17.1875C17.1859 8.85431 16.6059 7.45632 15.5748 6.42522C14.5437 5.39413 13.1457 4.81414 11.6875 4.8125V6.1875C12.7812 6.18859 13.8298 6.62354 14.6031 7.39689C15.3765 8.17024 15.8114 9.21882 15.8125 10.3125Z" fill="#FF675E"/>
<path d="M19.25 10.3125H20.625C20.6223 7.94297 19.6798 5.67126 18.0043 3.99575C16.3287 2.32023 14.057 1.37773 11.6875 1.375V2.75C13.6925 2.75237 15.6147 3.54989 17.0324 4.96762C18.4501 6.38535 19.2476 8.30753 19.25 10.3125Z" fill="#FF675E"/>
</svg>
