<svg width="147" height="119" fill="none" xmlns="http://www.w3.org/2000/svg"><path fill-rule="evenodd" clip-rule="evenodd" d="M8.81 84.755c12.11 17.944 31.475 30.916 50.44 33.786 4.06.615 11.12.611 14.917-.007 8.25-1.345 15.78-5.322 21.085-11.137 4.683-5.133 8.066-11.851 9.558-18.978.328-1.565.69-3.19.69-3.19h-8.352l-1.261 2.704c-9.458 20.283-33.444 25.959-60.076 14.215-8.471-3.735-17.547-9.73-26.09-17.235l-1.978-1.737 1.066 1.58z" fill="url(#paint0_linear)"/><path d="M115.081 49.908c-5.089-9.595.263-21.042 10.882-23.276 2.593-.546 7.915-.373 10.593.343 2.572.688 6.008 2.426 7.622 3.856l1.336 1.184-3.608 3.966-3.608 3.965-3.138-1.57c-3.887-1.945-5.883-2.236-7.531-1.1-3.477 2.399-3.309 6.367.381 9.03.779.563 3.162 1.81 5.295 2.772 2.134.963 4.801 2.3 5.927 2.972 9.185 5.484 10.42 17.007 2.657 24.809-7.133 7.168-17.832 7.72-26.583 1.37-1.628-1.18-4.047-3.329-4.047-3.593 0-.094 1.709-2.158 3.799-4.586l3.799-4.413 1.646 1.512c.905.832 2.554 2.003 3.664 2.603 1.707.923 2.337 1.092 4.083 1.1 1.735.007 2.273-.131 3.375-.864 2.964-1.968 3.82-5.086 2.074-7.553-1.136-1.606-3.988-3.356-7.953-4.883-6.373-2.453-8.855-4.233-10.665-7.644zM42.752 82.085V27.12h11.631l-.08 27.396-.08 27.397-5.736.086-5.735.086zm27.026-.014V27.12h30.796v10.738H81.405V48.91h19.169v10.737H81.405v11.37h19.169V82.07H69.778z" fill="#232866"/><path d="M.476 26.804C2.73 12.064 11.596 2.621 25.468.184c.433-.076 2.706-.157 5.052-.18 5.21-.053 8.896.524 13.84 2.167 3.641 1.21 8.889 3.452 8.647 3.695-.07.07-1.38-.122-2.913-.427-3.706-.739-11.593-.75-14.763-.02-9.907 2.281-16.91 8.559-20.117 18.034-3.651 10.786-1.96 24.305 4.745 37.932C26.033 73.73 35.42 84.42 47.063 92.257c3.477 2.34 10.627 5.916 14.6 7.302l3.043 1.061-1.699.176c-2.236.232-7.523-.277-10.67-1.028-12.64-3.015-26.244-12.154-35.795-24.048C4.3 60.475-1.822 41.836.476 26.804z" fill="url(#paint1_linear)"/><path d="M77.5 25H67c-14-9.5-28.167-6-34.5-2 1.333-3.833 6.9-11.4 18.5-11 11.6.4 22.667 8.833 26.5 13z" fill="url(#paint2_linear)"/><defs><linearGradient id="paint0_linear" x1="105" y1="87.5" x2="8" y2="87.5" gradientUnits="userSpaceOnUse"><stop stop-color="#272562"/><stop offset="1" stop-color="#486EB4"/></linearGradient><linearGradient id="paint1_linear" x1="32.353" y1="0" x2="32.353" y2="98" gradientUnits="userSpaceOnUse"><stop stop-color="#EE2D32"/><stop offset="1" stop-color="#EF3438"/></linearGradient><linearGradient id="paint2_linear" x1="33" y1="23" x2="77" y2="25" gradientUnits="userSpaceOnUse"><stop stop-color="#EAE735"/><stop offset="1" stop-color="#F47C2E"/></linearGradient></defs></svg>