<svg width="849" height="553" fill="none" xmlns="http://www.w3.org/2000/svg"><g clip-path="url(#clip0_1_13299)"><path d="M523.739 499.203l1.516-.927.758-1.516.252-.842.253-2.442.253-1.011.421-.59 5.979-5.558.337-.674.337-.758.253-.758.252-.674.506-1.263.758-1.264.421-.589.421-.253 1.768-.337.59-.168 2.779-1.516 5.39-4.38.674-.674.084-.337.421-1.516.505-3.2.253-1.011.337-.842.252-.421 1.853-1.516.842-.927.59-.926.337-.842 1.937-.506.758-.421.505-.337.842-.926.506-.674 2.947-5.727.253-.253.337-.337.421-.337.674-.337.673-.168h.674l.758.084.758.169.337.168.253.169.168.168.926.926.253.169.337.084.168-.253.085-.252v-1.095l.084-.505.252-.506.506-.758.252-.505.169-.505v-.337l-.084-.337-.085-.674-.168-.253v-.337l-.084-.336v-.337l.084-.337v-.337l.084-.421.084-.337v-.421l-.084-.337-.084-.253-1.179-2.106-.253-2.274-.421-1.516v-.505l.169-.421.252-.505.421-.337.253-.253.337-.168.505-.253.674-.169 3.537-.168.842-.337.758-.589.842.842 6.233 1.095 1.347-.084 3.706-1.264.673-.337.674-.168h.758l.758.337.421.168.758.758.758.169.842-.337.842-.59.337-.084h.842l.422.084.758.927 1.6 3.705 1.431 2.106.506 1.263-.085 1.348-.421 1.095-.589.842-.758.674-.842.421-1.179.253h-.843l-.505.337-.168 1.347.084.674.337.505.168.59v.758l-.252.337-1.264.926-.337.927.085 1.095.673 2.358.085 1.263-.169 3.622.169 1.347.337.843 1.179 1.853.336.926.085 2.021.168.843.421.926 1.937 1.853 1.853 3.285.842.926 2.527 1.432 3.874 3.453 1.179 1.853.168 2.443-.758 3.621-1.179 3.453-1.937 2.948-.589 1.179-.421 1.011-.169 1.011-.421.758-.758.589-.758.169-2.274.337-1.516.505-.842.927-2.105 6.316-1.432 2.864-3.537 4.969-2.695 2.527-2.527 3.2-2.021 3.622-1.432 3.79-.168 2.611 1.011 4.885.168 2.611-.253 2.19-.589 2.105-.927 1.853-.252.843-.169-1.095-.589-.843-.842-.505-1.011-.253-1.769.085-.673-.085-.506-.337-1.094-.758-.506-.168-.589.084-.927.253-.505.084-.337.253-.252.589-.422.59-.505.253-.842-.758-.926-2.527-1.095-.59-1.011.337-.926.674-1.6 1.6-.927.758-1.01.506-1.095.252-1.179.169-1.264.252-1.852 1.18-1.095.252-1.095-.421-.505-.926-.422-1.18-.421-1.094-1.01-.843-2.19-.842-1.011-.674-.421-.926-.842-2.695-.589-.506-1.011-.337-1.937-1.347-.926-.505h-2.358l-4.464 1.01-6.401.337-.505.169-1.01.842-.506.168h-1.347l-.59-.168-3.2-1.348-1.179-.168-1.263.168-.927.253-1.263-.927.084-1.094.758-1.095.927-.927.757-1.263-.168-1.011-.758-.842-1.011-.842-.673-1.685.252-2.274 1.011-4.127.168-2.442-.336-4.885.168-2.443 1.684-3.032 2.78-3.537 1.768-3.538-.505-1.263zM657.224 287.38l-1.852.926-2.443 2.274-1.6 1.938-1.432-.422-.589-1.094.253-.59v-.253l-.843.758-1.179-1.347-.337-.758-.084-.758-.842.421-.168-.084 1.263-3.201.421-2.021 2.611-2.611 1.6-.084 1.179.842 1.516.168 1.768 1.179.253 1.095-.758 1.264.674.421.505.758-.421.589.505.59zm-53.646 41.185l-.169 2.611-.589.674-2.695.506-.674.084-.253.168-.252.169-.085.337-.084 1.516-.337 2.442.169.337.252.253.758-.169.927-.253h.421l.168.758-5.811 13.308-.168.926-.169 1.011.253 1.769.168.505.253.505.253.169 1.347.253 11.117.252 14.654-3.621h.168l.085.084-.253.505-.253.337-.168.337-.253.421-.674 2.443-.168.421-.168.589.589 1.095v.084l-1.937.506-1.011.758 1.264 1.347 2.189 1.432 1.685.674.505-.084-2.105 2.779-.758 1.348-.253.673v.927l.084.337.169.589.336.674.337 1.179.169.59.084.337v.589l-.084 2.106-.169.337h-.252l-.085-.253-.252-.253-.253-.084-.252-.084-.422.253-.084.252.169.253.168.253.926.505.253.253.084.252-.084.337-.084.421-.253.59-.084 1.011-.084.589h-.169l-.505-.084-.505 1.432-.506 10.275-.252 1.516-.674 1.263-1.179 1.18-2.105 1.347-.674.927.589 1.263-1.01.421-3.032.842-2.358.169-2.443-.169-3.958-1.431-7.327-.169-16.759-4.38-2.274-.084-1.853.59-4.548 3.285-3.874.589-1.01 1.011.337 2.779-.169.253-.168.168-.253.085-.253.084-1.263-.169-.758.085-3.705-3.285-2.022-1.769-.673-.842-.506-1.095.085-4.38.168-.505.337-.59.589-.168h1.516l.421-.084.421-.169.253-.337.084-.337v-1.179l-.084-.589-.084-.337-.084-.421v-1.516l.168-.421.084-.337.337-.337.758-.59 1.6-.842 1.011-.337 1.347-.337h.337l.758-.168.169-.506-1.264-5.979-.842-1.348-8.506-1.6-1.095-.085-.505.169-.421-.084-.337-.169-.842-.505h-.337l-.337.084-.758.084-.589-.084-3.874-1.095-.59-.926-.168.084h-.253l-.674.253-1.684-1.853-.084-.337v-.59l.168-.421-.084-.842-.253-.421-.337-.253h-.673l-.253.084-.926.422-.253.084-.421.084h-.421l-.59-.168-.168-.253-.169-.337-.252-2.864.084-.337.084-.336.253-.169.926-.253.253-.252.168-.169.169-.589.084-1.516-1.347-1.601-.169-.505v-.505l.169-.337v-.505l-.169-.253-.253-.253-1.01-.421-.337-.337-.168-.337-.169-.252-.674-3.369-.084-1.095-.084-3.032v-.421l.084-.422.084-.336.421-1.011.253-.927.084-.842-.084-.674-.253-.589-.336-.842-.253-.337-.253-.253-.337.084-1.263.253-1.095.084-.842-.168-.758-.169-2.021-.589-6.148-.253-.421-.337 7.495-14.571 1.348-3.453-1.095-1.937-.421-1.095-.084-.337v-1.095l.168-1.179v-1.095l-.168-.252-.169-.253-.252-.253-4.38-1.179-.674-.421-.336-.168-.422-.506-.252-.589-.169-.253-.084-.337-.758-9.096.59-.758.421-1.011 5.979-2.442v-.253l2.78.758 5.726-.337 4.801-.337 12.296-.758 6.316-.337 10.275-.673 6.232-.337 1.179.337 2.021 1.094 1.095.337.926-.168 1.432-.927 1.432-.926 1.179-.842.337 1.01.252.843.169.168.337.674 1.094 1.432 1.095 1.432.505 1.179.169 1.263.168 1.179.337.59.337.505.59-.505.589-.253.59.084.589.674.674-1.432 1.011-.084.168 1.348v.168l-.084.59.505.168.084.084-1.095.843-.421.252.421.169.169.337.421.758v1.852l-.253 1.095-.252 1.095-.337 1.011-.337 1.095-.758 1.684-.59.843-.673.842-.842.589-1.685.843-.505.337-.084.505.252.253 1.937.421 1.516.842 4.464 4.464 1.684 1.263 1.6 1.348 2.022 1.01z" fill="#fff" stroke="#5F6AC0" stroke-opacity=".33" stroke-width=".864" stroke-linejoin="round"/><path d="M559.11 416.242l-.337.337-.252.253-.084.421-.085.927.337 2.526 1.348 1.264 5.979 2.105 3.959.169 1.937.758.168.252.421.758.253.253.337.084.842-.168.337.084.421.758.084.842-.59 4.885.253 1.601h.084l-.758.589-.842.337-3.537.168-.674.169-.505.253-.337.168-.253.253-.421.337-.252.505-.169.421v.505l.421 1.516.253 2.274 1.179 2.106.084.253.084.337v.421l-.084.337-.084.421v.337l-.084.337v.336l.084.337v.337l.168.253.085.674.084.337v.336l-.169.506-.252.505-.506.758-.252.506-.084.505v1.095l-.085.252-.168.253-.337-.084-.253-.169-.926-.926-.168-.168-.253-.169-.337-.168-.758-.169-.758-.084h-.674l-.673.168-.674.337-.421.337-.337.337-.253.253-2.947 5.727-.506.674-.842.926-.505.337-.758.421-1.937.506-.337.842-.59.926-.842.927-1.852 1.516-.253.421-.337.842-.253 1.011-.505 3.2-.421 1.516-.084.337-.674.674-5.39 4.38-2.779 1.516-.59.168-1.768.337-.421.253-.421.589-.758 1.264-.506 1.263-.252.674-.253.758-.337.758-.337.674-5.979 5.558-.421.59-.253 1.011-.253 2.442-.252.842-.758 1.516-1.516.927-.59-1.685-1.6-1.179-1.768-.926-1.937-.506h-3.706l-1.516-.421-4.969-2.358-2.274-2.863-1.431-1.432-1.601-.674-3.2-.927-3.032-2.442-1.347-.758-3.285-.505-4.884-2.359-1.685-.168-1.347.589-2.358 1.853-1.264.758-3.368.253-3.285-1.095-8.085-5.474-4.884-3.285-6.569-4.464-4.632-4.295-6.569-5.896-3.285-2.106-7.158-2.526-6.317-3.622-10.274-8.759-2.779-3.622.757-.758 4.464-4.969 2.274-1.516 6.737-2.78 2.611-.926 8.169-2.948.253-.168.253-.253.084-.505v-.421l-.169-.253-.168-.253-1.516-1.937-.337-.505-.253-.59-.084-.252-.084-.337v-.337l.084-.337.337-.506.421-.673 3.706-4.043.337-.253.337-.168.589-.084.505.084.59-.253.589-.505 4.885-4.885 2.274-1.769 4.885-1.095.926-.589 20.886.505.59-.168 1.01-.59 1.095-.758.168-.253.169-.252.084-.337v-1.601l.084-.336.421-.253.59-.084h1.516l.421.084.337.084.252.169.253.252.169.253.084.253.505 2.105.084.337.337.505.506.674 2.526 2.527 1.516 1.011 1.179.926.168.337.169.421v.927l-.084 1.01v.421l.084.506.084.674.253.421.252.252 3.285.843h1.769l.757-.253 1.011-.674 4.716-2.274.253-.084 7.074-1.6.927-.085 1.179.843 2.947 2.274.758.421.674.168h.337l3.705-1.516.422-.421 1.6-2.442.337-.337.421-.337.758-.421.842-.253h.674l3.789.59 4.211.842 1.011.168 1.011 1.853.168.927-.337 1.684-.084 1.011.084.505.169.337.336.253.337.168.337.169.674.084 5.39-.169.589-.168.253-.084.253-.253.168-.253.169-.337v-.589l-.085-.674v-.337l2.611.169 11.706 2.947zm62.743-35.458l.084-.589.084-1.011.253-.59.084-.421.084-.337-.084-.252-.253-.253-.926-.505-.168-.253-.169-.253.084-.252.422-.253.252.084.253.084.252.253.085.253h.252l.169-.337.084-2.106v-.589l-.084-.337-.169-.59-.337-1.179-.336-.674-.169-.589-.084-.337v-.927l.253-.673.758-1.348 2.105-2.779 11.454-2.274 2.274 1.6.336.926.085 1.011v.926l-.421.758-1.095.169-3.622-.505-.926.252-1.769 1.516-.673.253-1.095-2.021-.758-.59-.59 1.179.085.59.842.673.168.506-.084 1.263.084.59.253.674 4.295 5.979.168 1.432-2.105.842-1.095-1.768-.758-2.695-1.011-2.19-1.01-.758-.337.505.168 1.179.506 1.432 1.095 2.274-.085.927-.589 1.263-.169.084-.505.084-.168.085-.337 1.01v.421l-.084.59-.337.421-.674-.337-1.263-2.105-.843-.674-1.684 1.516-.505-.253zm21.223-23.498l-1.6-.843-1.095-.168-7.917 1.263-1.01.421-1.685.927-1.179.168-2.779-.505-1.095.084-2.779.758v-.084l-.589-1.095.168-.589.168-.422.674-2.442.253-.421.168-.337.253-.337.253-.505-.085-.084h-.168l-14.654 3.621-11.117-.253-1.347-.252-.253-.169-.253-.505-.168-.505-.253-1.769.169-1.011.168-.926 5.811-13.308-.168-.758h-.421l-.927.253-.758.169-.252-.253-.169-.337.337-2.443.084-1.516.085-.336.252-.169.253-.168.674-.085 2.695-.505.589-.674.168-2.611 3.79 2.022 5.727 3.032.169-.337.589-.59h.758l.337-.421.337-.589.421-.253.589.084 1.937.927 1.264.252 1.095-.673.252-.843-.926-.505 1.179-1.937.084-.421-.421-.758-.253-.758-.252-.843.084-.842-1.263-.252-.421-.253-.422-.506-.336-1.263-.253-2.695-.253-2.695.084-.506.085-.505.337-.337.252-.252.337-.674.084-.674-.168-1.432.084-.674.169.085.505.168.168.169.59-1.517 1.347-.926 1.011-.505 2.526 2.274.337.589.169.674.084 1.516.168.505.253.169.421-.337h.169l.168.421.168 1.095.758-.337 1.095.253 1.095.421.758.59.421.589.505 1.095.422.421.336.253 1.264.674.589.421.253.337.505 1.094v.253l-.084.758.084.337.337.253.337.084.337-.084.337.084.673.674.506.758.168.842-.674.842.758.506.674-.253.674-.421.758-.253.505.253-.253.674-.757 1.263 2.105-.337.842.084.59 1.601.926.758.253.589-.253.505-.758.758v.506l.337.252.505-.336.506-.59.505-.253.421.253.337.421v.421l-1.263.59-.421.926-.59 2.274.59-.084.505.084.505.169.421.337-.926.505.084.505.505.506.337.421.084.505.169.59.084.589-.168.506-.758.926-.253.505-.253.59-.168.505-1.011 5.896.674 1.769.337.505.084.927-.674 2.526-.252.927z" fill="#fff" stroke="#5F6AC0" stroke-opacity=".33" stroke-width=".864" stroke-linejoin="round"/><path d="M711.461 280.389l-.59 1.601-.421.758-2.442 3.2-.084.421-.085.421.085.759.084 1.01.168.337.169.253 1.347.168.169.59-.253.842-.168.421-.927 2.022-.084.336v.506l.168.421.253.505 1.011 1.348 1.01 1.684.169 1.432.168 4.801-.421 1.516-.589-.674-2.19-.926-1.853.505-1.347 6.822-2.695 3.201-3.538 2.189-5.053 2.022-4.632 3.537-9.011 2.864-1.095.505-1.01.842-2.022 2.611-1.179 1.011-1.263.421-1.516-.505-.674-.59-.505-.674-.842-1.516-.59-.673-1.179-.843-.589-.505-1.937-2.948-1.095-1.095-1.6-.168-.758-.421-.59-.674-.673-.505-.843-.085-1.6.506-.758.421-.758.589-1.179 1.601-.758 1.684-.337 1.937-.084 2.359.337 3.453-.168.842-.758.421-2.948.253-1.769 1.263v1.348l1.937 3.284h.085l1.01 3.622.506 1.179 1.263 2.274.505 1.264.337 1.431-.421 3.117-1.516.252-1.937-.673-1.263.168.252 1.853 3.538 3.2v1.516l-1.853.843-2.443-.085-4.379-1.263-1.684-.842.252-.927.674-2.526-.084-.927-.337-.505-.674-1.769 1.011-5.896.168-.505.253-.589.253-.506.758-.926.168-.506-.084-.589-.169-.59-.084-.505-.337-.421-.505-.506-.084-.505.926-.505-.421-.337-.505-.169-.506-.084-.589.084.589-2.274.422-.926 1.263-.59v-.421l-.337-.421-.421-.253-.505.253-.506.59-.505.337-.337-.253v-.505l.758-.758.253-.506-.253-.589-.926-.758-.59-1.601-.842-.084-2.106.337.758-1.263.253-.674-.505-.253-.758.253-.674.421-.674.253-.758-.506.674-.842-.168-.842-.506-.758-.673-.674-.337-.084-.337.084-.337-.084-.337-.253-.084-.337.084-.758v-.252l-.505-1.095-.253-.337-.589-.421-1.264-.674-.337-.253-.421-.421-.505-1.095-.421-.589-.758-.59-1.095-.421-1.095-.253-.758.337-.168-1.095-.168-.421h-.169l-.421.337-.253-.168-.168-.506-.084-1.516-.169-.674-.337-.589-2.526-2.274 1.937-.842 1.01-1.18.927-2.61.926-2.611.59-.758.758-.758 1.684-.758 1.6-.758 1.264-2.106.336-.421.253-.421 1.011-.337 2.105-.253.927-.421.842-.421.842-.59.842-.589.842-.842.421-.759.337-3.116.421-3.032-.084-1.095-.084-.758-.169-.252-.252-.169-.421-.589-.169-.506.253-.505.421-.337 2.274-1.095.926-.253.842.337.506-1.347 1.263-1.179 1.263-.843 1.348-.842.842-.253 1.432.59.673-.084 1.937-1.264.674-.168 1.516.253 1.432.252.589-.337-.084-.673-.842-1.516-.168-.674.336-.842.337-.843 1.264-1.01 2.779-.843 2.526-2.021 2.443-1.937.758-.842.673-.758.842-.674 3.285-.927 3.284-.926 2.78-.084 2.695-.169 2.021-.842 1.516-1.769.674-1.01.758-.59 1.347-.505 1.347-.506 4.127-3.032.59-.758.589-.674 1.685-2.947 1.684-2.864.674-.758.842-.421.926-.337.758-.421.674-.674.168-.589.169-.59 1.179-2.695 1.095-.927 1.01-.926 4.801-2.022.674.085.926.674.758.842.421.926.337 1.179.758.758 1.01.421 1.18.169.757-.337.758-.337 1.011-1.937.505-1.263.421-1.18 1.095-2.189.758-.758.674-.843.505-.926.421-1.179.674-1.011h1.179l2.274.59 1.853-.253.926-.421.927-.505 3.284-2.696 1.095-1.01 2.105-1.685 1.601-.168 1.515.674 6.906 4.885 1.685.589-.674 2.527-1.853 1.263-4.042 1.179-6.906 5.138-2.021.505-2.443-.084-1.937.505-.926 2.443-.084 3.79-.59 1.095-1.684.674-4.885.505-1.516.927-4.8 4.126-2.106 2.527-1.431 3.117-1.179 1.768-1.516.927-1.6.842-2.864 2.274-7.916 4.716-1.095 1.685.926 2.106 1.769.926 6.906.758.084.084 1.768 1.095.843.758.758.927 1.179 2.274.758.673h.842zm-54.237 6.991l-.505-.59.421-.589-.505-.758-.674-.421.758-1.264-.253-1.094-1.768-1.18-1.516-.168-1.179-.842-1.6.084-2.611 2.611-.421 2.021-1.263 3.201.168.084.842-.421.084.758.337.758 1.179 1.347.843-.758v.253l-.253.59.589 1.095 1.432.421 1.6-1.937 2.443-2.274 1.852-.927z" fill="#fff" stroke="#5F6AC0" stroke-opacity=".33" stroke-width=".864" stroke-linejoin="round"/><path d="M795.847 306.33l-.252 1.095-1.179 5.391-.422.337-.168.084-.337.168-.674.169-2.947.084-.842.168-.843-.084-6.4-1.6-1.348.168-1.179-.084h-1.095l-.589.169-2.021.926-1.601-.758-5.053 1.348-.673.926-.59.421-1.6 1.516-.253.337.085.505.589.758.758 1.601-1.432 1.431-4.042 1.348-4.295 2.358-1.011.758-1.516 2.443-3.2 3.032-1.095.168-.674-.168-2.273-1.264-1.011-.842-.505-.168-.927-.169-.505-.168-.337-.169-1.432-1.516-.337-.168-1.937-.168-.252-.337 3.116-4.212-5.559.253-1.516-.168-.336-.337-.421-.253-.758-.337h-1.011l-2.274 2.106-.674.084-1.347-.168-.674.084-.758.421-.589.59-.422.589-.505.674-1.263.758.084-.505.421-2.19-1.853-1.095-4.463-1.095-.758-.927-.169-1.179.506-.758.926-.168 1.685 1.516 1.01.337.084-1.179-.421-.59-8.927-10.107-1.516-1.347-.168-.169-.084-.252-1.011-1.011.421-1.516-.168-4.801-.169-1.432-1.01-1.684-1.011-1.348-.253-.505-.168-.421v-.506l.084-.337.927-2.021.168-.421.253-.842-.169-.59-1.347-.168-.169-.253-.168-.337-.084-1.011-.085-.758.085-.421.084-.421 2.442-3.2.421-.758.59-1.601h.337l1.6-.589 6.063-3.453 1.601-.253.926.59.842 1.095 2.779 4.716.421 1.348.085 1.347-.674 4.043.084 1.095.59.926.758-.084 1.01-.505 1.095-.084.926.421.843.589.842.842.674.927.842.842 1.01.084 2.106-.252 2.358.421 1.095.505 1.01.758.843.506 1.852.252.758.674 1.264 2.021.758.59.505-1.263-.084-1.348-.253-1.179.084-.927 1.011-.589 1.179.168.589.758.59 2.443.421.926.674.674.674-.084.505-1.264 1.179-1.516 3.369 2.864 1.094-.926.253-2.274-.421-11.202.337-.842.674.168 2.358 2.19 2.105.926 1.685-.337 1.347-1.431 1.6-3.538.674-2.19.253-1.263-.169-1.179-1.432-1.853-.505-1.095 1.011-2.442.589-.758 1.095-.422 1.095.169.589.842.253 1.263v1.348l-.926 3.706.084.758.421.168.337-.505.168-.674.253-.421.505.253.253 1.01.505.253.337-.337.084-1.432.337-.252.337.168.421.337 4.632 6.906.758 1.938.253 2.189-.084 2.696.252 2.779 1.263.59 3.875-.674 1.179 1.01.758 1.095.842.421 1.431-.842 1.095-1.01 1.179-.674 1.179-.253 1.264.758.505 1.263.253 1.769.084 1.853.421 3.369v1.263l-.337 1.179-.674 1.601 1.516-.506zm-75.964 3.538l-.59-1.6-.674-1.095-1.179-1.011-1.347-.59-.758.169.505 1.347.926.927 1.432 1.937.842.758.927.253-.084-1.095z" fill="#fff" stroke="#5F6AC0" stroke-opacity=".33" stroke-width=".864" stroke-linejoin="round"/><path d="M774.372 377.331l-.758.169-1.179-.422-1.011-.421-1.011-.758-.505-.926.842-1.011h1.179l.842-.421 1.769-1.348 1.263-.421.169.674-1.095 4.127-.505.758zm-28.719-8.928l.337.085.253-.169.505-.421.337-.168 1.179-.337.674.168.337.59-.337 1.01-2.274 1.601-.758.758.084 1.684 2.19 2.274-.084 2.022-.59.758-.674.252h-1.6l-2.358.674-.674-.084-.589-.59-.084-.674-.253-.505-.926-.084-.59.421-.674.674-.673.421-.59-.337-.084-1.6 2.105-3.285-.252-1.937-.59-.421-1.263-.253-.674-.337-.505-.842-1.264-2.611-.252-1.095.084-1.011.253-1.179.842-1.937 1.516-.842 1.095.674.842 1.516.674 1.768.842 1.095 1.347.843 2.695 1.179.169.168.252.084zm20.128-46.997l1.516 2.19 1.011 2.022.505.758.253.084.084-1.095.253-.253h.505l1.348.758.673.169.421.084.253-.168.59-.085.757.085 2.527.842.59.337.421.421.421.758 1.937 2.695.421.253.421.168 1.179.169 1.011-.169 1.347-.084 2.358.758 2.948.589.842-.084.505-.674.506-.421.673.506.927 1.431.337.253.589.084 2.527.758.673.59.085.337v1.179l-.169 1.179-.168 1.179.084.843.421 1.516.084.336-2.189.085-.843.168-3.284 1.853-.421.674-.337 1.179-.674 1.769-1.263 1.347-4.295 2.106-.253.926.337 1.011.927.59 1.431.673.674.506.253.505-.337.674-.674.168-.758-.084-.589-.253-.337-.084h-.337l-.59.169-1.853-.169-1.937-.421-1.852.084-1.516 1.516-.842 2.022-.59.926-.758.758-2.611 1.516-.673.169-1.011-.422-.253-1.01v-2.611l-.337-1.264-.673-1.431-.927-.758-.842.758-.337 1.263-.084 1.095-.421.758-1.179.084-2.358-.421-1.095-.505-1.011-.59-.926-.926-.421-.927-.421-.758-2.19-.674-1.516-1.431-1.011-.085-1.515.169-.843-.084-.673-.337-.506-.59-.421-.674-.505-.337-.674.169-.842 1.179-.421 1.432-.674 1.095-1.516.168-5.727-.842-2.863.505-1.769 1.769-1.01-.084-4.295.421-6.99 2.106-2.106.168-2.021-.084-2.021-1.432-.843-2.695-.673-3.032-1.264-2.106-1.094-.421-.927.084-.926.253-1.095.084-1.011-.253-2.442-1.094.674-2.274-.169-.253-.421-.506-.084-.084-.589-.926-.085-.169-.084-.337-.084-1.347.758-1.263 1.432-.927 3.368-.758.506-.253.505-.589 1.179-2.022.674-.673.673-.337.674-.169.758-.337.59-.589 1.768-2.106 2.948-2.442.758-.674.674-.59.421-.168.842-.168.168-.253.085-.337.168-.253.758-.505 1.263-.758.505-.674.422-.589.589-.59.758-.421.674-.084 1.347.168.674-.084 2.274-2.106h1.011l.758.337.421.253.336.337 1.516.168 5.559-.252-3.116 4.211.252.337 1.937.168.337.168 1.432 1.517.337.168.505.168.927.169.505.168 1.01.843 2.274 1.263.674.168 1.095-.168 3.2-3.032 1.516-2.443 1.011-.758 4.295-2.358 4.042-1.348zM298.202 142.683l5.306 9.012 2.442 2.274 13.222 3.621.758.421v.674l-.337.842-13.306 25.183-12.548 24.173-2.695 6.316-1.095 13.729v.758l.168.674 5.559 10.275 1.01 2.105-.252.337-.59.59-10.527 5.98-1.011.926v.843l.421.926 20.97 28.889 13.896 19.371v.927l-11.032 5.306-2.611.842-.674-.253-.673-.421-.253-.168-5.811-9.349-8.338-9.265-2.863-2.189-2.274-1.348-2.358-1.011-9.348-2.274h-2.611l-1.011.253-.842.421-.758.59-.842.926-1.937 3.79-.842.674-1.263.084-1.095-.421-.337-.253-.758-.337-.59-1.937-.589-.926-2.611-2.864-.926-.589-2.864-.506-1.095-.421-1.515-1.432-1.769-1.937-.505-.421-.674-.253-1.263-.252-11.538-10.528-1.6-1.769-1.264-2.274-.842-2.527-.505-1.095-.842-.505h-2.274l-1.095-.253-.842-.589-.674-.927-1.347-2.442-.59-1.685-1.263-2.021-.421-1.095v-2.948l-.169-1.347-.673-.59-2.443-.253-2.442-.589-.505-.337-1.011-.758-.842.084-.253.169-.926.842-2.527 1.769-1.01.421-1.348.084-.758.168-.337.253-.168.253.084.337.168.252.506 1.179.084.674-.505 1.516-.59.59-1.179-1.685-1.432-1.263-5.137-1.937-2.526.084-.674-.337-.59-.926.085-.843.589-.673.842-.253h.084l2.864-1.095-.169-2.611-.926-3.285.421-3.032.842-.589 1.011-.421.758-.59.168-1.095-.589-.842-1.095-.674-2.19-.842-1.768-1.6-1.348-2.106-1.516-1.684-2.189-.253-2.19.253-4.295-.422-10.359 1.601-2.527-.084-1.179-.422-1.937-2.105-1.179-.421-2.526-.253-1.348-.842-.673-1.179-.59-5.054-.421-1.263-.758-1.095-3.116-3.285-1.179-.758-1.179.169-1.432.673-1.432.422-1.431.084-2.19-.421-3.453-1.516-3.284-3.117-10.528-12.381-1.179-.758-.926 1.516-.674 5.643-1.01 1.938-2.022.673-2.526-.168-2.527-.59-5.221-2.189h-1.264l-.842.252-2.61 1.601-1.853.842-.927.674-.421.926.253 1.348.926.758 6.148 2.947 1.685 1.348 1.515 2.274 1.348 3.116 3.621 5.896 1.937 2.358.59.506.253.589-.253.59-.59.337-3.116.505-.842-.253-.505-.842v-1.011l.252-1.179.169-1.179-.505-2.358-1.264-1.685-1.684-1.263-4.8-2.274-1.095-.253-.927.169-1.768.758-.758.084-.842-.421-1.095-1.685-.674-.673-.926-.337-1.095-.085-1.095.253-.926.421-.506.59-.421.842-1.263 1.432-1.348.589-.842.674.337 1.769 1.01 2.274.085 1.011-.421 1.6-2.021 4.548-.674.758-1.853.674-.421.842.337 1.011.674.758.084.589-1.01.758-1.011.253-3.285-.168-.926.252-2.78 1.348-1.094.168-.337-2.779-.421-1.685-.674-1.347-.927-1.095-1.178-.927-2.611-1.431-2.106-.253-.505-.168-.505-.422-.674-.505-1.01-1.6-.59-.506-.842-.168-1.264.084-2.779.927-2.105 1.179-1.264 1.179-.505.505-1.516 3.201-6.148 19.287-.168 1.011v.337l-4.38 2.105-1.431 1.937v2.527l1.095 5.138-.169 2.526-.337 2.106-.084 2.021.926 2.359 1.095 1.768.506 1.769.168 1.853v2.274l.253 1.853.59 1.769 1.01 1.684 1.01 1.179.758.506.674.337 2.527.589.337.337-.085.421-.59.674-1.01.758-2.274 1.095-1.01 1.179-1.516 2.695-.927.59-5.98-1.264-4.631-.926-10.948-.674-11.875-.589-9.096-.506-7.916-.421-.084-30.068V133.502l-.085-15.497V39.256l.169-.084 4.548-1.516 4.547-1.432 4.632-1.516 9.18-2.948 4.548-1.516 4.632-1.432 4.548-1.516 9.18-2.948 4.631-1.432L57.17 21.4l4.632-1.431 4.548-1.517 9.18-2.947 6.148-1.938 6.063-1.852 6.148-1.853 6.148-1.938 2.779-.842 2.864-.842 5.642-1.684 2.948-.843 5.895-1.684 2.948-.842 3.958-1.18 1.179.085 1.348.59.421.336-.084.084-.758 2.022-.169 1.263-.253.758-.673 1.432-.169.842v1.937l-.168.506-.169.168-.421.253-.168.168-.169.253-.421 1.263-1.768 2.443-.253.42-.084.17-.505.505-2.274 3.2-.253.506-.084.505-.169 1.768-.589 1.853-.674 1.432-.253 1.095-.252 2.19-.253 1.095-.421 1.095-.505 1.01-.337.422-.674.673-.337.422-.168.505-.084.505-.169 1.01-.168 1.012-3.285 8-.421 3.117-.168 2.021.084 2.022 1.011 2.948 1.01 2.61 1.348 2.19.842 3.032-.084 1.6-.337 1.096-.421 1.01-1.011.674-1.179 1.685-.253 1.179-.337.674-.252.505-.084.59.336 2.526.843 2.78 1.263 1.179.926 1.01 1.937.337 2.358-.168 2.443-1.348 2.526-2.105 2.19-2.022 1.432-1.853.758-1.179.589-1.095 1.011-1.179 1.179-1.684 1.095-1.853.842-1.264.842-1.179.253-.842-.674-1.263-1.011-.421-1.179-.506.674 1.6-.842.253-1.179-.337-.506-.842.506-2.61.589-1.18.337-.842 1.011-.337.674-.337 1.01.337.253 1.347.252.843.674.673 1.011.253 1.6-.421.842-1.01-.252-1.348-1.095-1.011-.59-1.01.505-1.77.085-2.19-.59-2.273-.421-2.022v-1.431l1.011-.253 1.347-.253.674-1.516.253-1.684.421-1.264.337-2.021-1.095-.674-1.095.843-.842 1.684-1.853 1.095-1.179.168-1.263 1.011-1.432-1.01-.084-1.601.589-1.684.842-1.938.758-1.684 1.516-1.684.758-1.432 1.348-1.348 1.431-1.432 1.095-.505-2.274-1.684-1.263-1.6-1.095-4.296-.421-2.78-.168-1.852.168-2.106.674-2.443.758-2.021.421-1.01 4.8 3.284 6.232 4.211 4.296 2.864 11.537 7.917 7.496 4.97-.169.336-1.179 1.6-.673 1.348-.927 3.116-.758 2.022-1.431 2.442-1.095 1.348-.506 2.442-.589 2.358-.758 1.769-.842 1.516-1.685 2.274-.758 1.685-.589 1.684-.337 1.684.59 3.454 1.263 2.948 1.516 2.02 4.042 4.633 6.064 6.064 3.2 3.117 2.527 1.853 2.526 2.02.59.59.168.927-.252 1.937-1.011 1.516-2.274 1.516-.758 2.022-.842 2.02-1.095 2.022.758 1.853 2.442.421 2.19-.168 1.937-.59 1.263-1.179 1.769-.168 1.937.337 1.853-.674L191.919 94l2.779-1.853 1.263-1.684.253-.842-.674-.758-.926-.085-.842-.337-.506-.505-.168-.59v-.757l.253-.506.337-.842.589-.505.421-.506h.842l1.264.085 1.347.252.926-.252.758-.758.337-.927.674-2.274.337-2.19-.253-2.19-.589-3.621-.842-2.78-1.095-2.274-.337-2.19-.084-1.852.842-1.18.842-.673.926-1.095.674-1.516.421-1.938v-2.526l.084-3.285v-1.684l.927.673 9.516 6.317 8.928 6.064 8.253 5.39 7.074 4.801 10.191 6.738 3.032 2.022 1.263 1.431.842 1.853.337 1.6.337 3.538.505 1.6 2.863 4.633 5.559 6.148 2.695 2.864 2.695 2.947 3.453 3.959 2.779 3.2 5.643 6.57 2.779 3.2 2.779 3.201 2.779 3.2 5.474 6.317 3.706 4.211 1.937.843h.084z" fill="#fff" stroke="#5F6AC0" stroke-opacity=".33" stroke-width=".864" stroke-linejoin="round"/><path d="M529.718 296.813v.253l-5.979 2.442-.421 1.011-.59.758.758 9.096.084.337.169.253.252.589.422.506.336.168.674.421 4.38 1.179.252.253.169.253.168.252v1.095l-.168 1.179v1.095l.084.337.421 1.095 1.095 1.937-1.348 3.453-7.495 14.571-.927-.926-.589-.758-.169-.253-.084-.253-.084-.252v-.337l.337-1.011v-.589l-.084-.253-.085-.253-1.684-1.937-1.432-1.263-.505-.253-.421-.084-.505.168-3.537 2.443-1.095.505-1.011.168-.758-.168-.926-.337-.842-.505-1.011-.758-.758-.337-.674-.084-.673.168-.59.505-.589.59-.422.758-.421.842-.589 1.769-.169 1.011v1.01l.421 1.179.337.506.253.505-.084.505-.337.759-.337.336-1.011.422-.252.421v.505l.589 1.516.169 2.274-.337 1.432-.674 1.432-.084.421.084.421.253.337.673.674v.589l-.252.421-1.263 1.769-.422.842-.252.842-.421 1.432-1.264 3.032-.084.421.084.422.253.084h.337l.926-.169h.421l.422.085.421.168.252.421.169.337v.505l-.253.59-.505.505-3.116 2.948-.59.337-10.527 2.19-2.106-.421-2.105-1.348-1.011.337-.926-.505-.926-.674-2.022-.758-.758-.842-1.263-1.769-.505-.084-.169-.085-.926-.168-4.464-2.021h-.758l-.336.168-.253.253-.253.674-.168.421-.084.252.084.843-.169 1.263v.337l-.084.337-.168.168-.084.337-1.264 1.853-.084.421.169.253h.336l.337.084.253.168.253.253.084.337-.084.337-.169.505-.758 1.685-.168.421-.842 3.285-.337.758-.421.252-.59.253h-1.432l-1.347-.168-1.432-.674-1.684-.927-.337-.084-.337.168-.253.422-.084.421-.168 1.095-.421.337-.421.336-2.948.758-2.358.337-.505.085-.253.168-.253.253-.084.337.337.758 1.516 1.684.926.842.421.421.421.59 1.432 5.39.084.506-.084.926-.084.59-.169.505-1.431 3.285v.337l.589 1.937 2.611 5.222-.926.589-4.885 1.095-.084-1.769-.084-.421-.506-1.684-.252-.674-.253-.421-.758-1.011-.842-.926-.758-.421-1.179-.421-.927-.506-.421-1.347-.168-1.348v-1.095l-.421-1.432-.842-1.431-5.896-2.78-.421-.758-.758-.084-2.105.926h-.927l-.673-.421-.169-.505-.252-.59-.085-.337-2.274-1.263-1.431-.926-3.537-4.97-.758-1.6.673-1.6.843-1.769 1.6-2.021.168-.253.337-.421.421-.842 2.948-1.348.926-.674.842-.842.674-.926 2.358-4.717.674-.589.505-.085.337-.252.337-.253.337-.084 1.432-.169.084-.168-.253-.421-.758-1.011-1.432-1.432-.505-.926-.084-.253v-.168l.253-.084.421-.422.842-2.358-1.263-1.263-.253-1.264v-.505l.084-.674.169-.589.421-.506.842-.505 1.684-.253h1.095l1.011.253.926.842 1.095.758 1.095.337 5.727.084.589-1.094 1.095-3.538.842-.842 1.095-1.263 1.347-4.127.085-.758.505-.843.421-.337.421-.168.505.084 2.527.506.674.084.084-.758-.253-.758-.084-1.348v-1.6l.084-1.685.253-1.6 1.179-4.043-2.358.674-14.823-1.01-4.884-1.18-1.685-1.01-1.684-1.348-.674-1.937-.421-1.684-1.095-6.57-.421-1.516-.589-.084-1.516 2.274-1.6.674-2.106.421-6.484.252-1.685.674-.926.506-1.516 5.727-1.095 1.095-13.222-1.601-2.106-.758-.673-1.431-.085-4.212-.252-2.189-1.011-1.516-.926-.843-.927-.252-1.01.337-.927.842-.842 1.263-2.948 6.064-3.452 5.222-5.896 2.022.085-1.264-1.769-1.769-1.095-1.937-14.738-9.096-7.58-4.295-6.4-2.527-4.295-.926-1.179-.674-6.654-11.707-8.169-9.77-1.263-2.106-1.516-3.622-4.127-.084-17.349 6.57-20.97-28.889-.421-.927v-.842l1.011-.926 10.527-5.98.589-.59.253-.337-1.01-2.105-5.559-10.275-.168-.674v-.758l1.095-13.729 2.694-6.317 12.549-24.172 13.306-25.183.337-.842v-.674l-.758-.421-13.222-3.621-2.442-2.275-5.306-9.011 4.043-.758 3.452-.59 6.233-1.179 5.558-1.011 2.779-.505 4.464-.758 4.463-.758 22.318-3.622 4.464-.758 7.495.758 7.411.674 7.496.674 7.411.674 6.821.589 6.738.59 6.822.673 6.737.59 2.695.253 1.684-.506 4.969-2.695 4.716-2.611 4.885-2.779 4.716-2.611.927-.337.842-.337 1.6.253.758.758.842.674 5.306 6.906 5.221 6.906 2.443 2.611 2.442 2.527 5.053 3.2 5.053 3.117 1.937 1.768 4.127 8.591 2.695 5.475 3.621 7.58 3.2 6.485.843.084 7.074-3.79 6.99-3.874-1.011 16.592-1.094 16.508-.253 3.537-.421 1.18-1.179.421-.253.926-.253 12.886-.168 12.802.168.758.422.337h11.201l5.39.085h5.895l.337-.085.421.085h.337l.252.168.842 8.338.843 8.254 1.516 8.086 1.6 8.085 2.105 9.686 2.106 9.517 1.094 1.348 1.095 1.347 1.179.337z" fill="#fff" stroke="#5F6AC0" stroke-opacity=".33" stroke-width=".864" stroke-linejoin="round"/><path d="M450.385 405.209l-2.274 1.769-4.885 4.885-.589.505-.59.253-.505-.084-.589.084-.337.168-.337.253-3.706 4.043-.421.673-.337.506-.084.337v.337l.084.337.084.252.253.59.337.505 1.516 1.937.168.253.169.253v.421l-.084.505-.253.253-.253.168-8.169 2.948-2.611.926-6.737 2.78-2.274 1.516-4.464 4.969-.757.758-1.516-1.937-1.179-.674-1.432.169-3.79 1.853-1.263.336-1.432-.336-1.516-.758-7.832-5.643-6.822-4.885-5.474-3.875-2.948-3.116-5.221-7.328-3.116-3.032-6.822-4.8-16.17-11.539-7.916-5.727-6.653-4.801-5.727-4.043-2.864-2.863-.505-.337-3.537-4.464-.505-1.685-.843-3.621-.168-1.432.168-1.348.421-1.179.253-1.179-.168-1.347-1.516-3.285-.169-1.348v-1.684l-.252-1.264-.337-1.179-1.263-2.526-.337-1.18-.169-2.695-.421-.589-4.042-2.359-2.358-.673-1.095-.843-.169-.421 10.191-12.717 2.526-5.475-.589-2.19-1.6-2.442-8.001-9.012 11.032-5.306v-.927l-13.896-19.371 17.349-6.57 4.127.084 1.516 3.622 1.263 2.106 8.169 9.77 6.654 11.707 1.179.674 4.295.926 6.4 2.527 7.58 4.295 14.738 9.096 1.095 1.937 1.769 1.769-.085 1.264 5.896-2.022 3.452-5.222 2.948-6.064.842-1.263.927-.842 1.01-.337.927.252.926.843 1.011 1.516.252 2.189.085 4.212.673 1.431 2.106.758 13.222 1.601 1.095-1.095 1.516-5.727.926-.506 1.685-.674 6.484-.252 2.106-.421 1.6-.674 1.516-2.274.589.084.421 1.516 1.095 6.57.421 1.684.674 1.937 1.684 1.348 1.685 1.01 4.884 1.18 14.823 1.01 2.358-.674-1.179 4.043-.253 1.6-.084 1.685v1.6l.084 1.348.253.758-.084.758-.674-.084-2.527-.506-.505-.084-.421.168-.421.337-.505.843-.085.758-1.347 4.127-1.095 1.263-.842.842-1.095 3.538-.589 1.094-5.727-.084-1.095-.337-1.095-.758-.926-.842-1.011-.253h-1.095l-1.684.253-.842.505-.421.506-.169.589-.084.674v.505l.253 1.264 1.263 1.263-.842 2.358-.421.422-.253.084v.168l.084.253.505.926 1.432 1.432.758 1.011.253.421-.084.168-1.432.169-.337.084-.337.253-.337.252-.505.085-.674.589-2.358 4.717-.674.926-.842.842-.926.674-2.948 1.348-.421.842-.337.421-.168.253-1.6 2.021-.843 1.769-.673 1.6.758 1.6 3.537 4.97 1.431.926 2.274 1.263.085.337.252.59.169.505.673.421h.927l2.105-.926.758.084.421.758 5.896 2.78.842 1.431.421 1.432v1.095l.168 1.348.421 1.347.927.506 1.179.421.758.421.842.926.758 1.011.253.421.252.674.506 1.684.084.421.084 1.769z" fill="#fff" stroke="#5F6AC0" stroke-opacity=".33" stroke-width=".864" stroke-linejoin="round"/><path d="M308.562 306.836l8.001 9.012 1.6 2.442.589 2.19-2.526 5.474-10.191 12.718-.084-.084-.421-1.516-.253-.59-1.852-2.442-.674-1.348-1.011-3.958-.589-.927-1.6-1.768-.506-.843-.421-1.347-.505-2.948-1.6-5.474-.506-1.264.337-.505-.252-.927-.085-4.548-.168-1.347-.421-1.095-3.622-6.064-.926-1.011-10.948-8.086-4.211-1.852-4.801-1.264-1.768-.252-1.095.589-.674 1.348-.505 2.274-1.179.674-.927 2.105-1.431 1.516-1.685.842-1.852.085-1.937-.843-5.053-3.621h-.927l-2.863.505-.253-.589-.168-.59-.169-.169-.926 1.601-.337.337-.337.337-2.358-2.443-3.369-.842-9.853.589-5.98 2.022h-2.947l-1.685-.421-1.347-1.011-2.695-2.695-2.948-2.19-4.716-2.443-5.39-2.779-1.347-1.347-.337-1.517.589-5.306.421-1.095.59-.926.842-.758 2.021-1.011.674-.758-.421-1.263-3.285-4.632-1.431-2.864-.506-2.358 1.264-1.769 1.347-.926 1.516-.169 1.853.59 1.684 1.095 1.011.421.758-.085.505-.842-.084-.926-.421-.927-.59-.758-.674-.589-2.358-1.432-.758-.758-.505-.842.59-.59.505-1.516-.084-.674-.506-1.179-.168-.252-.084-.337.168-.253.337-.253.758-.168 1.348-.084 1.01-.422 2.527-1.768.926-.842.253-.169.842-.084 1.011.758.505.337 2.442.589 2.443.253.673.59.169 1.347v2.948l.421 1.095 1.263 2.021.59 1.685 1.347 2.442.674.927.842.589 1.095.253h2.274l.842.505.505 1.095.842 2.527 1.264 2.274 1.6 1.769 11.538 10.528 1.263.252.674.253.505.421 1.769 1.937 1.515 1.432 1.095.421 2.864.506.926.589 2.611 2.864.589.926.59 1.937.758.337.337.253 1.095.421 1.263-.084.842-.674 1.937-3.79.842-.927.758-.589.842-.421 1.011-.253h2.611l9.348 2.274 2.358 1.011 2.274 1.347 2.863 2.19 8.338 9.265 5.811 9.349.253.168.673.421.674.253 2.611-.842zm214.419 32.51l.421.337 6.148.253 2.021.589.758.169.842.168 1.095-.084 1.263-.253.337-.084.253.253.253.337.336.842.253.589.084.674-.084.842-.253.927-.421 1.011-.084.336-.084.422v.421l.084 3.032.084 1.095.674 3.369.168.252.169.337.337.337 1.01.421.253.253.168.253v.505l-.168.337v.505l.168.505 1.348 1.601-.084 1.516-.169.589-.168.169-.253.252-.926.253-.253.169-.084.336-.084.337.252 2.864.169.337.168.253.59.168h.421l.421-.084.253-.084.926-.422.253-.084h.673l.337.253.253.421.084.842-.168.421v.59l.084.337 1.684 1.853.674-.253h.253l.168-.084.59.926 3.874 1.095.589.084.758-.084.337-.084h.337l.842.505.337.169.421.084.505-.169 1.095.085 8.506 1.6.842 1.348 1.264 5.979-.169.506-.758.168h-.337l-1.347.337-1.011.337-1.6.842-.758.59-.337.337-.084.337-.168.421v1.516l.084.421.084.337.084.589v1.179l-.084.337-.253.337-.421.169-.421.084h-1.516l-.589.168-.337.59-.168.505-.085 4.38.506 1.095.673.842 2.022 1.769 3.705 3.285-.421.589-.589 2.443-.337 2.526-.085 2.359-.589 2.105-.337 2.106-.337.168-.505-.168-.505.168-.085.084-11.706-2.947-2.611-.169v.337l.085.674v.589l-.169.337-.168.253-.253.253-.253.084-.589.168-5.39.169-.674-.084-.337-.169-.337-.168-.336-.253-.169-.337-.084-.505.084-1.011.337-1.684-.168-.927-1.011-1.853-1.011-.168-4.211-.843-3.789-.589h-.674l-.842.253-.758.421-.421.337-.337.336-1.6 2.443-.422.421-3.705 1.516h-.337l-.674-.168-.758-.421-2.947-2.274-1.179-.843-.927.085-7.074 1.6-.253.084-4.716 2.274-1.011.674-.757.252h-1.769l-3.285-.842-.252-.252-.253-.422-.084-.673-.084-.506v-.421l.084-1.01v-.927l-.169-.421-.168-.337-1.179-.926-1.516-1.011-2.526-2.527-.506-.674-.337-.505-.084-.337-.505-2.105-.084-.253-.169-.253-.253-.252-.252-.169-.337-.084-.421-.084h-1.516l-.59.084-.421.253-.084.336v1.601l-.084.337-.169.252-.168.253-1.095.758-1.01.59-.59.168-20.886-.505-2.611-5.222-.589-1.937v-.337l1.431-3.285.169-.505.084-.59.084-.926-.084-.506-1.432-5.39-.421-.59-.421-.421-.926-.842-1.516-1.684-.337-.758.084-.337.253-.253.253-.168.505-.085 2.358-.337 2.948-.758.421-.337.421-.336.168-1.095.084-.421.253-.422.337-.168.337.084 1.684.927 1.432.673 1.347.169h1.432l.59-.253.421-.252.337-.758.842-3.285.168-.421.758-1.685.169-.505.084-.337-.084-.337-.253-.253-.253-.168-.337-.084h-.337l-.168-.253.084-.421 1.264-1.853.084-.337.168-.168.084-.337v-.337l.169-1.263-.084-.843.084-.252.168-.421.253-.674.253-.253.336-.168h.758l4.464 2.021.926.168.169.085.505.084 1.263 1.769.758.842 2.022.758.926.674.926.505 1.011-.337 2.105 1.348 2.106.421 10.527-2.19.59-.337 3.116-2.948.505-.505.253-.59v-.505l-.169-.337-.252-.421-.421-.168-.422-.085h-.421l-.926.169h-.337l-.253-.084-.084-.422.084-.421 1.264-3.032.421-1.432.252-.842.422-.842 1.263-1.769.252-.421v-.589l-.673-.674-.253-.337-.084-.421.084-.421.674-1.432.337-1.432-.169-2.274-.589-1.516v-.505l.252-.422 1.011-.421.337-.337.337-.758.084-.505-.253-.505-.337-.506-.421-1.179v-1.01l.169-1.011.589-1.769.421-.842.421-.758.59-.59.589-.505.674-.168.674.084.758.337 1.011.758.842.505.926.337.758.168 1.011-.168 1.095-.505 3.537-2.443.505-.168.421.084.505.253 1.432 1.263 1.684 1.937.085.253.084.252v.59l-.337 1.011v.337l.084.252.084.253.169.253.589.758.927.926zm274.466 2.358l-.084-.337-.421-1.516-.084-.842.168-1.179.169-1.179v-1.179l-.085-.337-.673-.59-2.527-.758-.589-.084-.337-.253-.927-1.431-.673-.506-.506.421-.505.674-.842.084-2.948-.589-2.358-.758-1.347.084-1.011.168-1.179-.168-.421-.168-.421-.253-1.937-2.695-.421-.758-.421-.421-.59-.337-2.527-.843-.757-.084-.59.084-.253.169-.421-.084-.673-.169-1.348-.758h-.505l-.253.253-.084 1.095-.253-.084-.505-.758-1.011-2.022-1.516-2.19 1.432-1.431-.758-1.601-.589-.758-.085-.505.253-.337 1.6-1.516.59-.421.673-.927 5.053-1.347 1.601.758 2.021-.927.589-.168h1.095l1.179.084 1.348-.168 6.4 1.6.843.084.842-.168 2.947-.084.674-.169.337-.168.168-.085.421-.336 1.18-5.391.252-1.095 2.779-.842 1.853-.253.337-.336.59-1.685.252-.421.927-.758.589.421 1.432 2.19 1.01.674 1.432.421 2.611.252.253.169.084.253v.336l-.084.422v1.516l.926.421 1.179.084 1.011.421 2.021 3.285 1.516 1.6 1.937.842 2.105.253 6.317-.59 1.852.59.253 1.853-.168 1.095.673-.084 2.274-1.601 3.622-1.684.758.505.673 1.011 1.011.674 2.863-.169 1.516.337.253 1.263-1.516 2.022-2.274 1.347-4.632 1.685-4.211 2.611-3.537.926-1.684.758-1.179 1.769-.59 4.295-1.432.674-1.768-.842h-.927l-.336 1.095-.085.926-.252.927-.421.758-.758.674-1.937.084-3.453-2.358-1.853-.253-1.432-.758-1.6-1.853-1.684-1.432-1.432.674-.168 1.011 1.094 1.768-.084 1.179-.252 1.095v.674l.421.59 2.105 1.516.505 1.347v1.516l-.589 1.601-1.011 1.347-1.095.253-1.347-.505-2.863-1.685-.758-.253-2.19.085-.674-.253.253-.59.589-.168.843-.084.673-.169.253-.674-.505-.421-.843-.084-.421.084z" fill="#fff" stroke="#5F6AC0" stroke-opacity=".33" stroke-width=".864" stroke-linejoin="round"/><circle cx="685" cy="280" r="13" fill="#5F6AC0"/><circle cx="685" cy="280" r="16" fill="#5F6AC0" fill-opacity=".31"/><path d="M683.478 284.182c-.464 0-.895-.084-1.294-.254a3.05 3.05 0 01-1.033-.728 2.953 2.953 0 01-.631-1.124l1.112-.319c.143.434.381.763.715.988.333.226.708.336 1.124.332.381-.009.711-.095.988-.26.282-.169.498-.399.65-.689.156-.29.234-.626.234-1.008 0-.58-.173-1.05-.52-1.41-.347-.364-.802-.546-1.365-.546a2.126 2.126 0 00-.968.247l-.559-.917 3.471-3.139.149.39h-4.66v-1.105h5.518v1.111l-2.957 2.834-.013-.409c.619-.043 1.161.058 1.625.305a2.63 2.63 0 011.079 1.06c.26.459.389.986.389 1.579 0 .598-.134 1.127-.402 1.586-.269.46-.633.822-1.092 1.086-.46.26-.98.39-1.56.39z" fill="#fff"/><circle cx="739" cy="308" r="13" fill="#FF675D"/><path d="M737.478 312.182c-.464 0-.895-.084-1.294-.254a3.05 3.05 0 01-1.033-.728 2.953 2.953 0 01-.631-1.124l1.112-.319c.143.434.381.763.715.988.333.226.708.336 1.124.332.381-.009.711-.095.988-.26.282-.169.498-.399.65-.689.156-.29.234-.626.234-1.008 0-.58-.173-1.05-.52-1.41-.347-.364-.802-.546-1.365-.546a2.126 2.126 0 00-.968.247l-.559-.917 3.471-3.139.149.39h-4.66v-1.105h5.518v1.111l-2.957 2.834-.013-.409c.619-.043 1.161.058 1.625.305a2.63 2.63 0 011.079 1.06c.26.459.389.986.389 1.579 0 .598-.134 1.127-.402 1.586-.269.46-.633.822-1.092 1.086-.46.26-.98.39-1.56.39z" fill="#fff"/><circle cx="763" cy="339" r="13" fill="#FF675D"/><path d="M761.478 343.182c-.464 0-.895-.084-1.294-.254a3.05 3.05 0 01-1.033-.728 2.953 2.953 0 01-.631-1.124l1.112-.319c.143.434.381.763.715.988.333.226.708.336 1.124.332.381-.009.711-.095.988-.26.282-.169.498-.399.65-.689.156-.29.234-.626.234-1.008 0-.58-.173-1.05-.52-1.41-.347-.364-.802-.546-1.365-.546a2.126 2.126 0 00-.968.247l-.559-.917 3.471-3.139.149.39h-4.66v-1.105h5.518v1.111l-2.957 2.834-.013-.409c.619-.043 1.161.058 1.625.305a2.63 2.63 0 011.079 1.06c.26.459.389.986.389 1.579 0 .598-.134 1.127-.402 1.586-.269.46-.633.822-1.092 1.086-.46.26-.98.39-1.56.39z" fill="#fff"/><circle cx="625" cy="338" r="13" fill="#FF675D"/><path d="M623.478 342.182c-.464 0-.895-.084-1.294-.254a3.05 3.05 0 01-1.033-.728 2.953 2.953 0 01-.631-1.124l1.112-.319c.143.434.381.763.715.988.333.226.708.336 1.124.332.381-.009.711-.095.988-.26.282-.169.498-.399.65-.689.156-.29.234-.626.234-1.008 0-.58-.173-1.05-.52-1.41-.347-.364-.802-.546-1.365-.546a2.126 2.126 0 00-.968.247l-.559-.917 3.471-3.139.149.39h-4.66v-1.105h5.518v1.111l-2.957 2.834-.013-.409c.619-.043 1.161.058 1.625.305a2.63 2.63 0 011.079 1.06c.26.459.389.986.389 1.579 0 .598-.134 1.127-.402 1.586-.269.46-.633.822-1.092 1.086-.46.26-.98.39-1.56.39z" fill="#fff"/><circle cx="504" cy="460" r="13" fill="#FF675D"/><path d="M502.478 464.182c-.464 0-.895-.084-1.294-.254a3.05 3.05 0 01-1.033-.728 2.953 2.953 0 01-.631-1.124l1.112-.319c.143.434.381.763.715.988.333.226.708.336 1.124.332.381-.009.711-.095.988-.26.282-.169.498-.399.65-.689.156-.29.234-.626.234-1.008 0-.58-.173-1.05-.52-1.41-.347-.364-.802-.546-1.365-.546a2.126 2.126 0 00-.968.247l-.559-.917 3.471-3.139.149.39h-4.66v-1.105h5.518v1.111l-2.957 2.834-.013-.409c.619-.043 1.161.058 1.625.305a2.63 2.63 0 011.079 1.06c.26.459.389.986.389 1.579 0 .598-.134 1.127-.402 1.586-.269.46-.633.822-1.092 1.086-.46.26-.98.39-1.56.39z" fill="#fff"/><circle cx="351" cy="263" r="13" fill="#FF675D"/><path d="M349.478 267.182c-.464 0-.895-.084-1.294-.254a3.05 3.05 0 01-1.033-.728 2.953 2.953 0 01-.631-1.124l1.112-.319c.143.434.381.763.715.988.333.226.708.336 1.124.332.381-.009.711-.095.988-.26.282-.169.498-.399.65-.689.156-.29.234-.626.234-1.008 0-.58-.173-1.05-.52-1.41-.347-.364-.802-.546-1.365-.546a2.126 2.126 0 00-.968.247l-.559-.917 3.471-3.139.149.39h-4.66v-1.105h5.518v1.111l-2.957 2.834-.013-.409c.619-.043 1.161.058 1.625.305a2.63 2.63 0 011.079 1.06c.26.459.389.986.389 1.579 0 .598-.134 1.127-.402 1.586-.269.46-.633.822-1.092 1.086-.46.26-.98.39-1.56.39z" fill="#fff"/><circle cx="222" cy="183" r="13" fill="#FF675D"/><path d="M220.478 187.182c-.464 0-.895-.084-1.294-.254a3.05 3.05 0 01-1.033-.728 2.953 2.953 0 01-.631-1.124l1.112-.319c.143.434.381.763.715.988.333.226.708.336 1.124.332.381-.009.711-.095.988-.26.282-.169.498-.399.65-.689.156-.29.234-.626.234-1.008 0-.58-.173-1.05-.52-1.41-.347-.364-.802-.546-1.365-.546a2.126 2.126 0 00-.968.247l-.559-.917 3.471-3.139.149.39h-4.66v-1.105h5.518v1.111l-2.957 2.834-.013-.409c.619-.043 1.161.058 1.625.305a2.63 2.63 0 011.079 1.06c.26.459.389.986.389 1.579 0 .598-.134 1.127-.402 1.586-.269.46-.633.822-1.092 1.086-.46.26-.98.39-1.56.39z" fill="#fff"/><circle cx="649" cy="308" r="13" fill="#FF675D"/><path d="M647.478 312.182c-.464 0-.895-.084-1.294-.254a3.05 3.05 0 01-1.033-.728 2.953 2.953 0 01-.631-1.124l1.112-.319c.143.434.381.763.715.988.333.226.708.336 1.124.332.381-.009.711-.095.988-.26.282-.169.498-.399.65-.689.156-.29.234-.626.234-1.008 0-.58-.173-1.05-.52-1.41-.347-.364-.802-.546-1.365-.546a2.126 2.126 0 00-.968.247l-.559-.917 3.471-3.139.149.39h-4.66v-1.105h5.518v1.111l-2.957 2.834-.013-.409c.619-.043 1.161.058 1.625.305a2.63 2.63 0 011.079 1.06c.26.459.389.986.389 1.579 0 .598-.134 1.127-.402 1.586-.269.46-.633.822-1.092 1.086-.46.26-.98.39-1.56.39z" fill="#fff"/></g><defs><clipPath id="clip0_1_13299"><path fill="#fff" d="M0 0h849v553H0z"/></clipPath></defs></svg>