<svg width="35" height="15" fill="none" xmlns="http://www.w3.org/2000/svg"><path d="M8.227 14.385c-3.961 0-7.184-3.223-7.184-7.184.395-9.53 13.974-9.527 14.368 0 0 3.961-3.223 7.184-7.184 7.184zm0-13.105A5.928 5.928 0 002.306 7.2c.325 7.855 11.518 7.853 11.842 0a5.928 5.928 0 00-5.921-5.92zM25.97 14.385c-3.962 0-7.184-3.223-7.184-7.184.394-9.53 13.974-9.527 14.367 0 0 3.961-3.223 7.184-7.184 7.184zm0-13.105a5.928 5.928 0 00-5.923 5.92c.325 7.855 11.518 7.853 11.842 0a5.928 5.928 0 00-5.92-5.921z" fill="#FF675D"/><path d="M14.202 5.14c-.43.007-.752-.451-.591-.853 1.226-3.216 5.75-3.226 6.974 0a.631.631 0 11-1.182.442 2.472 2.472 0 00-2.355-1.61 2.486 2.486 0 00-2.255 1.61.631.631 0 01-.591.41zm19.363 0h-1.62a.631.631 0 110-1.263h1.62c.835.028.835 1.233 0 1.262zm-31.313 0H.632a.631.631 0 110-1.263h1.62c.835.028.835 1.233 0 1.262zm8.614-.659a.797.797 0 01-1.098.254c-.875-.596-.074-1.877.845-1.352a.797.797 0 01.253 1.098zM4.672 6.789a.634.634 0 01-.606-.81A4.355 4.355 0 017.2 2.988a.631.631 0 11.3 1.226 3.088 3.088 0 00-2.222 2.122.632.632 0 01-.606.453zm17.743 0a.634.634 0 01-.606-.81 4.355 4.355 0 013.133-2.991.631.631 0 11.3 1.226 3.089 3.089 0 00-2.222 2.122.631.631 0 01-.605.453z" fill="#FF675D"/></svg>