<svg width="22" height="22" fill="none" xmlns="http://www.w3.org/2000/svg"><path d="M20.65 15.533c-.037-.03-4.16-2.963-5.273-2.783-.537.095-.843.461-1.459 1.194-.099.118-.337.4-.521.602a9.419 9.419 0 01-5.943-5.943c.202-.185.485-.423.606-.525.73-.612 1.095-.92 1.19-1.457.195-1.113-2.753-5.234-2.783-5.27A1.574 1.574 0 005.294.687C4.099.688.688 5.112.688 5.857c0 .044.062 4.446 5.491 9.969 5.517 5.423 9.92 5.486 9.963 5.486.745 0 5.17-3.412 5.17-4.607a1.573 1.573 0 00-.663-1.173zm-4.584 4.4c-.597-.05-4.296-.538-8.916-5.076-4.56-4.643-5.035-8.348-5.083-8.922a18.6 18.6 0 013.236-3.823c.027.027.064.069.11.122A24.33 24.33 0 017.87 6.403c-.22.222-.453.43-.698.626a6.93 6.93 0 00-1.04.978.687.687 0 00-.117.516c.145.63.368 1.24.663 1.816a10.8 10.8 0 004.983 4.982 7.829 7.829 0 001.816.664.682.682 0 00.516-.117c.363-.313.691-.663.981-1.044.216-.257.504-.6.614-.697a24.167 24.167 0 014.177 2.46c.057.048.098.085.124.109a18.589 18.589 0 01-3.823 3.236v.001zm-.253-9.62h1.374a5.506 5.506 0 00-5.5-5.5v1.375a4.129 4.129 0 014.126 4.125z" fill="#FF675E"/><path d="M19.25 10.313h1.375a8.948 8.948 0 00-8.938-8.938V2.75a7.571 7.571 0 017.563 7.563z" fill="#FF675E"/></svg>