<svg width="40" height="40" fill="none" xmlns="http://www.w3.org/2000/svg"><path d="M20.196 39.4A19.204 19.204 0 011 20.196v0A19.196 19.196 0 0120.196 1 19.196 19.196 0 0139.4 20.196v0A19.204 19.204 0 0120.196 39.4v0z" stroke="#5F6AC0" stroke-miterlimit="10"/><g opacity=".8" fill="#5F6AC0"><path d="M20.196 12.544c2.479 0 2.793 0 3.776.058.593.005 1.18.114 1.735.322.403.15.767.386 1.066.694.31.304.549.67.703 1.075.204.556.312 1.143.322 1.735 0 .983.05 1.28.05 3.768 0 2.487 0 2.793-.05 3.777a5.289 5.289 0 01-.322 1.735 3.173 3.173 0 01-1.769 1.768 5.286 5.286 0 01-1.735.323c-.983 0-1.28.05-3.776.05-2.496 0-2.785 0-3.769-.05a5.286 5.286 0 01-1.735-.323 3.173 3.173 0 01-1.768-1.768 5.289 5.289 0 01-.322-1.735c-.042-.984-.05-1.281-.05-3.777 0-2.495 0-2.785.05-3.768a5.272 5.272 0 01.322-1.735c.153-.405.393-.771.702-1.075a2.876 2.876 0 011.066-.694 5.073 5.073 0 011.735-.322c.984 0 1.281-.058 3.769-.058zm0-1.652c-2.529 0-2.851 0-3.843.058a6.752 6.752 0 00-2.264.43 4.843 4.843 0 00-2.735 2.734 6.706 6.706 0 00-.43 2.264c-.05.992-.058 1.314-.058 3.843s0 2.86.058 3.85a6.75 6.75 0 00.43 2.265 4.841 4.841 0 002.735 2.735 6.97 6.97 0 002.264.43c.992.05 1.314.058 3.843.058 2.528 0 2.859 0 3.85-.058a6.969 6.969 0 002.265-.43 4.843 4.843 0 002.735-2.735c.272-.725.417-1.49.43-2.264.049-.992.057-1.314.057-3.851s0-2.85-.058-3.843a6.711 6.711 0 00-.43-2.264 4.842 4.842 0 00-2.735-2.735 6.752 6.752 0 00-2.264-.43c-.991-.05-1.314-.057-3.85-.057z"/><path d="M20.195 15.403a4.792 4.792 0 100 9.585 4.792 4.792 0 000-9.585zm0 7.908a3.116 3.116 0 110-6.231 3.116 3.116 0 010 6.232m6.066-8.09a1.124 1.124 0 11-1.107-1.124 1.124 1.124 0 011.124 1.123"/></g></svg>