<svg width="40" height="40" fill="none" xmlns="http://www.w3.org/2000/svg"><path d="M20.196 39.4A19.204 19.204 0 011 20.196v0A19.196 19.196 0 0120.196 1 19.196 19.196 0 0139.4 20.196v0A19.204 19.204 0 0120.196 39.4v0z" stroke="#5F6AC0" stroke-miterlimit="10"/><g opacity=".8" clip-path="url(#clip0)"><path d="M17.757 23.603l2.565 1.922 4.194 3.103c.769.433 1.31.205 1.518-.715l2.753-13.034v-.001c.245-1.149-.41-1.598-1.16-1.316l-16.18 6.26c-1.105.433-1.088 1.055-.188 1.337l4.136 1.3 9.61-6.076c.452-.302.863-.135.524.168l-7.772 7.052z" fill="#5F6AC0"/></g><defs><clipPath id="clip0"><path fill="#fff" transform="translate(10.6 10.6)" d="M0 0h18.24v18.24H0z"/></clipPath></defs></svg>