<svg width="40" height="40" fill="none" xmlns="http://www.w3.org/2000/svg"><path d="M20.2 39.4A19.21 19.21 0 011 20.196v0A19.194 19.194 0 0120.2 1a19.202 19.202 0 0119.2 19.196v0A19.21 19.21 0 0120.2 39.4v0z" stroke="#5F6AC0" stroke-miterlimit="10"/><path opacity=".8" d="M13.288 24.657a7.9 7.9 0 004.155 1.3 7.885 7.885 0 004.208-1.105 8.179 8.179 0 003.037-3.19 8.468 8.468 0 00.985-4.348 5.913 5.913 0 001.44-1.512 5.36 5.36 0 01-1.628.459 2.9 2.9 0 001.256-1.608 5.674 5.674 0 01-1.797.71 2.806 2.806 0 00-1.604-.884 2.761 2.761 0 00-1.796.304c-.55.302-.986.782-1.243 1.366a2.982 2.982 0 00-.176 1.862 7.855 7.855 0 01-3.234-.878 8.07 8.07 0 01-2.604-2.158c-.36.64-.47 1.397-.306 2.117.163.72.587 1.349 1.186 1.759a2.769 2.769 0 01-1.257-.362 2.965 2.965 0 00.63 1.863c.413.527.993.889 1.639 1.024-.41.112-.84.13-1.257.052.179.578.53 1.083 1.003 1.445a2.766 2.766 0 001.636.57 5.6 5.6 0 01-2.016 1.055 5.507 5.507 0 01-2.257.16z" fill="#5F6AC0"/></svg>