<svg width="849" height="553" viewBox="0 0 849 553" fill="none" xmlns="http://www.w3.org/2000/svg">
<g clip-path="url(#clip0_1_13299)">
<path d="M523.739 499.203L525.255 498.276L526.013 496.76L526.265 495.918L526.518 493.476L526.771 492.465L527.192 491.875L533.171 486.317L533.508 485.643L533.845 484.885L534.098 484.127L534.35 483.453L534.856 482.19L535.614 480.926L536.035 480.337L536.456 480.084L538.224 479.747L538.814 479.579L541.593 478.063L546.983 473.683L547.657 473.009L547.741 472.672L548.162 471.156L548.667 467.956L548.92 466.945L549.257 466.103L549.509 465.682L551.362 464.166L552.204 463.239L552.794 462.313L553.131 461.471L555.068 460.965L555.826 460.544L556.331 460.207L557.173 459.281L557.679 458.607L560.626 452.88L560.879 452.627L561.216 452.29L561.637 451.953L562.311 451.616L562.984 451.448H563.658L564.416 451.532L565.174 451.701L565.511 451.869L565.764 452.038L565.932 452.206L566.858 453.132L567.111 453.301L567.448 453.385L567.616 453.132L567.701 452.88V451.785L567.785 451.28L568.037 450.774L568.543 450.016L568.795 449.511L568.964 449.006V448.669L568.88 448.332L568.795 447.658L568.627 447.405V447.068L568.543 446.732V446.395L568.627 446.058V445.721L568.711 445.3L568.795 444.963V444.542L568.711 444.205L568.627 443.952L567.448 441.846L567.195 439.572L566.774 438.056V437.551L566.943 437.13L567.195 436.625L567.616 436.288L567.869 436.035L568.206 435.867L568.711 435.614L569.385 435.445L572.922 435.277L573.764 434.94L574.522 434.351L575.364 435.193L581.597 436.288L582.944 436.204L586.65 434.94L587.323 434.603L587.997 434.435H588.755L589.513 434.772L589.934 434.94L590.692 435.698L591.45 435.867L592.292 435.53L593.134 434.94L593.471 434.856H593.892H594.313L594.735 434.94L595.493 435.867L597.093 439.572L598.524 441.678L599.03 442.941L598.945 444.289L598.524 445.384L597.935 446.226L597.177 446.9L596.335 447.321L595.156 447.574H594.313L593.808 447.911L593.64 449.258L593.724 449.932L594.061 450.437L594.229 451.027V451.785L593.977 452.122L592.713 453.048L592.376 453.975L592.461 455.07L593.134 457.428L593.219 458.691L593.05 462.313L593.219 463.66L593.556 464.503L594.735 466.356L595.071 467.282L595.156 469.303L595.324 470.146L595.745 471.072L597.682 472.925L599.535 476.21L600.377 477.136L602.904 478.568L606.778 482.021L607.957 483.874L608.125 486.317L607.367 489.938L606.188 493.391L604.251 496.339L603.662 497.518L603.241 498.529L603.072 499.54L602.651 500.298L601.893 500.887L601.135 501.056L598.861 501.393L597.345 501.898L596.503 502.825L594.398 509.141L592.966 512.005L589.429 516.974L586.734 519.501L584.207 522.701L582.186 526.323L580.754 530.113L580.586 532.724L581.597 537.609L581.765 540.22L581.512 542.41L580.923 544.515L579.996 546.368L579.744 547.211L579.575 546.116L578.986 545.273L578.144 544.768L577.133 544.515L575.364 544.6L574.691 544.515L574.185 544.178L573.091 543.42L572.585 543.252L571.996 543.336L571.069 543.589L570.564 543.673L570.227 543.926L569.975 544.515L569.553 545.105L569.048 545.358L568.206 544.6L567.28 542.073L566.185 541.483L565.174 541.82L564.248 542.494L562.648 544.094L561.721 544.852L560.711 545.358L559.616 545.61L558.437 545.779L557.173 546.031L555.321 547.211L554.226 547.463L553.131 547.042L552.626 546.116L552.204 544.936L551.783 543.842L550.773 542.999L548.583 542.157L547.572 541.483L547.151 540.557L546.309 537.862L545.72 537.356L544.709 537.019L542.772 535.672L541.846 535.167H539.488L535.024 536.177L528.623 536.514L528.118 536.683L527.108 537.525L526.602 537.693H525.255L524.665 537.525L521.465 536.177L520.286 536.009L519.023 536.177L518.096 536.43L516.833 535.503L516.917 534.409L517.675 533.314L518.602 532.387L519.359 531.124L519.191 530.113L518.433 529.271L517.422 528.429L516.749 526.744L517.001 524.47L518.012 520.343L518.18 517.901L517.844 513.016L518.012 510.573L519.696 507.541L522.476 504.004L524.244 500.466L523.739 499.203Z" fill="white" stroke="#5F6AC0" stroke-opacity="0.33" stroke-width="0.863541" stroke-linejoin="round"/>
<path d="M657.224 287.38L655.372 288.306L652.929 290.58L651.329 292.518L649.897 292.096L649.308 291.002L649.561 290.412V290.159L648.718 290.917L647.539 289.57L647.202 288.812L647.118 288.054L646.276 288.475L646.108 288.391L647.371 285.19L647.792 283.169L650.403 280.558L652.003 280.474L653.182 281.316L654.698 281.484L656.466 282.663L656.719 283.758L655.961 285.022L656.635 285.443L657.14 286.201L656.719 286.79L657.224 287.38Z" fill="white" stroke="#5F6AC0" stroke-opacity="0.33" stroke-width="0.863541" stroke-linejoin="round"/>
<path d="M603.578 328.565L603.409 331.176L602.82 331.85L600.125 332.356L599.451 332.44L599.198 332.608L598.946 332.777L598.861 333.114L598.777 334.63L598.44 337.072L598.609 337.409L598.861 337.662L599.619 337.493L600.546 337.24H600.967L601.135 337.998L595.324 351.306L595.156 352.232L594.987 353.243L595.24 355.012L595.408 355.517L595.661 356.022L595.914 356.191L597.261 356.444L608.378 356.696L623.032 353.075H623.2L623.285 353.159L623.032 353.664L622.779 354.001L622.611 354.338L622.358 354.759L621.684 357.202L621.516 357.623L621.348 358.212L621.937 359.307V359.391L620 359.897L618.989 360.655L620.253 362.002L622.442 363.434L624.127 364.108L624.632 364.024L622.527 366.803L621.769 368.151L621.516 368.824V369.33V369.751L621.6 370.088L621.769 370.677L622.105 371.351L622.442 372.53L622.611 373.12L622.695 373.457V374.046L622.611 376.152L622.442 376.489H622.19L622.105 376.236L621.853 375.983L621.6 375.899L621.348 375.815L620.926 376.068L620.842 376.32L621.011 376.573L621.179 376.826L622.105 377.331L622.358 377.584L622.442 377.836L622.358 378.173L622.274 378.594L622.021 379.184L621.937 380.195L621.853 380.784H621.684L621.179 380.7L620.674 382.132L620.168 392.407L619.916 393.923L619.242 395.186L618.063 396.366L615.958 397.713L615.284 398.64L615.873 399.903L614.863 400.324L611.831 401.166L609.473 401.335L607.03 401.166L603.072 399.735L595.745 399.566L578.986 395.186L576.712 395.102L574.859 395.692L570.311 398.977L566.437 399.566L565.427 400.577L565.764 403.356L565.595 403.609L565.427 403.777L565.174 403.862L564.921 403.946L563.658 403.777L562.9 403.862L559.195 400.577L557.173 398.808L556.5 397.966L555.994 396.871L556.079 392.491L556.247 391.986L556.584 391.396L557.173 391.228H558.689L559.11 391.144L559.531 390.975L559.784 390.638L559.868 390.301V389.543V389.122L559.784 388.533L559.7 388.196L559.616 387.775V387.185V386.259L559.784 385.838L559.868 385.501L560.205 385.164L560.963 384.574L562.563 383.732L563.574 383.395L564.921 383.058H565.258L566.016 382.89L566.185 382.384L564.921 376.405L564.079 375.057L555.573 373.457L554.478 373.372L553.973 373.541L553.552 373.457L553.215 373.288L552.373 372.783H552.036L551.699 372.867L550.941 372.951L550.352 372.867L546.478 371.772L545.888 370.846L545.72 370.93H545.467L544.793 371.183L543.109 369.33L543.025 368.993V368.403L543.193 367.982L543.109 367.14L542.856 366.719L542.519 366.466H542.183H541.846L541.593 366.55L540.667 366.972L540.414 367.056L539.993 367.14H539.572L538.982 366.972L538.814 366.719L538.645 366.382L538.393 363.518L538.477 363.181L538.561 362.845L538.814 362.676L539.74 362.423L539.993 362.171L540.161 362.002L540.33 361.413L540.414 359.897L539.067 358.296L538.898 357.791V357.286L539.067 356.949V356.444L538.898 356.191L538.645 355.938L537.635 355.517L537.298 355.18L537.13 354.843L536.961 354.591L536.287 351.222L536.203 350.127L536.119 347.095V346.674L536.203 346.252L536.287 345.916L536.708 344.905L536.961 343.978L537.045 343.136L536.961 342.462L536.708 341.873L536.372 341.031L536.119 340.694L535.866 340.441L535.529 340.525L534.266 340.778L533.171 340.862L532.329 340.694L531.571 340.525L529.55 339.936L523.402 339.683L522.981 339.346L530.476 324.775L531.824 321.322L530.729 319.385L530.308 318.29L530.224 317.953V316.858L530.392 315.679V315.09V314.584L530.224 314.332L530.055 314.079L529.803 313.826L525.423 312.647L524.749 312.226L524.413 312.058L523.991 311.552L523.739 310.963L523.57 310.71L523.486 310.373L522.728 301.277L523.318 300.519L523.739 299.508L529.718 297.066V296.813L532.498 297.571L538.224 297.234L543.025 296.897L555.321 296.139L561.637 295.802L571.912 295.129L578.144 294.792L579.323 295.129L581.344 296.223L582.439 296.56L583.365 296.392L584.797 295.465L586.229 294.539L587.408 293.697L587.745 294.707L587.997 295.55L588.166 295.718L588.503 296.392L589.597 297.824L590.692 299.256L591.197 300.435L591.366 301.698L591.534 302.877L591.871 303.467L592.208 303.972L592.798 303.467L593.387 303.214L593.977 303.298L594.566 303.972L595.24 302.54L596.251 302.456L596.419 303.804V303.972L596.335 304.562L596.84 304.73L596.924 304.814L595.829 305.657L595.408 305.909L595.829 306.078L595.998 306.415L596.419 307.173V309.025L596.166 310.12L595.914 311.215L595.577 312.226L595.24 313.321L594.482 315.005L593.892 315.848L593.219 316.69L592.377 317.279L590.692 318.122L590.187 318.459L590.103 318.964L590.355 319.217L592.292 319.638L593.808 320.48L598.272 324.944L599.956 326.207L601.556 327.555L603.578 328.565Z" fill="white" stroke="#5F6AC0" stroke-opacity="0.33" stroke-width="0.863541" stroke-linejoin="round"/>
<path d="M559.11 416.242L558.773 416.579L558.521 416.832L558.437 417.253L558.352 418.18L558.689 420.706L560.037 421.97L566.016 424.075L569.975 424.244L571.912 425.002L572.08 425.254L572.501 426.012L572.754 426.265L573.091 426.349L573.933 426.181L574.27 426.265L574.691 427.023L574.775 427.865L574.185 432.75L574.438 434.351H574.522L573.764 434.94L572.922 435.277L569.385 435.445L568.711 435.614L568.206 435.867L567.869 436.035L567.616 436.288L567.195 436.625L566.943 437.13L566.774 437.551V438.056L567.195 439.572L567.448 441.846L568.627 443.952L568.711 444.205L568.795 444.542V444.963L568.711 445.3L568.627 445.721V446.058L568.543 446.395V446.731L568.627 447.068V447.405L568.795 447.658L568.88 448.332L568.964 448.669V449.005L568.795 449.511L568.543 450.016L568.037 450.774L567.785 451.28L567.701 451.785V452.88L567.616 453.132L567.448 453.385L567.111 453.301L566.858 453.132L565.932 452.206L565.764 452.038L565.511 451.869L565.174 451.701L564.416 451.532L563.658 451.448H562.984L562.311 451.616L561.637 451.953L561.216 452.29L560.879 452.627L560.626 452.88L557.679 458.607L557.173 459.281L556.331 460.207L555.826 460.544L555.068 460.965L553.131 461.471L552.794 462.313L552.204 463.239L551.362 464.166L549.51 465.682L549.257 466.103L548.92 466.945L548.667 467.956L548.162 471.156L547.741 472.672L547.657 473.009L546.983 473.683L541.593 478.063L538.814 479.579L538.224 479.747L536.456 480.084L536.035 480.337L535.614 480.926L534.856 482.19L534.35 483.453L534.098 484.127L533.845 484.885L533.508 485.643L533.171 486.317L527.192 491.875L526.771 492.465L526.518 493.476L526.265 495.918L526.013 496.76L525.255 498.276L523.739 499.203L523.149 497.518L521.549 496.339L519.781 495.413L517.844 494.907H514.138L512.622 494.486L507.653 492.128L505.379 489.265L503.948 487.833L502.347 487.159L499.147 486.232L496.115 483.79L494.768 483.032L491.483 482.527L486.599 480.168L484.914 480L483.567 480.589L481.209 482.442L479.945 483.2L476.577 483.453L473.292 482.358L465.207 476.884L460.323 473.599L453.754 469.135L449.122 464.84L442.553 458.944L439.268 456.838L432.11 454.312L425.793 450.69L415.519 441.931L412.74 438.309L413.497 437.551L417.961 432.582L420.235 431.066L426.972 428.286L429.583 427.36L437.752 424.412L438.005 424.244L438.258 423.991L438.342 423.486V423.065L438.173 422.812L438.005 422.559L436.489 420.622L436.152 420.117L435.899 419.527L435.815 419.275L435.731 418.938V418.601L435.815 418.264L436.152 417.758L436.573 417.085L440.279 413.042L440.616 412.789L440.953 412.621L441.542 412.537L442.047 412.621L442.637 412.368L443.226 411.863L448.111 406.978L450.385 405.209L455.27 404.114L456.196 403.525L477.082 404.03L477.672 403.862L478.682 403.272L479.777 402.514L479.945 402.261L480.114 402.009L480.198 401.672V401.335V400.408V400.071L480.282 399.735L480.703 399.482L481.293 399.398H482.809L483.23 399.482L483.567 399.566L483.819 399.735L484.072 399.987L484.241 400.24L484.325 400.493L484.83 402.598L484.914 402.935L485.251 403.44L485.757 404.114L488.283 406.641L489.799 407.652L490.978 408.578L491.146 408.915L491.315 409.336V410.263L491.231 411.273V411.694L491.315 412.2L491.399 412.874L491.652 413.295L491.904 413.547L495.189 414.39H496.958L497.715 414.137L498.726 413.463L503.442 411.189L503.695 411.105L510.769 409.505L511.696 409.42L512.875 410.263L515.822 412.537L516.58 412.958L517.254 413.126H517.591L521.296 411.61L521.718 411.189L523.318 408.747L523.655 408.41L524.076 408.073L524.834 407.652L525.676 407.399H526.35L530.139 407.989L534.35 408.831L535.361 408.999L536.372 410.852L536.54 411.779L536.203 413.463L536.119 414.474L536.203 414.979L536.372 415.316L536.708 415.569L537.045 415.737L537.382 415.906L538.056 415.99L543.446 415.821L544.035 415.653L544.288 415.569L544.541 415.316L544.709 415.063L544.878 414.726V414.39V414.137L544.793 413.463V413.126L547.404 413.295L559.11 416.242Z" fill="white" stroke="#5F6AC0" stroke-opacity="0.33" stroke-width="0.863541" stroke-linejoin="round"/>
<path d="M621.853 380.784L621.937 380.195L622.021 379.184L622.274 378.594L622.358 378.173L622.442 377.836L622.358 377.584L622.105 377.331L621.179 376.826L621.011 376.573L620.842 376.32L620.926 376.068L621.348 375.815L621.6 375.899L621.853 375.983L622.105 376.236L622.19 376.489H622.442L622.611 376.152L622.695 374.046V373.457L622.611 373.12L622.442 372.53L622.105 371.351L621.769 370.677L621.6 370.088L621.516 369.751V369.33V368.824L621.769 368.151L622.527 366.803L624.632 364.024L636.086 361.75L638.36 363.35L638.696 364.276L638.781 365.287V366.213L638.36 366.971L637.265 367.14L633.643 366.635L632.717 366.887L630.948 368.403L630.275 368.656L629.18 366.635L628.422 366.045L627.832 367.224L627.917 367.814L628.759 368.487L628.927 368.993L628.843 370.256L628.927 370.846L629.18 371.52L633.475 377.499L633.643 378.931L631.538 379.773L630.443 378.005L629.685 375.31L628.674 373.12L627.664 372.362L627.327 372.867L627.495 374.046L628.001 375.478L629.096 377.752L629.011 378.679L628.422 379.942L628.253 380.026L627.748 380.11L627.58 380.195L627.243 381.205V381.626L627.159 382.216L626.822 382.637L626.148 382.3L624.885 380.195L624.042 379.521L622.358 381.037L621.853 380.784ZM643.076 357.286L641.476 356.443L640.381 356.275L632.464 357.538L631.454 357.959L629.769 358.886L628.59 359.054L625.811 358.549L624.716 358.633L621.937 359.391V359.307L621.348 358.212L621.516 357.623L621.684 357.201L622.358 354.759L622.611 354.338L622.779 354.001L623.032 353.664L623.285 353.159L623.2 353.075H623.032L608.378 356.696L597.261 356.443L595.914 356.191L595.661 356.022L595.408 355.517L595.24 355.012L594.987 353.243L595.156 352.232L595.324 351.306L601.135 337.998L600.967 337.24H600.546L599.619 337.493L598.861 337.662L598.609 337.409L598.44 337.072L598.777 334.629L598.861 333.113L598.946 332.777L599.198 332.608L599.451 332.44L600.125 332.355L602.82 331.85L603.409 331.176L603.577 328.565L607.367 330.587L613.094 333.619L613.263 333.282L613.852 332.692H614.61L614.947 332.271L615.284 331.682L615.705 331.429L616.294 331.513L618.231 332.44L619.495 332.692L620.59 332.019L620.842 331.176L619.916 330.671L621.095 328.734L621.179 328.313L620.758 327.555L620.505 326.797L620.253 325.954L620.337 325.112L619.074 324.86L618.653 324.607L618.231 324.101L617.895 322.838L617.642 320.143L617.389 317.448L617.473 316.942L617.558 316.437L617.895 316.1L618.147 315.848L618.484 315.174L618.568 314.5L618.4 313.068L618.484 312.394L618.653 312.479L619.158 312.647L619.326 312.816L619.916 311.299L621.263 310.373L622.274 309.868L624.8 312.142L625.137 312.731L625.306 313.405L625.39 314.921L625.558 315.426L625.811 315.595L626.232 315.258H626.401L626.569 315.679L626.737 316.774L627.495 316.437L628.59 316.69L629.685 317.111L630.443 317.701L630.864 318.29L631.369 319.385L631.791 319.806L632.127 320.059L633.391 320.733L633.98 321.154L634.233 321.491L634.738 322.585V322.838L634.654 323.596L634.738 323.933L635.075 324.186L635.412 324.27L635.749 324.186L636.086 324.27L636.759 324.944L637.265 325.702L637.433 326.544L636.759 327.386L637.517 327.892L638.191 327.639L638.865 327.218L639.623 326.965L640.128 327.218L639.875 327.892L639.118 329.155L641.223 328.818L642.065 328.902L642.655 330.503L643.581 331.261L643.834 331.85L643.581 332.355L642.823 333.113V333.619L643.16 333.871L643.665 333.535L644.171 332.945L644.676 332.692L645.097 332.945L645.434 333.366V333.787L644.171 334.377L643.75 335.303L643.16 337.577L643.75 337.493L644.255 337.577L644.76 337.746L645.181 338.083L644.255 338.588L644.339 339.093L644.844 339.599L645.181 340.02L645.265 340.525L645.434 341.115L645.518 341.704L645.35 342.21L644.592 343.136L644.339 343.641L644.086 344.231L643.918 344.736L642.907 350.632L643.581 352.401L643.918 352.906L644.002 353.833L643.328 356.359L643.076 357.286Z" fill="white" stroke="#5F6AC0" stroke-opacity="0.33" stroke-width="0.863541" stroke-linejoin="round"/>
<path d="M711.461 280.389L710.871 281.99L710.45 282.748L708.008 285.948L707.924 286.369L707.839 286.79L707.924 287.549L708.008 288.559L708.176 288.896L708.345 289.149L709.692 289.317L709.861 289.907L709.608 290.749L709.44 291.17L708.513 293.192L708.429 293.528V294.034L708.597 294.455L708.85 294.96L709.861 296.308L710.871 297.992L711.04 299.424L711.208 304.225L710.787 305.741L710.198 305.067L708.008 304.141L706.155 304.646L704.808 311.468L702.113 314.669L698.575 316.858L693.522 318.88L688.89 322.417L679.879 325.281L678.784 325.786L677.774 326.628L675.752 329.239L674.573 330.25L673.31 330.671L671.794 330.166L671.12 329.576L670.615 328.902L669.773 327.386L669.183 326.713L668.004 325.87L667.415 325.365L665.478 322.417L664.383 321.322L662.783 321.154L662.025 320.733L661.435 320.059L660.762 319.554L659.919 319.469L658.319 319.975L657.561 320.396L656.803 320.985L655.624 322.586L654.866 324.27L654.529 326.207L654.445 328.566L654.782 332.019L654.614 332.861L653.856 333.282L650.908 333.535L649.139 334.798V336.146L651.076 339.43H651.161L652.171 343.052L652.677 344.231L653.94 346.505L654.445 347.769L654.782 349.2L654.361 352.317L652.845 352.569L650.908 351.896L649.645 352.064L649.897 353.917L653.435 357.117V358.633L651.582 359.476L649.139 359.391L644.76 358.128L643.076 357.286L643.328 356.359L644.002 353.833L643.918 352.906L643.581 352.401L642.907 350.632L643.918 344.736L644.086 344.231L644.339 343.642L644.592 343.136L645.35 342.21L645.518 341.704L645.434 341.115L645.265 340.525L645.181 340.02L644.844 339.599L644.339 339.093L644.255 338.588L645.181 338.083L644.76 337.746L644.255 337.577L643.749 337.493L643.16 337.577L643.749 335.303L644.171 334.377L645.434 333.787V333.366L645.097 332.945L644.676 332.692L644.171 332.945L643.665 333.535L643.16 333.872L642.823 333.619V333.114L643.581 332.356L643.834 331.85L643.581 331.261L642.655 330.503L642.065 328.902L641.223 328.818L639.117 329.155L639.875 327.892L640.128 327.218L639.623 326.965L638.865 327.218L638.191 327.639L637.517 327.892L636.759 327.386L637.433 326.544L637.265 325.702L636.759 324.944L636.086 324.27L635.749 324.186L635.412 324.27L635.075 324.186L634.738 323.933L634.654 323.596L634.738 322.838V322.586L634.233 321.491L633.98 321.154L633.391 320.733L632.127 320.059L631.79 319.806L631.369 319.385L630.864 318.29L630.443 317.701L629.685 317.111L628.59 316.69L627.495 316.437L626.737 316.774L626.569 315.679L626.401 315.258H626.232L625.811 315.595L625.558 315.427L625.39 314.921L625.306 313.405L625.137 312.731L624.8 312.142L622.274 309.868L624.211 309.026L625.221 307.846L626.148 305.236L627.074 302.625L627.664 301.867L628.422 301.109L630.106 300.351L631.706 299.593L632.97 297.487L633.306 297.066L633.559 296.645L634.57 296.308L636.675 296.055L637.602 295.634L638.444 295.213L639.286 294.623L640.128 294.034L640.97 293.192L641.391 292.433L641.728 289.317L642.149 286.285L642.065 285.19L641.981 284.432L641.812 284.18L641.56 284.011L641.139 283.422L640.97 282.916L641.223 282.411L641.644 282.074L643.918 280.979L644.844 280.726L645.686 281.063L646.192 279.716L647.455 278.537L648.718 277.694L650.066 276.852L650.908 276.599L652.34 277.189L653.013 277.105L654.95 275.841L655.624 275.673L657.14 275.926L658.572 276.178L659.161 275.841L659.077 275.168L658.235 273.652L658.067 272.978L658.403 272.136L658.74 271.293L660.004 270.283L662.783 269.44L665.309 267.419L667.752 265.482L668.51 264.64L669.183 263.882L670.025 263.208L673.31 262.281L676.594 261.355L679.374 261.271L682.069 261.102L684.09 260.26L685.606 258.491L686.28 257.481L687.038 256.891L688.385 256.386L689.732 255.88L693.859 252.848L694.449 252.09L695.038 251.416L696.723 248.469L698.407 245.605L699.081 244.847L699.923 244.426L700.849 244.089L701.607 243.668L702.281 242.994L702.449 242.405L702.618 241.815L703.797 239.12L704.892 238.193L705.902 237.267L710.703 235.245L711.377 235.33L712.303 236.004L713.061 236.846L713.482 237.772L713.819 238.951L714.577 239.709L715.587 240.13L716.767 240.299L717.524 239.962L718.282 239.625L719.293 237.688L719.798 236.425L720.219 235.245L721.314 233.056L722.072 232.298L722.746 231.455L723.251 230.529L723.672 229.35L724.346 228.339H725.525L727.799 228.929L729.652 228.676L730.578 228.255L731.505 227.75L734.789 225.054L735.884 224.044L737.989 222.359L739.59 222.191L741.105 222.865L748.011 227.75L749.696 228.339L749.022 230.866L747.169 232.129L743.127 233.308L736.221 238.446L734.2 238.951L731.757 238.867L729.82 239.372L728.894 241.815L728.81 245.605L728.22 246.7L726.536 247.374L721.651 247.879L720.135 248.806L715.335 252.932L713.229 255.459L711.798 258.576L710.619 260.344L709.103 261.271L707.503 262.113L704.639 264.387L696.723 269.103L695.628 270.788L696.554 272.894L698.323 273.82L705.229 274.578L705.313 274.662L707.081 275.757L707.924 276.515L708.682 277.442L709.861 279.716L710.619 280.389H711.461ZM657.224 287.38L656.719 286.79L657.14 286.201L656.635 285.443L655.961 285.022L656.719 283.758L656.466 282.664L654.698 281.484L653.182 281.316L652.003 280.474L650.403 280.558L647.792 283.169L647.371 285.19L646.108 288.391L646.276 288.475L647.118 288.054L647.202 288.812L647.539 289.57L648.718 290.917L649.561 290.159V290.412L649.308 291.002L649.897 292.097L651.329 292.518L652.929 290.581L655.372 288.307L657.224 287.38Z" fill="white" stroke="#5F6AC0" stroke-opacity="0.33" stroke-width="0.863541" stroke-linejoin="round"/>
<path d="M795.847 306.33L795.595 307.425L794.416 312.816L793.994 313.153L793.826 313.237L793.489 313.405L792.815 313.574L789.868 313.658L789.026 313.826L788.183 313.742L781.783 312.142L780.435 312.31L779.256 312.226H778.161L777.572 312.395L775.551 313.321L773.95 312.563L768.897 313.911L768.224 314.837L767.634 315.258L766.034 316.774L765.781 317.111L765.866 317.616L766.455 318.374L767.213 319.975L765.781 321.406L761.739 322.754L757.444 325.112L756.433 325.87L754.917 328.313L751.717 331.345L750.622 331.513L749.948 331.345L747.675 330.081L746.664 329.239L746.159 329.071L745.232 328.902L744.727 328.734L744.39 328.565L742.958 327.049L742.621 326.881L740.684 326.713L740.432 326.376L743.548 322.164L737.989 322.417L736.473 322.249L736.137 321.912L735.716 321.659L734.958 321.322H733.947L731.673 323.428L730.999 323.512L729.652 323.344L728.978 323.428L728.22 323.849L727.631 324.439L727.209 325.028L726.704 325.702L725.441 326.46L725.525 325.955L725.946 323.765L724.093 322.67L719.63 321.575L718.872 320.648L718.703 319.469L719.209 318.711L720.135 318.543L721.82 320.059L722.83 320.396L722.914 319.217L722.493 318.627L713.566 308.52L712.05 307.173L711.882 307.004L711.798 306.752L710.787 305.741L711.208 304.225L711.04 299.424L710.871 297.992L709.861 296.308L708.85 294.96L708.597 294.455L708.429 294.034V293.528L708.513 293.191L709.44 291.17L709.608 290.749L709.861 289.907L709.692 289.317L708.345 289.149L708.176 288.896L708.008 288.559L707.924 287.548L707.839 286.79L707.924 286.369L708.008 285.948L710.45 282.748L710.871 281.99L711.461 280.389H711.798L713.398 279.8L719.461 276.347L721.062 276.094L721.988 276.684L722.83 277.779L725.609 282.495L726.03 283.843L726.115 285.19L725.441 289.233L725.525 290.328L726.115 291.254L726.873 291.17L727.883 290.665L728.978 290.581L729.904 291.002L730.747 291.591L731.589 292.433L732.263 293.36L733.105 294.202L734.115 294.286L736.221 294.034L738.579 294.455L739.674 294.96L740.684 295.718L741.527 296.224L743.379 296.476L744.137 297.15L745.401 299.171L746.159 299.761L746.664 298.498L746.58 297.15L746.327 295.971L746.411 295.044L747.422 294.455L748.601 294.623L749.19 295.381L749.78 297.824L750.201 298.75L750.875 299.424L751.549 299.34L752.054 298.076L753.233 296.56L756.602 299.424L757.696 298.498L757.949 296.224L757.528 285.022L757.865 284.18L758.539 284.348L760.897 286.538L763.002 287.464L764.687 287.127L766.034 285.696L767.634 282.158L768.308 279.968L768.561 278.705L768.392 277.526L766.96 275.673L766.455 274.578L767.466 272.136L768.055 271.378L769.15 270.956L770.245 271.125L770.834 271.967L771.087 273.23V274.578L770.161 278.284L770.245 279.042L770.666 279.21L771.003 278.705L771.171 278.031L771.424 277.61L771.929 277.863L772.182 278.873L772.687 279.126L773.024 278.789L773.108 277.357L773.445 277.105L773.782 277.273L774.203 277.61L778.835 284.516L779.593 286.454L779.846 288.643L779.762 291.339L780.014 294.118L781.277 294.708L785.152 294.034L786.331 295.044L787.089 296.139L787.931 296.56L789.362 295.718L790.457 294.708L791.636 294.034L792.815 293.781L794.079 294.539L794.584 295.802L794.837 297.571L794.921 299.424L795.342 302.793V304.056L795.005 305.235L794.331 306.836L795.847 306.33ZM719.883 309.868L719.293 308.268L718.619 307.173L717.44 306.162L716.093 305.572L715.335 305.741L715.84 307.088L716.766 308.015L718.198 309.952L719.04 310.71L719.967 310.963L719.883 309.868Z" fill="white" stroke="#5F6AC0" stroke-opacity="0.33" stroke-width="0.863541" stroke-linejoin="round"/>
<path d="M774.372 377.331L773.614 377.5L772.435 377.078L771.424 376.657L770.413 375.899L769.908 374.973L770.75 373.962H771.929L772.771 373.541L774.54 372.193L775.803 371.772L775.972 372.446L774.877 376.573L774.372 377.331ZM745.653 368.403L745.99 368.488L746.243 368.319L746.748 367.898L747.085 367.73L748.264 367.393L748.938 367.561L749.275 368.151L748.938 369.161L746.664 370.762L745.906 371.52L745.99 373.204L748.18 375.478L748.096 377.5L747.506 378.258L746.832 378.51H745.232L742.874 379.184L742.2 379.1L741.611 378.51L741.527 377.836L741.274 377.331L740.348 377.247L739.758 377.668L739.084 378.342L738.411 378.763L737.821 378.426L737.737 376.826L739.842 373.541L739.59 371.604L739 371.183L737.737 370.93L737.063 370.593L736.558 369.751L735.294 367.14L735.042 366.045L735.126 365.034L735.379 363.855L736.221 361.918L737.737 361.076L738.832 361.75L739.674 363.266L740.348 365.034L741.19 366.129L742.537 366.972L745.232 368.151L745.401 368.319L745.653 368.403ZM765.781 321.406L767.297 323.596L768.308 325.618L768.813 326.376L769.066 326.46L769.15 325.365L769.403 325.112H769.908L771.256 325.87L771.929 326.039L772.35 326.123L772.603 325.955L773.193 325.87L773.95 325.955L776.477 326.797L777.067 327.134L777.488 327.555L777.909 328.313L779.846 331.008L780.267 331.261L780.688 331.429L781.867 331.598L782.878 331.429L784.225 331.345L786.583 332.103L789.531 332.692L790.373 332.608L790.878 331.934L791.384 331.513L792.057 332.019L792.984 333.45L793.321 333.703L793.91 333.787L796.437 334.545L797.11 335.135L797.195 335.472V335.893V336.651L797.026 337.83L796.858 339.009L796.942 339.852L797.363 341.368L797.447 341.704L795.258 341.789L794.415 341.957L791.131 343.81L790.71 344.484L790.373 345.663L789.699 347.432L788.436 348.779L784.141 350.885L783.888 351.811L784.225 352.822L785.152 353.412L786.583 354.085L787.257 354.591L787.51 355.096L787.173 355.77L786.499 355.938L785.741 355.854L785.152 355.601L784.815 355.517H784.478L783.888 355.686L782.035 355.517L780.098 355.096L778.246 355.18L776.73 356.696L775.888 358.718L775.298 359.644L774.54 360.402L771.929 361.918L771.256 362.087L770.245 361.665L769.992 360.655V358.044L769.655 356.78L768.982 355.349L768.055 354.591L767.213 355.349L766.876 356.612L766.792 357.707L766.371 358.465L765.192 358.549L762.834 358.128L761.739 357.623L760.728 357.033L759.802 356.107L759.381 355.18L758.96 354.422L756.77 353.748L755.254 352.317L754.243 352.232L752.728 352.401L751.885 352.317L751.212 351.98L750.706 351.39L750.285 350.716L749.78 350.379L749.106 350.548L748.264 351.727L747.843 353.159L747.169 354.254L745.653 354.422L739.926 353.58L737.063 354.085L735.294 355.854L734.284 355.77L729.989 356.191L722.999 358.297L720.893 358.465L718.872 358.381L716.851 356.949L716.008 354.254L715.335 351.222L714.071 349.116L712.977 348.695L712.05 348.779L711.124 349.032L710.029 349.116L709.018 348.863L706.576 347.769L707.25 345.495L707.081 345.242L706.66 344.736L706.576 344.652L705.987 343.726L705.902 343.557L705.818 343.22L705.734 341.873L706.492 340.61L707.924 339.683L711.292 338.925L711.798 338.672L712.303 338.083L713.482 336.061L714.156 335.388L714.829 335.051L715.503 334.882L716.261 334.545L716.851 333.956L718.619 331.85L721.567 329.408L722.325 328.734L722.999 328.144L723.42 327.976L724.262 327.808L724.43 327.555L724.515 327.218L724.683 326.965L725.441 326.46L726.704 325.702L727.209 325.028L727.631 324.439L728.22 323.849L728.978 323.428L729.652 323.344L730.999 323.512L731.673 323.428L733.947 321.322H734.958L735.716 321.659L736.137 321.912L736.473 322.249L737.989 322.417L743.548 322.165L740.432 326.376L740.684 326.713L742.621 326.881L742.958 327.049L744.39 328.566L744.727 328.734L745.232 328.902L746.159 329.071L746.664 329.239L747.674 330.082L749.948 331.345L750.622 331.513L751.717 331.345L754.917 328.313L756.433 325.87L757.444 325.112L761.739 322.754L765.781 321.406Z" fill="white" stroke="#5F6AC0" stroke-opacity="0.33" stroke-width="0.863541" stroke-linejoin="round"/>
<path d="M298.202 142.683L303.508 151.695L305.95 153.969L319.172 157.59L319.93 158.011V158.685L319.593 159.527L306.287 184.71L293.739 208.883L291.044 215.199L289.949 228.928V229.686L290.117 230.36L295.676 240.635L296.686 242.74L296.434 243.077L295.844 243.667L285.317 249.647L284.306 250.573V251.416L284.727 252.342L305.697 281.231L319.593 300.602V301.529L308.561 306.835L305.95 307.677L305.276 307.424L304.603 307.003L304.35 306.835L298.539 297.486L290.201 288.221L287.338 286.032L285.064 284.684L282.706 283.673L273.358 281.399H270.747L269.736 281.652L268.894 282.073L268.136 282.663L267.294 283.589L265.357 287.379L264.515 288.053L263.252 288.137L262.157 287.716L261.82 287.463L261.062 287.126L260.472 285.189L259.883 284.263L257.272 281.399L256.346 280.81L253.482 280.304L252.387 279.883L250.872 278.451L249.103 276.514L248.598 276.093L247.924 275.84L246.661 275.588L235.123 265.06L233.523 263.291L232.259 261.017L231.417 258.49L230.912 257.395L230.07 256.89H227.796L226.701 256.637L225.859 256.048L225.185 255.121L223.838 252.679L223.248 250.994L221.985 248.973L221.564 247.878V244.93L221.395 243.583L220.722 242.993L218.279 242.74L215.837 242.151L215.332 241.814L214.321 241.056L213.479 241.14L213.226 241.309L212.3 242.151L209.773 243.92L208.763 244.341L207.415 244.425L206.657 244.593L206.32 244.846L206.152 245.099L206.236 245.436L206.404 245.688L206.91 246.867L206.994 247.541L206.489 249.057L205.899 249.647L204.72 247.962L203.288 246.699L198.151 244.762L195.625 244.846L194.951 244.509L194.361 243.583L194.446 242.74L195.035 242.067L195.877 241.814H195.961L198.825 240.719L198.656 238.108L197.73 234.823L198.151 231.791L198.993 231.202L200.004 230.781L200.762 230.191L200.93 229.096L200.341 228.254L199.246 227.58L197.056 226.738L195.288 225.138L193.94 223.032L192.424 221.348L190.235 221.095L188.045 221.348L183.75 220.926L173.391 222.527L170.864 222.443L169.685 222.021L167.748 219.916L166.569 219.495L164.043 219.242L162.695 218.4L162.022 217.221L161.432 212.167L161.011 210.904L160.253 209.809L157.137 206.524L155.958 205.766L154.779 205.935L153.347 206.608L151.915 207.03L150.484 207.114L148.294 206.693L144.841 205.177L141.557 202.06L131.029 189.679L129.85 188.921L128.924 190.437L128.25 196.08L127.24 198.018L125.218 198.691L122.692 198.523L120.165 197.933L114.944 195.744H113.68L112.838 195.996L110.228 197.597L108.375 198.439L107.448 199.113L107.027 200.039L107.28 201.387L108.206 202.145L114.354 205.092L116.039 206.44L117.554 208.714L118.902 211.83L122.523 217.726L124.46 220.084L125.05 220.59L125.303 221.179L125.05 221.769L124.46 222.106L121.344 222.611L120.502 222.358L119.997 221.516V220.505L120.249 219.326L120.418 218.147L119.913 215.789L118.649 214.104L116.965 212.841L112.165 210.567L111.07 210.314L110.143 210.483L108.375 211.241L107.617 211.325L106.775 210.904L105.68 209.219L105.006 208.546L104.08 208.209L102.985 208.124L101.89 208.377L100.964 208.798L100.458 209.388L100.037 210.23L98.7739 211.662L97.4264 212.251L96.5842 212.925L96.9211 214.694L97.9317 216.968L98.0159 217.979L97.5948 219.579L95.5736 224.127L94.8998 224.885L93.047 225.559L92.6259 226.401L92.9628 227.412L93.6366 228.17L93.7208 228.759L92.7102 229.517L91.6995 229.77L88.415 229.602L87.4886 229.854L84.7095 231.202L83.6146 231.37L83.2777 228.591L82.8567 226.906L82.1829 225.559L81.2565 224.464L80.0775 223.537L77.4667 222.106L75.3613 221.853L74.8559 221.685L74.3506 221.263L73.6769 220.758L72.6663 219.158L72.0768 218.652L71.2346 218.484L69.9713 218.568L67.1921 219.495L65.0867 220.674L63.8234 221.853L63.3181 222.358L61.8022 225.559L55.6542 244.846L55.4858 245.857V246.194L51.1065 248.299L49.6748 250.236V252.763L50.7696 257.901L50.6012 260.427L50.2643 262.533L50.1801 264.554L51.1065 266.913L52.2013 268.681L52.7066 270.45L52.8751 272.303V274.577L53.1277 276.43L53.7172 278.199L54.7278 279.883L55.7385 281.062L56.4964 281.568L57.1702 281.905L59.6967 282.494L60.0336 282.831L59.9494 283.252L59.3598 283.926L58.3492 284.684L56.0753 285.779L55.0647 286.958L53.5488 289.653L52.6224 290.243L46.6429 288.979L42.0109 288.053L31.0626 287.379L19.1879 286.79L10.0923 286.284L2.17582 285.863L2.0916 255.795V240.719V225.559V210.399V195.154V179.825V164.412V148.999V133.502L2.00739 118.005V102.424V86.6738V71.0081V55.174V39.2557L2.17582 39.1715L6.72359 37.6555L11.2714 36.2237L15.9034 34.7077L25.0831 31.7598L29.6309 30.2438L34.2629 28.812L38.8106 27.296L47.9904 24.3481L52.6224 22.9163L57.1702 21.4003L61.8022 19.9685L66.3499 18.4525L75.5297 15.5046L81.6776 13.5675L87.7413 11.7146L93.8892 9.86163L100.037 7.92448L102.816 7.08225L105.68 6.24001L111.322 4.55553L114.27 3.71329L120.165 2.02882L123.113 1.18658L127.071 0.00744629L128.25 0.0916701L129.598 0.681237L130.019 1.01813L129.935 1.10236L129.177 3.12373L129.008 4.38708L128.755 5.1451L128.082 6.5769L127.913 7.41914V9.35629L127.745 9.86163L127.576 10.0301L127.155 10.2828L126.987 10.4512L126.818 10.7039L126.397 11.9672L124.629 14.4097L124.376 14.8308L124.292 14.9993L123.787 15.5046L121.513 18.7051L121.26 19.2105L121.176 19.7158L121.007 21.4845L120.418 23.3374L119.744 24.7692L119.491 25.8642L119.239 28.054L118.986 29.1489L118.565 30.2438L118.06 31.2545L117.723 31.6756L117.049 32.3494L116.712 32.7705L116.544 33.2759L116.46 33.7812L116.291 34.7919L116.123 35.8026L112.838 43.8038L112.417 46.9201L112.249 48.9415L112.333 50.9629L113.344 53.9107L114.354 56.5216L115.702 58.7114L116.544 61.7435L116.46 63.3438L116.123 64.4387L115.702 65.4493L114.691 66.1231L113.512 67.8076L113.259 68.9867L112.922 69.6605L112.67 70.1659L112.586 70.7554L112.922 73.2822L113.765 76.0616L115.028 77.2407L115.954 78.2514L117.891 78.5883L120.249 78.4198L122.692 77.0722L125.218 74.9666L127.408 72.9453L128.84 71.0923L129.598 69.9132L130.187 68.8183L131.198 67.6392L132.377 65.9547L133.472 64.1018L134.314 62.8384L135.156 61.6593L135.409 60.817L134.735 59.5537L133.724 59.1326L132.545 58.6272L133.219 60.2275L132.377 60.4801L131.198 60.1432L130.692 59.301L131.198 56.6901L131.787 55.5109L132.124 54.6687L133.135 54.3318L133.809 53.9949L134.819 54.3318L135.072 55.6794L135.324 56.5216L135.998 57.1954L137.009 57.4481L138.609 57.027L139.451 56.0163L139.199 54.6687L138.104 53.658L137.514 52.6473L138.019 50.8786L138.104 48.6888L137.514 46.4148L137.093 44.3934V42.9616L138.104 42.7089L139.451 42.4562L140.125 40.9402L140.378 39.2557L140.799 37.9924L141.136 35.971L140.041 35.2972L138.946 36.1395L138.104 37.8239L136.251 38.9188L135.072 39.0873L133.809 40.098L132.377 39.0873L132.293 37.487L132.882 35.8026L133.724 33.8654L134.482 32.1809L135.998 30.4965L136.756 29.0647L138.104 27.7171L139.535 26.2853L140.63 25.7799L138.356 24.0955L137.093 22.4952L135.998 18.1998L135.577 15.4204L135.409 13.5675L135.577 11.4619L136.251 9.01939L137.009 6.99802L137.43 5.98734L142.23 9.27207L148.462 13.4833L152.758 16.3469L164.295 24.2639L171.791 29.2331L171.622 29.57L170.443 31.1703L169.77 32.5178L168.843 35.6341L168.085 37.6555L166.654 40.098L165.559 41.4456L165.053 43.8881L164.464 46.2463L163.706 48.015L162.864 49.531L161.179 51.8051L160.421 53.4896L159.832 55.174L159.495 56.8585L160.085 60.3117L161.348 63.2595L162.864 65.2809L166.906 69.9132L172.97 75.9773L176.17 79.0936L178.697 80.9465L181.223 82.9679L181.813 83.5575L181.981 84.4839L181.729 86.4211L180.718 87.9371L178.444 89.4531L177.686 91.4745L176.844 93.4959L175.749 95.5173L176.507 97.3702L178.949 97.7913L181.139 97.6228L183.076 97.0333L184.339 95.8541L186.108 95.6857L188.045 96.0226L189.898 95.3488L191.919 94.0012L194.698 92.1483L195.961 90.4638L196.214 89.6216L195.54 88.8636L194.614 88.7793L193.772 88.4425L193.266 87.9371L193.098 87.3475V86.5895L193.351 86.0842L193.688 85.2419L194.277 84.7366L194.698 84.2313H195.54L196.804 84.3155L198.151 84.5682L199.077 84.3155L199.835 83.5575L200.172 82.631L200.846 80.357L201.183 78.1671L200.93 75.9773L200.341 72.3557L199.499 69.5763L198.404 67.3023L198.067 65.1125L197.983 63.2595L198.825 62.0804L199.667 61.4066L200.593 60.3117L201.267 58.7957L201.688 56.8585V54.3318L201.772 51.0471V49.3626L202.699 50.0364L212.215 56.3532L221.143 62.4173L229.396 67.8076L236.47 72.6084L246.661 79.3463L249.693 81.3676L250.956 82.7995L251.798 84.6524L252.135 86.2526L252.472 89.79L252.977 91.3903L255.84 96.0226L261.399 102.171L264.094 105.035L266.789 107.982L270.242 111.941L273.021 115.141L278.664 121.711L281.443 124.911L284.222 128.112L287.001 131.312L292.475 137.629L296.181 141.84L298.118 142.683H298.202Z" fill="white" stroke="#5F6AC0" stroke-opacity="0.33" stroke-width="0.863541" stroke-linejoin="round"/>
<path d="M529.718 296.813V297.066L523.739 299.508L523.318 300.519L522.728 301.277L523.486 310.373L523.57 310.71L523.739 310.963L523.991 311.552L524.413 312.058L524.749 312.226L525.423 312.647L529.803 313.826L530.055 314.079L530.224 314.332L530.392 314.584V315.09V315.679L530.224 316.858V317.953L530.308 318.29L530.729 319.385L531.824 321.322L530.476 324.775L522.981 339.346L522.054 338.42L521.465 337.662L521.296 337.409L521.212 337.156L521.128 336.904V336.567L521.465 335.556V334.967L521.381 334.714L521.296 334.461L519.612 332.524L518.18 331.261L517.675 331.008L517.254 330.924L516.749 331.092L513.212 333.535L512.117 334.04L511.106 334.208L510.348 334.04L509.422 333.703L508.58 333.198L507.569 332.44L506.811 332.103L506.137 332.019L505.464 332.187L504.874 332.692L504.285 333.282L503.863 334.04L503.442 334.882L502.853 336.651L502.684 337.662V338.672L503.105 339.851L503.442 340.357L503.695 340.862L503.611 341.367L503.274 342.126L502.937 342.462L501.926 342.884L501.674 343.305V343.81L502.263 345.326L502.432 347.6L502.095 349.032L501.421 350.464L501.337 350.885L501.421 351.306L501.674 351.643L502.347 352.317V352.906L502.095 353.327L500.832 355.096L500.41 355.938L500.158 356.78L499.737 358.212L498.473 361.244L498.389 361.665L498.473 362.087L498.726 362.171H499.063L499.989 362.002H500.41L500.832 362.087L501.253 362.255L501.505 362.676L501.674 363.013V363.518L501.421 364.108L500.916 364.613L497.8 367.561L497.21 367.898L486.683 370.088L484.577 369.667L482.472 368.319L481.461 368.656L480.535 368.151L479.609 367.477L477.587 366.719L476.829 365.877L475.566 364.108L475.061 364.024L474.892 363.939L473.966 363.771L469.502 361.75H468.744L468.408 361.918L468.155 362.171L467.902 362.845L467.734 363.266L467.65 363.518L467.734 364.361L467.565 365.624V365.961L467.481 366.298L467.313 366.466L467.229 366.803L465.965 368.656L465.881 369.077L466.05 369.33H466.386L466.723 369.414L466.976 369.582L467.229 369.835L467.313 370.172L467.229 370.509L467.06 371.014L466.302 372.699L466.134 373.12L465.292 376.405L464.955 377.163L464.534 377.415L463.944 377.668H462.512L461.165 377.5L459.733 376.826L458.049 375.899L457.712 375.815L457.375 375.983L457.122 376.405L457.038 376.826L456.87 377.921L456.449 378.258L456.028 378.594L453.08 379.352L450.722 379.689L450.217 379.774L449.964 379.942L449.711 380.195L449.627 380.532L449.964 381.29L451.48 382.974L452.406 383.816L452.827 384.237L453.248 384.827L454.68 390.217L454.764 390.723L454.68 391.649L454.596 392.239L454.427 392.744L452.996 396.029V396.366L453.585 398.303L456.196 403.525L455.27 404.114L450.385 405.209L450.301 403.44L450.217 403.019L449.711 401.335L449.459 400.661L449.206 400.24L448.448 399.229L447.606 398.303L446.848 397.882L445.669 397.461L444.742 396.955L444.321 395.608L444.153 394.26V393.165L443.732 391.733L442.89 390.302L436.994 387.522L436.573 386.764L435.815 386.68L433.71 387.606H432.783L432.11 387.185L431.941 386.68L431.689 386.09L431.604 385.753L429.33 384.49L427.899 383.564L424.362 378.594L423.604 376.994L424.277 375.394L425.12 373.625L426.72 371.604L426.888 371.351L427.225 370.93L427.646 370.088L430.594 368.74L431.52 368.066L432.362 367.224L433.036 366.298L435.394 361.581L436.068 360.992L436.573 360.907L436.91 360.655L437.247 360.402L437.584 360.318L439.016 360.149L439.1 359.981L438.847 359.56L438.089 358.549L436.657 357.117L436.152 356.191L436.068 355.938V355.77L436.321 355.686L436.742 355.264L437.584 352.906L436.321 351.643L436.068 350.379V349.874L436.152 349.2L436.321 348.611L436.742 348.105L437.584 347.6L439.268 347.347H440.363L441.374 347.6L442.3 348.442L443.395 349.2L444.49 349.537L450.217 349.621L450.806 348.527L451.901 344.989L452.743 344.147L453.838 342.884L455.185 338.757L455.27 337.999L455.775 337.156L456.196 336.819L456.617 336.651L457.122 336.735L459.649 337.241L460.323 337.325L460.407 336.567L460.154 335.809L460.07 334.461V332.861L460.154 331.176L460.407 329.576L461.586 325.533L459.228 326.207L444.405 325.197L439.521 324.017L437.836 323.007L436.152 321.659L435.478 319.722L435.057 318.038L433.962 311.468L433.541 309.952L432.952 309.868L431.436 312.142L429.836 312.816L427.73 313.237L421.246 313.489L419.561 314.163L418.635 314.669L417.119 320.396L416.024 321.491L402.802 319.89L400.696 319.132L400.023 317.701L399.938 313.489L399.686 311.3L398.675 309.784L397.749 308.941L396.822 308.689L395.812 309.026L394.885 309.868L394.043 311.131L391.095 317.195L387.643 322.417L381.747 324.439L381.832 323.175L380.063 321.406L378.968 319.469L364.23 310.373L356.65 306.078L350.25 303.551L345.955 302.625L344.776 301.951L338.122 290.244L329.953 280.474L328.69 278.368L327.174 274.746L323.047 274.662L305.698 281.232L284.728 252.343L284.307 251.416V250.574L285.318 249.648L295.845 243.668L296.434 243.078L296.687 242.741L295.677 240.636L290.118 230.361L289.95 229.687V228.929L291.045 215.2L293.739 208.883L306.288 184.711L319.594 159.528L319.931 158.686V158.012L319.173 157.591L305.951 153.97L303.509 151.695L298.203 142.684L302.246 141.926L305.698 141.336L311.931 140.157L317.489 139.146L320.268 138.641L324.732 137.883L329.195 137.125L351.513 133.503L355.977 132.745L363.472 133.503L370.883 134.177L378.379 134.851L385.79 135.525L392.611 136.114L399.349 136.704L406.171 137.377L412.908 137.967L415.603 138.22L417.287 137.714L422.256 135.019L426.972 132.408L431.857 129.629L436.573 127.018L437.5 126.681L438.342 126.344L439.942 126.597L440.7 127.355L441.542 128.029L446.848 134.935L452.069 141.841L454.512 144.452L456.954 146.979L462.007 150.179L467.06 153.296L468.997 155.064L473.124 163.655L475.819 169.13L479.44 176.71L482.64 183.195L483.483 183.279L490.557 179.489L497.547 175.615L496.536 192.207L495.442 208.715L495.189 212.252L494.768 213.432L493.589 213.853L493.336 214.779L493.083 227.665L492.915 240.467L493.083 241.225L493.505 241.562H499.4H504.706L510.096 241.647H515.991L516.328 241.562L516.749 241.647H517.086L517.338 241.815L518.18 250.153L519.023 258.407L520.539 266.493L522.139 274.578L524.244 284.264L526.35 293.781L527.444 295.129L528.539 296.476L529.718 296.813Z" fill="white" stroke="#5F6AC0" stroke-opacity="0.33" stroke-width="0.863541" stroke-linejoin="round"/>
<path d="M450.385 405.209L448.111 406.978L443.226 411.863L442.637 412.368L442.047 412.621L441.542 412.537L440.953 412.621L440.616 412.789L440.279 413.042L436.573 417.085L436.152 417.758L435.815 418.264L435.731 418.601V418.938L435.815 419.275L435.899 419.527L436.152 420.117L436.489 420.622L438.005 422.559L438.173 422.812L438.342 423.065V423.486L438.258 423.991L438.005 424.244L437.752 424.412L429.583 427.36L426.972 428.286L420.235 431.066L417.961 432.582L413.497 437.551L412.74 438.309L411.224 436.372L410.045 435.698L408.613 435.867L404.823 437.72L403.56 438.056L402.128 437.72L400.612 436.962L392.78 431.319L385.958 426.434L380.484 422.559L377.536 419.443L372.315 412.115L369.199 409.083L362.377 404.283L346.207 392.744L338.291 387.017L331.638 382.216L325.911 378.173L323.047 375.31L322.542 374.973L319.005 370.509L318.5 368.824L317.657 365.203L317.489 363.771L317.657 362.423L318.078 361.244L318.331 360.065L318.163 358.718L316.647 355.433L316.478 354.085V352.401L316.226 351.137L315.889 349.958L314.626 347.432L314.289 346.252L314.12 343.557L313.699 342.968L309.657 340.609L307.299 339.936L306.204 339.093L306.035 338.672L316.226 325.955L318.752 320.48L318.163 318.29L316.563 315.848L308.562 306.836L319.594 301.53V300.603L305.698 281.232L323.047 274.662L327.174 274.746L328.69 278.368L329.953 280.474L338.122 290.244L344.776 301.951L345.955 302.625L350.25 303.551L356.65 306.078L364.23 310.373L378.968 319.469L380.063 321.406L381.832 323.175L381.747 324.439L387.643 322.417L391.095 317.195L394.043 311.131L394.885 309.868L395.812 309.026L396.822 308.689L397.749 308.941L398.675 309.784L399.686 311.3L399.938 313.489L400.023 317.701L400.696 319.132L402.802 319.89L416.024 321.491L417.119 320.396L418.635 314.669L419.561 314.163L421.246 313.489L427.73 313.237L429.836 312.816L431.436 312.142L432.952 309.868L433.541 309.952L433.962 311.468L435.057 318.038L435.478 319.722L436.152 321.659L437.836 323.007L439.521 324.017L444.405 325.197L459.228 326.207L461.586 325.533L460.407 329.576L460.154 331.176L460.07 332.861V334.461L460.154 335.809L460.407 336.567L460.323 337.325L459.649 337.241L457.122 336.735L456.617 336.651L456.196 336.819L455.775 337.156L455.27 337.999L455.185 338.757L453.838 342.884L452.743 344.147L451.901 344.989L450.806 348.527L450.217 349.621L444.49 349.537L443.395 349.2L442.3 348.442L441.374 347.6L440.363 347.347H439.268L437.584 347.6L436.742 348.105L436.321 348.611L436.152 349.2L436.068 349.874V350.379L436.321 351.643L437.584 352.906L436.742 355.264L436.321 355.686L436.068 355.77V355.938L436.152 356.191L436.657 357.117L438.089 358.549L438.847 359.56L439.1 359.981L439.016 360.149L437.584 360.318L437.247 360.402L436.91 360.655L436.573 360.907L436.068 360.992L435.394 361.581L433.036 366.298L432.362 367.224L431.52 368.066L430.594 368.74L427.646 370.088L427.225 370.93L426.888 371.351L426.72 371.604L425.12 373.625L424.277 375.394L423.604 376.994L424.362 378.594L427.899 383.564L429.33 384.49L431.604 385.753L431.689 386.09L431.941 386.68L432.11 387.185L432.783 387.606H433.71L435.815 386.68L436.573 386.764L436.994 387.522L442.89 390.302L443.732 391.733L444.153 393.165V394.26L444.321 395.608L444.742 396.955L445.669 397.461L446.848 397.882L447.606 398.303L448.448 399.229L449.206 400.24L449.459 400.661L449.711 401.335L450.217 403.019L450.301 403.44L450.385 405.209Z" fill="white" stroke="#5F6AC0" stroke-opacity="0.33" stroke-width="0.863541" stroke-linejoin="round"/>
<path d="M308.562 306.836L316.563 315.848L318.163 318.29L318.752 320.48L316.226 325.954L306.035 338.672L305.951 338.588L305.53 337.072L305.277 336.482L303.425 334.04L302.751 332.692L301.74 328.734L301.151 327.807L299.551 326.039L299.045 325.196L298.624 323.849L298.119 320.901L296.519 315.427L296.013 314.163L296.35 313.658L296.098 312.731L296.013 308.183L295.845 306.836L295.424 305.741L291.802 299.677L290.876 298.666L279.928 290.58L275.717 288.728L270.916 287.464L269.148 287.212L268.053 287.801L267.379 289.149L266.874 291.423L265.695 292.097L264.768 294.202L263.337 295.718L261.652 296.56L259.8 296.645L257.863 295.802L252.81 292.181H251.883L249.02 292.686L248.767 292.097L248.599 291.507L248.43 291.338L247.504 292.939L247.167 293.276L246.83 293.613L244.472 291.17L241.103 290.328L231.25 290.917L225.27 292.939H222.323L220.638 292.518L219.291 291.507L216.596 288.812L213.648 286.622L208.932 284.179L203.542 281.4L202.195 280.053L201.858 278.536L202.447 273.23L202.868 272.135L203.458 271.209L204.3 270.451L206.321 269.44L206.995 268.682L206.574 267.419L203.289 262.787L201.858 259.923L201.352 257.565L202.616 255.796L203.963 254.87L205.479 254.701L207.332 255.291L209.016 256.386L210.027 256.807L210.785 256.722L211.29 255.88L211.206 254.954L210.785 254.027L210.195 253.269L209.521 252.68L207.163 251.248L206.405 250.49L205.9 249.648L206.49 249.058L206.995 247.542L206.911 246.868L206.405 245.689L206.237 245.437L206.153 245.1L206.321 244.847L206.658 244.594L207.416 244.426L208.764 244.342L209.774 243.92L212.301 242.152L213.227 241.31L213.48 241.141L214.322 241.057L215.333 241.815L215.838 242.152L218.28 242.741L220.723 242.994L221.396 243.584L221.565 244.931V247.879L221.986 248.974L223.249 250.995L223.839 252.68L225.186 255.122L225.86 256.049L226.702 256.638L227.797 256.891H230.071L230.913 257.396L231.418 258.491L232.26 261.018L233.524 263.292L235.124 265.061L246.662 275.589L247.925 275.841L248.599 276.094L249.104 276.515L250.873 278.452L252.388 279.884L253.483 280.305L256.347 280.811L257.273 281.4L259.884 284.264L260.473 285.19L261.063 287.127L261.821 287.464L262.158 287.717L263.253 288.138L264.516 288.054L265.358 287.38L267.295 283.59L268.137 282.663L268.895 282.074L269.737 281.653L270.748 281.4H273.359L282.707 283.674L285.065 284.685L287.339 286.032L290.202 288.222L298.54 297.487L304.351 306.836L304.604 307.004L305.277 307.425L305.951 307.678L308.562 306.836Z" fill="white" stroke="#5F6AC0" stroke-opacity="0.33" stroke-width="0.863541" stroke-linejoin="round"/>
<path d="M522.981 339.346L523.402 339.683L529.55 339.936L531.571 340.525L532.329 340.694L533.171 340.862L534.266 340.778L535.529 340.525L535.866 340.441L536.119 340.694L536.372 341.031L536.708 341.873L536.961 342.462L537.045 343.136L536.961 343.978L536.708 344.905L536.287 345.916L536.203 346.252L536.119 346.674V347.095L536.203 350.127L536.287 351.222L536.961 354.591L537.129 354.843L537.298 355.18L537.635 355.517L538.645 355.938L538.898 356.191L539.066 356.444V356.949L538.898 357.286V357.791L539.066 358.296L540.414 359.897L540.33 361.413L540.161 362.002L539.993 362.171L539.74 362.423L538.814 362.676L538.561 362.845L538.477 363.181L538.393 363.518L538.645 366.382L538.814 366.719L538.982 366.972L539.572 367.14H539.993L540.414 367.056L540.667 366.972L541.593 366.55L541.846 366.466H542.183H542.519L542.856 366.719L543.109 367.14L543.193 367.982L543.025 368.403V368.993L543.109 369.33L544.793 371.183L545.467 370.93H545.72L545.888 370.846L546.478 371.772L550.352 372.867L550.941 372.951L551.699 372.867L552.036 372.783H552.373L553.215 373.288L553.552 373.457L553.973 373.541L554.478 373.372L555.573 373.457L564.079 375.057L564.921 376.405L566.185 382.384L566.016 382.89L565.258 383.058H564.921L563.574 383.395L562.563 383.732L560.963 384.574L560.205 385.164L559.868 385.501L559.784 385.838L559.616 386.259V387.185V387.775L559.7 388.196L559.784 388.533L559.868 389.122V389.543V390.301L559.784 390.638L559.531 390.975L559.11 391.144L558.689 391.228H557.173L556.584 391.396L556.247 391.986L556.079 392.491L555.994 396.871L556.5 397.966L557.173 398.808L559.195 400.577L562.9 403.862L562.479 404.451L561.89 406.894L561.553 409.42L561.468 411.779L560.879 413.884L560.542 415.99L560.205 416.158L559.7 415.99L559.195 416.158L559.11 416.242L547.404 413.295L544.793 413.126V413.463L544.878 414.137V414.389V414.726L544.709 415.063L544.541 415.316L544.288 415.569L544.035 415.653L543.446 415.821L538.056 415.99L537.382 415.906L537.045 415.737L536.708 415.569L536.372 415.316L536.203 414.979L536.119 414.474L536.203 413.463L536.54 411.779L536.372 410.852L535.361 408.999L534.35 408.831L530.139 407.988L526.35 407.399H525.676L524.834 407.652L524.076 408.073L523.655 408.41L523.318 408.746L521.718 411.189L521.296 411.61L517.591 413.126H517.254L516.58 412.958L515.822 412.537L512.875 410.263L511.696 409.42L510.769 409.505L503.695 411.105L503.442 411.189L498.726 413.463L497.715 414.137L496.958 414.389H495.189L491.904 413.547L491.652 413.295L491.399 412.873L491.315 412.2L491.231 411.694V411.273L491.315 410.263V409.336L491.146 408.915L490.978 408.578L489.799 407.652L488.283 406.641L485.757 404.114L485.251 403.44L484.914 402.935L484.83 402.598L484.325 400.493L484.241 400.24L484.072 399.987L483.819 399.735L483.567 399.566L483.23 399.482L482.809 399.398H481.293L480.703 399.482L480.282 399.735L480.198 400.071V400.408V401.335V401.672L480.114 402.009L479.945 402.261L479.777 402.514L478.682 403.272L477.672 403.862L477.082 404.03L456.196 403.525L453.585 398.303L452.996 396.366V396.029L454.427 392.744L454.596 392.239L454.68 391.649L454.764 390.723L454.68 390.217L453.248 384.827L452.827 384.237L452.406 383.816L451.48 382.974L449.964 381.29L449.627 380.532L449.711 380.195L449.964 379.942L450.217 379.774L450.722 379.689L453.08 379.352L456.028 378.594L456.449 378.257L456.87 377.921L457.038 376.826L457.122 376.405L457.375 375.983L457.712 375.815L458.049 375.899L459.733 376.826L461.165 377.499L462.512 377.668H463.944L464.534 377.415L464.955 377.163L465.292 376.405L466.134 373.12L466.302 372.699L467.06 371.014L467.229 370.509L467.313 370.172L467.229 369.835L466.976 369.582L466.723 369.414L466.386 369.33H466.049L465.881 369.077L465.965 368.656L467.229 366.803L467.313 366.466L467.481 366.298L467.565 365.961V365.624L467.734 364.361L467.65 363.518L467.734 363.266L467.902 362.845L468.155 362.171L468.408 361.918L468.744 361.75H469.502L473.966 363.771L474.892 363.939L475.061 364.024L475.566 364.108L476.829 365.877L477.587 366.719L479.609 367.477L480.535 368.151L481.461 368.656L482.472 368.319L484.577 369.667L486.683 370.088L497.21 367.898L497.8 367.561L500.916 364.613L501.421 364.108L501.674 363.518V363.013L501.505 362.676L501.253 362.255L500.832 362.087L500.41 362.002H499.989L499.063 362.171H498.726L498.473 362.087L498.389 361.665L498.473 361.244L499.737 358.212L500.158 356.78L500.41 355.938L500.832 355.096L502.095 353.327L502.347 352.906V352.317L501.674 351.643L501.421 351.306L501.337 350.885L501.421 350.464L502.095 349.032L502.432 347.6L502.263 345.326L501.674 343.81V343.305L501.926 342.883L502.937 342.462L503.274 342.125L503.611 341.367L503.695 340.862L503.442 340.357L503.105 339.851L502.684 338.672V337.662L502.853 336.651L503.442 334.882L503.863 334.04L504.284 333.282L504.874 332.692L505.463 332.187L506.137 332.019L506.811 332.103L507.569 332.44L508.58 333.198L509.422 333.703L510.348 334.04L511.106 334.208L512.117 334.04L513.212 333.535L516.749 331.092L517.254 330.924L517.675 331.008L518.18 331.261L519.612 332.524L521.296 334.461L521.381 334.714L521.465 334.966V335.556L521.128 336.567V336.904L521.212 337.156L521.296 337.409L521.465 337.662L522.054 338.42L522.981 339.346Z" fill="white" stroke="#5F6AC0" stroke-opacity="0.33" stroke-width="0.863541" stroke-linejoin="round"/>
<path d="M797.447 341.704L797.363 341.367L796.942 339.851L796.858 339.009L797.026 337.83L797.195 336.651V335.893V335.472L797.11 335.135L796.437 334.545L793.91 333.787L793.321 333.703L792.984 333.45L792.057 332.019L791.384 331.513L790.878 331.934L790.373 332.608L789.531 332.692L786.583 332.103L784.225 331.345L782.878 331.429L781.867 331.597L780.688 331.429L780.267 331.261L779.846 331.008L777.909 328.313L777.488 327.555L777.067 327.134L776.477 326.797L773.95 325.954L773.193 325.87L772.603 325.954L772.35 326.123L771.929 326.039L771.256 325.87L769.908 325.112H769.403L769.15 325.365L769.066 326.46L768.813 326.376L768.308 325.618L767.297 323.596L765.781 321.406L767.213 319.975L766.455 318.374L765.866 317.616L765.781 317.111L766.034 316.774L767.634 315.258L768.224 314.837L768.897 313.91L773.95 312.563L775.551 313.321L777.572 312.394L778.161 312.226H779.256L780.435 312.31L781.783 312.142L788.183 313.742L789.026 313.826L789.868 313.658L792.815 313.574L793.489 313.405L793.826 313.237L793.994 313.152L794.415 312.816L795.595 307.425L795.847 306.33L798.626 305.488L800.479 305.235L800.816 304.899L801.406 303.214L801.658 302.793L802.585 302.035L803.174 302.456L804.606 304.646L805.616 305.32L807.048 305.741L809.659 305.993L809.912 306.162L809.996 306.415V306.751L809.912 307.173V308.689L810.838 309.11L812.017 309.194L813.028 309.615L815.049 312.9L816.565 314.5L818.502 315.342L820.607 315.595L826.924 315.005L828.776 315.595L829.029 317.448L828.861 318.543L829.534 318.459L831.808 316.858L835.43 315.174L836.188 315.679L836.861 316.69L837.872 317.364L840.735 317.195L842.251 317.532L842.504 318.795L840.988 320.817L838.714 322.164L834.082 323.849L829.871 326.46L826.334 327.386L824.65 328.144L823.471 329.913L822.881 334.208L821.449 334.882L819.681 334.04H818.754L818.418 335.135L818.333 336.061L818.081 336.988L817.66 337.746L816.902 338.42L814.965 338.504L811.512 336.146L809.659 335.893L808.227 335.135L806.627 333.282L804.943 331.85L803.511 332.524L803.343 333.535L804.437 335.303L804.353 336.482L804.101 337.577V338.251L804.522 338.841L806.627 340.357L807.132 341.704V343.22L806.543 344.821L805.532 346.168L804.437 346.421L803.09 345.916L800.227 344.231L799.469 343.978L797.279 344.063L796.605 343.81L796.858 343.22L797.447 343.052L798.29 342.968L798.963 342.799L799.216 342.125L798.711 341.704L797.868 341.62L797.447 341.704Z" fill="white" stroke="#5F6AC0" stroke-opacity="0.33" stroke-width="0.863541" stroke-linejoin="round"/>
<circle cx="685" cy="280" r="13" fill="#5F6AC0"/>
<circle cx="685" cy="280" r="16" fill="#5F6AC0" fill-opacity="0.31"/>
<path d="M683.478 284.182C683.014 284.182 682.583 284.098 682.184 283.928C681.785 283.755 681.441 283.512 681.151 283.2C680.865 282.884 680.654 282.509 680.52 282.076L681.632 281.757C681.775 282.191 682.013 282.52 682.347 282.745C682.68 282.971 683.055 283.081 683.471 283.077C683.852 283.068 684.182 282.982 684.459 282.817C684.741 282.648 684.957 282.418 685.109 282.128C685.265 281.838 685.343 281.502 685.343 281.12C685.343 280.54 685.17 280.07 684.823 279.71C684.476 279.346 684.021 279.164 683.458 279.164C683.302 279.164 683.137 279.186 682.964 279.229C682.795 279.272 682.637 279.333 682.49 279.411L681.931 278.494L685.402 275.355L685.551 275.745H680.891V274.64H686.409V275.751L683.452 278.585L683.439 278.176C684.058 278.133 684.6 278.234 685.064 278.481C685.527 278.728 685.887 279.082 686.143 279.541C686.403 280 686.532 280.527 686.532 281.12C686.532 281.718 686.398 282.247 686.13 282.706C685.861 283.166 685.497 283.528 685.038 283.792C684.578 284.052 684.058 284.182 683.478 284.182Z" fill="white"/>
<circle cx="739" cy="308" r="13" fill="#FF675D"/>
<path d="M737.478 312.182C737.014 312.182 736.583 312.098 736.184 311.928C735.785 311.755 735.441 311.512 735.151 311.2C734.865 310.884 734.654 310.509 734.52 310.076L735.632 309.757C735.775 310.191 736.013 310.52 736.347 310.745C736.68 310.971 737.055 311.081 737.471 311.077C737.852 311.068 738.182 310.982 738.459 310.817C738.741 310.648 738.957 310.418 739.109 310.128C739.265 309.838 739.343 309.502 739.343 309.12C739.343 308.54 739.17 308.07 738.823 307.71C738.476 307.346 738.021 307.164 737.458 307.164C737.302 307.164 737.137 307.186 736.964 307.229C736.795 307.272 736.637 307.333 736.49 307.411L735.931 306.494L739.402 303.355L739.551 303.745H734.891V302.64H740.409V303.751L737.452 306.585L737.439 306.176C738.058 306.133 738.6 306.234 739.064 306.481C739.527 306.728 739.887 307.082 740.143 307.541C740.403 308 740.532 308.527 740.532 309.12C740.532 309.718 740.398 310.247 740.13 310.706C739.861 311.166 739.497 311.528 739.038 311.792C738.578 312.052 738.058 312.182 737.478 312.182Z" fill="white"/>
<circle cx="763" cy="339" r="13" fill="#FF675D"/>
<path d="M761.478 343.182C761.014 343.182 760.583 343.098 760.184 342.928C759.785 342.755 759.441 342.512 759.151 342.2C758.865 341.884 758.654 341.509 758.52 341.076L759.632 340.757C759.775 341.191 760.013 341.52 760.347 341.745C760.68 341.971 761.055 342.081 761.471 342.077C761.852 342.068 762.182 341.982 762.459 341.817C762.741 341.648 762.957 341.418 763.109 341.128C763.265 340.838 763.343 340.502 763.343 340.12C763.343 339.54 763.17 339.07 762.823 338.71C762.476 338.346 762.021 338.164 761.458 338.164C761.302 338.164 761.137 338.186 760.964 338.229C760.795 338.272 760.637 338.333 760.49 338.411L759.931 337.494L763.402 334.355L763.551 334.745H758.891V333.64H764.409V334.751L761.452 337.585L761.439 337.176C762.058 337.133 762.6 337.234 763.064 337.481C763.527 337.728 763.887 338.082 764.143 338.541C764.403 339 764.532 339.527 764.532 340.12C764.532 340.718 764.398 341.247 764.13 341.706C763.861 342.166 763.497 342.528 763.038 342.792C762.578 343.052 762.058 343.182 761.478 343.182Z" fill="white"/>
<circle cx="625" cy="338" r="13" fill="#FF675D"/>
<path d="M623.478 342.182C623.014 342.182 622.583 342.098 622.184 341.928C621.785 341.755 621.441 341.512 621.151 341.2C620.865 340.884 620.654 340.509 620.52 340.076L621.632 339.757C621.775 340.191 622.013 340.52 622.347 340.745C622.68 340.971 623.055 341.081 623.471 341.077C623.852 341.068 624.182 340.982 624.459 340.817C624.741 340.648 624.957 340.418 625.109 340.128C625.265 339.838 625.343 339.502 625.343 339.12C625.343 338.54 625.17 338.07 624.823 337.71C624.476 337.346 624.021 337.164 623.458 337.164C623.302 337.164 623.137 337.186 622.964 337.229C622.795 337.272 622.637 337.333 622.49 337.411L621.931 336.494L625.402 333.355L625.551 333.745H620.891V332.64H626.409V333.751L623.452 336.585L623.439 336.176C624.058 336.133 624.6 336.234 625.064 336.481C625.527 336.728 625.887 337.082 626.143 337.541C626.403 338 626.532 338.527 626.532 339.12C626.532 339.718 626.398 340.247 626.13 340.706C625.861 341.166 625.497 341.528 625.038 341.792C624.578 342.052 624.058 342.182 623.478 342.182Z" fill="white"/>
<circle cx="504" cy="460" r="13" fill="#FF675D"/>
<path d="M502.478 464.182C502.014 464.182 501.583 464.098 501.184 463.928C500.785 463.755 500.441 463.512 500.151 463.2C499.865 462.884 499.654 462.509 499.52 462.076L500.632 461.757C500.775 462.191 501.013 462.52 501.347 462.745C501.68 462.971 502.055 463.081 502.471 463.077C502.852 463.068 503.182 462.982 503.459 462.817C503.741 462.648 503.957 462.418 504.109 462.128C504.265 461.838 504.343 461.502 504.343 461.12C504.343 460.54 504.17 460.07 503.823 459.71C503.476 459.346 503.021 459.164 502.458 459.164C502.302 459.164 502.137 459.186 501.964 459.229C501.795 459.272 501.637 459.333 501.49 459.411L500.931 458.494L504.402 455.355L504.551 455.745H499.891V454.64H505.409V455.751L502.452 458.585L502.439 458.176C503.058 458.133 503.6 458.234 504.064 458.481C504.527 458.728 504.887 459.082 505.143 459.541C505.403 460 505.532 460.527 505.532 461.12C505.532 461.718 505.398 462.247 505.13 462.706C504.861 463.166 504.497 463.528 504.038 463.792C503.578 464.052 503.058 464.182 502.478 464.182Z" fill="white"/>
<circle cx="351" cy="263" r="13" fill="#FF675D"/>
<path d="M349.478 267.182C349.014 267.182 348.583 267.098 348.184 266.928C347.785 266.755 347.441 266.512 347.151 266.2C346.865 265.884 346.654 265.509 346.52 265.076L347.632 264.757C347.775 265.191 348.013 265.52 348.347 265.745C348.68 265.971 349.055 266.081 349.471 266.077C349.852 266.068 350.182 265.982 350.459 265.817C350.741 265.648 350.957 265.418 351.109 265.128C351.265 264.838 351.343 264.502 351.343 264.12C351.343 263.54 351.17 263.07 350.823 262.71C350.476 262.346 350.021 262.164 349.458 262.164C349.302 262.164 349.137 262.186 348.964 262.229C348.795 262.272 348.637 262.333 348.49 262.411L347.931 261.494L351.402 258.355L351.551 258.745H346.891V257.64H352.409V258.751L349.452 261.585L349.439 261.176C350.058 261.133 350.6 261.234 351.064 261.481C351.527 261.728 351.887 262.082 352.143 262.541C352.403 263 352.532 263.527 352.532 264.12C352.532 264.718 352.398 265.247 352.13 265.706C351.861 266.166 351.497 266.528 351.038 266.792C350.578 267.052 350.058 267.182 349.478 267.182Z" fill="white"/>
<circle cx="222" cy="183" r="13" fill="#FF675D"/>
<path d="M220.478 187.182C220.014 187.182 219.583 187.098 219.184 186.928C218.785 186.755 218.441 186.512 218.151 186.2C217.865 185.884 217.654 185.509 217.52 185.076L218.632 184.757C218.775 185.191 219.013 185.52 219.347 185.745C219.68 185.971 220.055 186.081 220.471 186.077C220.852 186.068 221.182 185.982 221.459 185.817C221.741 185.648 221.957 185.418 222.109 185.128C222.265 184.838 222.343 184.502 222.343 184.12C222.343 183.54 222.17 183.07 221.823 182.71C221.476 182.346 221.021 182.164 220.458 182.164C220.302 182.164 220.137 182.186 219.964 182.229C219.795 182.272 219.637 182.333 219.49 182.411L218.931 181.494L222.402 178.355L222.551 178.745H217.891V177.64H223.409V178.751L220.452 181.585L220.439 181.176C221.058 181.133 221.6 181.234 222.064 181.481C222.527 181.728 222.887 182.082 223.143 182.541C223.403 183 223.532 183.527 223.532 184.12C223.532 184.718 223.398 185.247 223.13 185.706C222.861 186.166 222.497 186.528 222.038 186.792C221.578 187.052 221.058 187.182 220.478 187.182Z" fill="white"/>
<circle cx="649" cy="308" r="13" fill="#FF675D"/>
<path d="M647.478 312.182C647.014 312.182 646.583 312.098 646.184 311.928C645.785 311.755 645.441 311.512 645.151 311.2C644.865 310.884 644.654 310.509 644.52 310.076L645.632 309.757C645.775 310.191 646.013 310.52 646.347 310.745C646.68 310.971 647.055 311.081 647.471 311.077C647.852 311.068 648.182 310.982 648.459 310.817C648.741 310.648 648.957 310.418 649.109 310.128C649.265 309.838 649.343 309.502 649.343 309.12C649.343 308.54 649.17 308.07 648.823 307.71C648.476 307.346 648.021 307.164 647.458 307.164C647.302 307.164 647.137 307.186 646.964 307.229C646.795 307.272 646.637 307.333 646.49 307.411L645.931 306.494L649.402 303.355L649.551 303.745H644.891V302.64H650.409V303.751L647.452 306.585L647.439 306.176C648.058 306.133 648.6 306.234 649.064 306.481C649.527 306.728 649.887 307.082 650.143 307.541C650.403 308 650.532 308.527 650.532 309.12C650.532 309.718 650.398 310.247 650.13 310.706C649.861 311.166 649.497 311.528 649.038 311.792C648.578 312.052 648.058 312.182 647.478 312.182Z" fill="white"/>
</g>
<defs>
<clipPath id="clip0_1_13299">
<rect width="849" height="553" fill="white"/>
</clipPath>
</defs>
</svg>
