<svg width="583" height="287" fill="none" xmlns="http://www.w3.org/2000/svg"><g clip-path="url(#clip0_1_6016)" opacity=".6"><path d="M424.968 105.901c-15.44 0-26.308-3.342-33.113-6.485-9.102-4.204-13.026-8.856-13.188-9.053a.511.511 0 11.789-.654c.039.047 3.979 4.703 12.898 8.807 8.239 3.793 22.533 7.877 43.84 5.796a.513.513 0 11.099 1.021c-4.019.392-7.791.568-11.325.568zm-8.488 29.928c-2.807 0-5.22-.256-7.2-.6-6.251-1.093-9.605-3.244-9.745-3.336a.512.512 0 11.56-.859c.039.025 3.362 2.146 9.423 3.194 5.601.97 14.752 1.193 26.545-3.245a.512.512 0 11.361.959c-7.883 2.967-14.622 3.887-19.944 3.887zm2.966 24.381c-2.433 0-4.559-.248-6.324-.587-5.56-1.062-8.746-3.155-8.88-3.243a.512.512 0 01.566-.855c.031.021 3.184 2.083 8.558 3.1 4.955.939 12.871 1.154 22.441-3.141a.51.51 0 01.676.258.51.51 0 01-.258.677c-6.44 2.895-12.162 3.791-16.779 3.791zm-131.245-18.46a.511.511 0 01-.008-1.025c19.694-.342 38.191-14.162 50.241-25.694 13.095-12.533 21.619-25.154 21.703-25.279a.513.513 0 01.851.572c-.086.127-8.66 12.826-21.832 25.435-7.743 7.413-15.54 13.35-23.175 17.645-9.57 5.386-18.915 8.195-27.771 8.348-.003-.002-.005-.002-.009-.002zm15.264.404a.51.51 0 01-.023-1.023c.248-.012 25.004-1.267 38.929-9.609a.511.511 0 01.703.176.514.514 0 01-.176.703c-14.149 8.474-39.156 9.743-39.409 9.753h-.024zm279.022 66.472H1.337a.512.512 0 110-1.025H582.49a.513.513 0 11-.003 1.025z" fill="#48499F" fill-opacity=".49"/><path d="M266.627 208.626h-71.96V96.624h71.96v112.002zm-70.935-1.025h69.91V97.649h-69.91v109.952z" fill="#48499F" fill-opacity=".49"/><path d="M264.526 226.58c-.029.008-.057.014-.084.02a4.948 4.948 0 01-.242.049c.051-.01.105-.02.16-.033l.166-.036zm2.069-.738l-.183.088c-.043.02-.086.041-.129.059-.064.029-.127.058-.191.082a12.544 12.544 0 00.503-.229zm3.893-2.313a1.735 1.735 0 00-.098.045 3.636 3.636 0 00-.388.189c-.094.049-.189.1-.287.157-.008.007-.018.011-.029.017-.106.063-.219.131-.336.203-.465.287-1.011.654-1.718 1.115a8.83 8.83 0 01-.781.457c.256-.137.515-.289.773-.457 1.355-.886 2.116-1.421 2.864-1.726zm.734-.234zm-.289.076a.112.112 0 00-.035.012 3.375 3.375 0 00-.152.048.519.519 0 01.086-.031c.033-.01.066-.021.101-.029z" fill="#7AA9CC"/><path d="M264.526 226.58c-.029.008-.057.014-.084.02a4.948 4.948 0 01-.242.049c.051-.01.105-.02.16-.033l.166-.036zm2.069-.738l-.183.088c-.043.02-.086.041-.129.059-.064.029-.127.058-.191.082a12.544 12.544 0 00.503-.229zm3.893-2.313a1.735 1.735 0 00-.098.045 3.636 3.636 0 00-.388.189c-.094.049-.189.1-.287.157-.008.007-.018.011-.029.017-.106.063-.219.131-.336.203-.465.287-1.011.654-1.718 1.115a8.83 8.83 0 01-.781.457c.256-.137.515-.289.773-.457 1.355-.886 2.116-1.421 2.864-1.726zm.734-.234zm-.289.076a.112.112 0 00-.035.012 3.375 3.375 0 00-.152.048.519.519 0 01.086-.031c.033-.01.066-.021.101-.029z" fill="#7AA9CC"/><path d="M294.184 99.787c.207-.034.477-.063.822-.063.422 0 .734.098.931.275a.91.91 0 01.291.693c0 .299-.088.537-.257.709-.231.242-.594.365-1.012.365-.127 0-.246-.004-.345-.029v1.329h-.428v-3.279h-.002zm.428 1.6c.095.024.211.034.355.034.517 0 .832-.256.832-.703 0-.443-.315-.654-.783-.654-.186 0-.33.015-.404.035v1.288zm5.025-.015c0 1.136-.693 1.747-1.54 1.747-.881 0-1.49-.685-1.49-1.687 0-1.054.65-1.743 1.536-1.743.908 0 1.494.695 1.494 1.683zm-2.579.049c0 .714.383 1.349 1.062 1.349s1.062-.625 1.062-1.377c0-.665-.344-1.353-1.058-1.353-.711 0-1.066.658-1.066 1.381zm3.676 1.645l-.841-3.318h.453l.394 1.677c.098.415.187.827.246 1.146h.01c.054-.33.158-.723.271-1.152l.443-1.673h.447l.404 1.684c.094.393.182.787.231 1.135h.01c.07-.365.162-.734.267-1.146l.439-1.673h.439l-.939 3.318h-.447l-.419-1.727a10.482 10.482 0 01-.217-1.082h-.01a9.2 9.2 0 01-.256 1.082l-.472 1.727h-.453v.002zm5.332-1.557h-1.283v1.196h1.437v.359h-1.87v-3.318h1.796v.359h-1.363v1.048h1.283v.356zm.71-1.715c.217-.04.531-.07.822-.07.457 0 .758.088.959.27a.848.848 0 01.261.636c0 .433-.275.724-.619.841v.014c.25.088.403.324.481.668.109.464.187.783.257.911h-.443c-.053-.099-.127-.38-.217-.792-.099-.457-.281-.629-.669-.644h-.404v1.438h-.428v-3.272zm.428 1.511h.439c.457 0 .748-.251.748-.63 0-.428-.309-.615-.762-.615-.207 0-.349.014-.423.035v1.21h-.002zm-16.276 7.518a3.025 3.025 0 01-1.023.182c-.502 0-.914-.127-1.24-.439-.285-.274-.464-.717-.464-1.236 0-.988.685-1.712 1.796-1.712.384 0 .689.084.833.152l-.109.348c-.176-.084-.398-.143-.734-.143-.808 0-1.333.502-1.333 1.332 0 .841.503 1.339 1.28 1.339.281 0 .471-.039.57-.088v-.988h-.669v-.345h1.093v1.598zm2.362-1.409h-1.284v1.195h1.438v.359h-1.87v-3.317h1.796v.359h-1.364v1.047h1.284v.357zm.707 1.556v-3.317h.472l1.058 1.677c.242.389.438.738.59 1.078l.014-.004a14.89 14.89 0 01-.049-1.363v-1.388h.404v3.317h-.432L295 107.287a9.576 9.576 0 01-.615-1.107l-.015.004c.025.418.029.816.029 1.367v1.417h-.402v.002zm4.951-1.556h-1.283v1.195h1.437v.359h-1.87v-3.317h1.796v.359h-1.363v1.047h1.283v.357zm.708-1.716c.217-.039.53-.07.822-.07.457 0 .758.088.959.271.162.147.26.373.26.635 0 .433-.274.724-.619.841v.014c.25.088.404.326.482.669.109.463.187.783.256.91h-.443c-.053-.099-.127-.379-.217-.791-.098-.458-.281-.63-.668-.644h-.404v1.437h-.428v-3.272zm.428 1.511h.439c.457 0 .748-.25.748-.63 0-.428-.31-.615-.763-.615-.207 0-.348.015-.422.035v1.21h-.002zm2.78.717l-.344 1.044h-.443l1.131-3.317h.513l1.132 3.317h-.457l-.355-1.044h-1.177zm1.093-.334l-.33-.955c-.074-.217-.123-.414-.172-.605h-.011c-.049.193-.098.398-.168.601l-.324.959h1.005zm1.634-1.574h-1.009v-.365h2.456v.365h-1.013v2.952h-.432v-2.952h-.002zm2.243-.365v3.317h-.433v-3.317h.433zm3.581 1.623c0 1.136-.693 1.747-1.539 1.747-.882 0-1.491-.685-1.491-1.687 0-1.054.65-1.743 1.536-1.743.91 0 1.494.695 1.494 1.683zm-2.577.05c0 .713.384 1.349 1.062 1.349.679 0 1.062-.626 1.062-1.378 0-.664-.344-1.353-1.058-1.353-.711 0-1.066.658-1.066 1.382zm3.135 1.644v-3.317h.471l1.058 1.677c.242.389.439.738.591 1.078l.014-.004a14.89 14.89 0 01-.049-1.363v-1.388h.404v3.317h-.433l-1.054-1.683a9.728 9.728 0 01-.615-1.107l-.014.004c.025.418.029.816.029 1.367v1.417h-.402v.002zM55.346 208.626H0l26.322-42.77a3.74 3.74 0 013.188-1.767c1.4 0 2.675.768 3.332 2.007l12.485 23.591 10.02 18.939zm-53.511-1.025h51.81l-9.226-17.436-12.486-23.592a2.702 2.702 0 00-2.425-1.459c-.947 0-1.814.479-2.319 1.283L1.835 207.601zm250.21-2.524h-1.239a1.07 1.07 0 01-1.07-1.07v-28.234a2.237 2.237 0 00-2.234-2.235h-1.481a2.237 2.237 0 00-2.236 2.235v28.234c0 .591-.48 1.07-1.071 1.07h-1.156a1.07 1.07 0 01-1.07-1.07v-28.234a2.237 2.237 0 00-2.235-2.235h-1.238a2.237 2.237 0 00-2.235 2.235v28.234a1.07 1.07 0 01-1.07 1.07h-1.156a1.07 1.07 0 01-1.07-1.07v-28.234a2.238 2.238 0 00-2.237-2.235h-1.236a2.237 2.237 0 00-2.237 2.235v28.234c0 .591-.48 1.07-1.07 1.07h-1.198a1.07 1.07 0 01-1.07-1.07v-28.234a2.237 2.237 0 00-2.234-2.235h-1.075a2.237 2.237 0 00-2.236 2.235v28.234c0 .591-.48 1.07-1.071 1.07h-.588a1.07 1.07 0 01-1.07-1.07v-28.234a2.238 2.238 0 00-2.237-2.235h-1.195a2.238 2.238 0 00-2.237 2.235v17.405c0 .591-.48 1.071-1.07 1.071h-2.45V170.5h51.346v23.749h-.967a2.237 2.237 0 00-2.237 2.234v7.524c0 .589-.48 1.07-1.07 1.07zm-6.024-32.564h1.481a3.262 3.262 0 013.259 3.26v28.234c0 .025.021.045.045.045h1.239c.024 0 .045-.02.045-.045v-7.524a3.267 3.267 0 013.204-3.26v-21.698h-49.296v21.698h1.425c.025 0 .045-.02.045-.045v-17.405a3.265 3.265 0 013.262-3.26h1.195a3.265 3.265 0 013.262 3.26v28.234c0 .025.02.045.045.045h.588c.025 0 .046-.02.046-.045v-28.234a3.264 3.264 0 013.261-3.26h1.075a3.262 3.262 0 013.259 3.26v28.234c0 .025.021.045.045.045h1.198c.024 0 .045-.02.045-.045v-28.234a3.265 3.265 0 013.262-3.26h1.236a3.265 3.265 0 013.262 3.26v28.234c0 .025.02.045.045.045h1.156c.025 0 .045-.02.045-.045v-28.234a3.263 3.263 0 013.26-3.26h1.238a3.263 3.263 0 013.26 3.26v28.234c0 .025.021.045.045.045h1.156c.025 0 .046-.02.046-.045v-28.234a3.264 3.264 0 013.261-3.26z" fill="#48499F" fill-opacity=".49"/><path d="M256.319 208.626h-51.346v-13.213h2.45a2.238 2.238 0 002.237-2.235v-17.405a1.07 1.07 0 011.07-1.071h1.195c.591 0 1.07.48 1.07 1.071v28.234a2.238 2.238 0 002.237 2.235h.588a2.237 2.237 0 002.235-2.235v-28.234c0-.591.482-1.071 1.072-1.071h1.075c.59 0 1.07.48 1.07 1.071v28.234a2.237 2.237 0 002.234 2.235h1.198a2.237 2.237 0 002.236-2.235v-28.234c0-.591.48-1.071 1.071-1.071h1.236c.59 0 1.07.48 1.07 1.071v28.234a2.238 2.238 0 002.237 2.235h1.156a2.237 2.237 0 002.235-2.235v-28.234c0-.591.48-1.071 1.07-1.071h1.238c.591 0 1.07.48 1.07 1.071v28.234a2.237 2.237 0 002.235 2.235h1.156a2.237 2.237 0 002.237-2.235v-28.234c0-.591.48-1.071 1.07-1.071h1.481c.59 0 1.07.48 1.07 1.071v28.234a2.237 2.237 0 002.234 2.235h1.239a2.237 2.237 0 002.234-2.235v-7.524c0-.59.482-1.07 1.073-1.07h.967v13.213zm-50.321-1.025h49.296v-3.335a3.263 3.263 0 01-3.249 2.999h-1.239a3.262 3.262 0 01-3.259-3.26v-28.232a.046.046 0 00-.045-.046h-1.481a.046.046 0 00-.045.046v28.234a3.265 3.265 0 01-3.262 3.26h-1.156a3.263 3.263 0 01-3.26-3.26v-28.234a.046.046 0 00-.045-.046h-1.238a.046.046 0 00-.045.046v28.234a3.263 3.263 0 01-3.26 3.26h-1.156a3.265 3.265 0 01-3.262-3.26v-28.234a.046.046 0 00-.045-.046h-1.236a.046.046 0 00-.045.046v28.234a3.265 3.265 0 01-3.262 3.26h-1.198a3.262 3.262 0 01-3.259-3.26v-28.234a.046.046 0 00-.045-.046h-1.075a.048.048 0 00-.047.046v28.234a3.263 3.263 0 01-3.26 3.26h-.588a3.265 3.265 0 01-3.262-3.26v-28.234a.046.046 0 00-.045-.046h-1.195a.046.046 0 00-.045.046v17.405a3.265 3.265 0 01-3.262 3.26h-1.425v11.163zm-10.306 1.025h-42.617v-94.881h42.617v94.881zm-41.592-1.025h40.567V114.77H154.1v92.831z" fill="#48499F" fill-opacity=".49"/><path d="M180.98 208.626h-13.193v-22.802h13.193v22.802zm-12.168-1.025h11.143V186.85h-11.143v20.751z" fill="#48499F" fill-opacity=".49"/><path d="M183.461 186.849h-18.157l-3.944-7.38h26.047l-3.946 7.38zm-17.542-1.025h16.927l2.851-5.33H163.07l2.849 5.33zm11.526-6.816h-6.123l1.16-5.366h3.801l1.162 5.366zm-4.852-1.025h3.581l-.717-3.316h-2.149l-.715 3.316z" fill="#48499F" fill-opacity=".49"/><path d="M171.525 179.008h-6.122l1.16-5.366h3.799l1.163 5.366zm-4.851-1.025h3.579l-.717-3.316h-2.147l-.715 3.316zm-1.398 1.025h-3.574v-5.366h2.413l1.161 5.366zm-2.549-1.025h1.278l-.718-3.316h-.56v3.316z" fill="#48499F" fill-opacity=".49"/><path d="M187.065 180.494h-25.363v-2.512h25.363v2.512zm-24.338-1.025h23.313v-.461h-23.313v.461z" fill="#48499F" fill-opacity=".49"/><path d="M183.364 179.008h-6.124l1.161-5.366h3.801l1.162 5.366zm-4.853-1.025h3.582l-.717-3.316h-2.149l-.716 3.316zm8.554 1.025h-3.574l1.161-5.366h2.413v5.366zm-2.302-1.025h1.277v-3.316h-.56l-.717 3.316z" fill="#48499F" fill-opacity=".49"/><path d="M186.04 179.471v-4.803h-.56l-.939 4.34h-2.224l-.939-4.34h-2.149l-.939 4.34h-1.892l-.939-4.34h-2.149l-.939 4.34h-1.894l-.939-4.34h-2.147l-.939 4.34h-2.224l-.939-4.34h-.56v4.643l-.734-.352c-.262-.128-6.433-3.203-7.684-13.175l-.467-3.723 1.447 3.461c.005.008.394.853 1.757 1.634-1.574-2.522-4.045-7.85-1.468-13.572 2.871-6.378 2.612-11.672 2.465-13.144a.577.577 0 011.084-.33c.41.759 1.23 2.368 1.708 3.94.683-2.296 1.642-6.339.939-9.092a.578.578 0 01.105-.504.6.6 0 01.838-.086c.972.83 4.1 3.593 5.585 6.011.926-1.649 3.175-5.497 5.673-8.724.83-1.074 1.459-2.052 1.871-2.909a.88.88 0 01.798-.504c.455 0 .828.326.888.775.256 1.91.844 4.649 2.183 6.857 1.554 2.561 2.03 5.202 2.163 6.848.812-1.435 1.872-3.77 1.771-6.054a.564.564 0 01.152-.408.553.553 0 01.937.246c.273 1.078 1.242 4.746 2.259 6.659 1.132 2.126 1.232 7.03.039 10.798.63-.826 1.232-1.862 1.468-2.993a.553.553 0 011.095.117c-.008 1.925.098 6.747 1.294 9.924 1.777 4.722.834 14.54-4.058 17.913l-.797.547zm-2.897-1.488h.572l.939-4.341h2.413v3.777c1.624-1.538 2.792-4.074 3.335-7.274.538-3.168.357-6.614-.459-8.781-.887-2.358-1.209-5.466-1.314-7.928-.752 1.31-1.759 2.339-2.433 2.946a.623.623 0 01-.415.16.626.626 0 01-.535-.307.617.617 0 01-.006-.618c2.042-3.669 1.983-9.873.863-11.977-.633-1.189-1.232-2.952-1.685-4.471-.519 2.208-1.65 4.135-2.228 5.025a.696.696 0 01-1.278-.375c-.006-1.218-.221-4.381-2.064-7.416-1.335-2.197-1.966-4.856-2.264-6.833-.434.822-1.035 1.731-1.789 2.708-2.729 3.527-5.165 7.824-5.845 9.056a.725.725 0 01-1.276-.012c-.978-1.839-3.307-4.105-4.676-5.351.377 3.723-1.162 8.487-1.691 9.984a.584.584 0 01-1.132-.145c-.086-1.009-.552-2.28-1.017-3.338-.029 2.546-.484 6.755-2.634 11.53-3.236 7.182 2.16 13.736 2.392 14.013l1.138 1.355-1.685-.537c-1.249-.398-2.132-.921-2.743-1.415 1.26 6.19 4.598 9.127 6.087 10.161v-3.939h2.413l.939 4.341h.572l.938-4.341h3.799l.939 4.341h.242l.939-4.341h3.801l.939 4.341h.24l.939-4.341h3.801l.929 4.343z" fill="#48499F" fill-opacity=".49"/><path d="M165.376 173.538h-3.895v-3.194a4.596 4.596 0 014.588-4.591h16.629a.695.695 0 00.695-.693v-.137a.694.694 0 00-.695-.693h-16.629a4.593 4.593 0 01-4.588-4.588v-.088a4.596 4.596 0 014.588-4.591h16.629a.695.695 0 00.695-.693v-.129a.694.694 0 00-.695-.693h-16.629a4.593 4.593 0 01-4.588-4.59v-.137a4.594 4.594 0 014.588-4.589h16.629a.695.695 0 00.695-.693v-.08a.696.696 0 00-.695-.695h-16.629a4.593 4.593 0 01-4.588-4.588 4.593 4.593 0 014.588-4.588h16.629a.696.696 0 00.695-.693v-.133a.694.694 0 00-.695-.693h-16.629a4.594 4.594 0 01-4.588-4.589v-.051a4.593 4.593 0 014.588-4.588h29.623v3.895h-29.623a.694.694 0 00-.693.693v.051c0 .384.312.693.693.693h16.629c2.53 0 4.59 2.059 4.59 4.589v.133a4.593 4.593 0 01-4.59 4.588h-16.629a.694.694 0 000 1.386h16.629c2.53 0 4.59 2.058 4.59 4.59v.08a4.594 4.594 0 01-4.59 4.589h-16.629a.693.693 0 00-.693.693v.137c0 .383.312.695.693.695h16.629c2.53 0 4.59 2.058 4.59 4.588v.129a4.594 4.594 0 01-4.59 4.589h-16.629a.694.694 0 00-.693.695v.088c0 .383.312.693.693.693h16.629c2.53 0 4.59 2.058 4.59 4.588v.137a4.594 4.594 0 01-4.59 4.589h-16.629a.694.694 0 00-.693.695v3.194zm-2.87-1.025h1.845v-2.169c0-.948.771-1.72 1.718-1.72h16.629a3.57 3.57 0 003.565-3.564v-.137a3.567 3.567 0 00-3.565-3.563h-16.629a1.72 1.72 0 01-1.718-1.718v-.088c0-.948.771-1.72 1.718-1.72h16.629a3.57 3.57 0 003.565-3.564v-.129a3.567 3.567 0 00-3.565-3.563h-16.629a1.72 1.72 0 01-1.718-1.72v-.137a1.72 1.72 0 011.718-1.718h16.629a3.57 3.57 0 003.565-3.564v-.08a3.569 3.569 0 00-3.565-3.565h-16.629a1.72 1.72 0 01-1.718-1.718 1.72 1.72 0 011.718-1.718h16.629a3.568 3.568 0 003.565-3.563v-.133a3.567 3.567 0 00-3.565-3.563h-16.629a1.72 1.72 0 01-1.718-1.719v-.051a1.72 1.72 0 011.718-1.718h28.598v-1.845h-28.598a3.567 3.567 0 00-3.563 3.563v.051a3.567 3.567 0 003.563 3.564h16.629c.947 0 1.72.771 1.72 1.718v.133a1.72 1.72 0 01-1.72 1.718h-16.629a3.567 3.567 0 00-3.563 3.563 3.567 3.567 0 003.563 3.563h16.629c.947 0 1.72.771 1.72 1.72v.08a1.72 1.72 0 01-1.72 1.718h-16.629a3.567 3.567 0 00-3.563 3.564v.137a3.568 3.568 0 003.563 3.565h16.629c.947 0 1.72.771 1.72 1.718v.129a1.72 1.72 0 01-1.72 1.718h-16.629a3.568 3.568 0 00-3.563 3.566v.088a3.567 3.567 0 003.563 3.563h16.629c.947 0 1.72.771 1.72 1.718v.137a1.72 1.72 0 01-1.72 1.718h-16.629a3.568 3.568 0 00-3.563 3.566v2.169zm-18.228 36.113H119.43l6.854-166.671h11.142l6.852 166.671zm-23.78-1.025h22.712L136.442 42.98h-9.174l-6.77 164.621z" fill="#48499F" fill-opacity=".49"/><path d="M144.149 205.49h-24.59l.304-7.36h23.984l.302 7.36zm-23.522-1.025h22.454l-.218-5.31h-22.016l-.22 5.31zm23.128-8.543h-23.802l.303-7.36h23.198l.301 7.36zm-22.734-1.025h21.666l-.217-5.31h-21.23l-.219 5.31zm22.341-8.543h-23.016l.304-7.358h22.41l.302 7.358zm-21.947-1.025h20.878l-.217-5.308h-20.442l-.219 5.308zm21.553-8.541H120.74l.304-7.361h21.623l.301 7.361zm-21.16-1.026H141.9l-.217-5.309h-19.655l-.22 5.309zm20.768-8.543h-21.444l.303-7.36h20.84l.301 7.36zm-20.376-1.025h19.308l-.217-5.31h-18.872l-.219 5.31zm19.983-8.543h-20.658l.304-7.358h20.052l.302 7.358zm-19.589-1.025h18.521l-.218-5.308h-18.084l-.219 5.308zm19.195-8.541h-19.87l.303-7.36h19.266l.301 7.36zm-18.802-1.025h17.734l-.217-5.31h-17.298l-.219 5.31zm18.408-8.543h-19.083l.304-7.36h18.478l.301 7.36zm-18.014-1.025h16.946l-.217-5.31H123.6l-.219 5.31zm17.621-8.543h-18.296l.304-7.358h17.691l.301 7.358zm-17.228-1.025h16.16l-.218-5.308h-15.722l-.22 5.308zm16.834-8.541H123.1l.303-7.36h16.904l.301 7.36zm-16.44-1.025h15.372l-.217-5.31h-14.936l-.219 5.31zm16.047-8.543h-16.721l.303-7.36h16.116l.302 7.36zm-15.653-1.025h14.585l-.218-5.31h-14.148l-.219 5.31zm15.259-8.543h-15.934l.304-7.358h15.329l.301 7.358zm-14.866-1.025h13.798l-.218-5.308h-13.36l-.22 5.308zm14.474-8.542h-15.15l.303-7.36h14.546l.301 7.36zm-14.082-1.024h13.014l-.217-5.31h-12.578l-.219 5.31zm13.689-8.543h-14.364l.304-7.36h13.758l.302 7.36zm-13.296-1.025h12.228l-.218-5.31h-11.79l-.22 5.31zm12.902-8.543h-13.576l.303-7.359h12.972l.301 7.359zm-12.508-1.026h11.44l-.217-5.307h-11.004l-.219 5.307zm12.114-8.541H125.46l.303-7.36h12.184l.301 7.36zm-11.72-1.025h10.652l-.217-5.31h-10.216l-.219 5.31zm11.327-8.543h-12.002l.304-7.36h11.396l.302 7.36zm-10.934-1.025h9.866l-.218-5.31h-9.428l-.22 5.31z" fill="#48499F" fill-opacity=".49"/><path d="M155.365 194.487h-46.374l-42.215-32.912 5.121-2.189.818 3.27h1.659l3.097 1.412 2.737 2.514v1.865h3.096l2.501 2.719 2.022 1.976 2.39-.797 1.882 2.977v1.34l2.438-.389.72 2.979 3.454-.5 1.792 3.897 3.151.568.878 2.376 2.987.722.865 2.685 4.291-2.554 1.443 4.125 2.304-1.245 3.664 2.442h1.472l3.606-2.604 3.525-1.433 3.577 1.38 2.259 1.199 2.543-1.492 1.154 1.868 3.27-.636 4.574 2.563 3.294-1.905 6.005 3.779zm-8.715-1.026h5.158l-2.47-1.554-2.688 1.554zm-37.307 0h36.136l-4.159-2.331-3.598.698-.999-1.618-2.173 1.275-2.737-1.451-3.114-1.198-3.036 1.232-3.775 2.727h-2.116l-3.409-2.273-2.821 1.523-1.427-4.076-4.32 2.571-1.082-3.362-2.959-.714-.865-2.339-3.102-.56-1.693-3.688-3.618.525-.716-2.967-2.688.431v-2.247l-1.296-2.046-2.222.74-2.497-2.442-2.206-2.396h-3.67v-2.44l-2.286-2.099-2.745-1.253h-2.237l-.72-2.881-2.418 1.034 40.568 31.625zm-62.304 15.166c-.019 0-.037 0-.055-.002a.513.513 0 01-.456-.564l4.306-40.522a.513.513 0 011.019.109l-4.306 40.521a.513.513 0 01-.508.458zm23.917-.001a.51.51 0 01-.508-.459l-4.306-40.521a.513.513 0 011.02-.109l4.305 40.522a.512.512 0 01-.456.563c-.02.002-.036.004-.055.004z" fill="#48499F" fill-opacity=".49"/><path d="M47.27 206.449a.514.514 0 01-.287-.939l11.727-7.881 10.098-7.308a.512.512 0 11.6.83l-10.111 7.319-11.744 7.891a.491.491 0 01-.282.088zm1.202-11.312a.511.511 0 01-.301-.927l19.548-14.146a.512.512 0 11.6.83L48.772 195.04a.517.517 0 01-.3.097zm1.439-11.971h-.166a.513.513 0 01-.273-.947l17.158-12.42a.512.512 0 11.6.83l-17.319 12.537z" fill="#48499F" fill-opacity=".49"/><path d="M70.956 207.06a.512.512 0 01-.297-.094L58.7 198.474l-10.115-7.321a.511.511 0 11.6-.83l10.112 7.319 11.956 8.49a.512.512 0 01-.297.928zm-1.433-11.923a.503.503 0 01-.3-.097l-19.548-14.146a.511.511 0 11.601-.83l19.548 14.146a.511.511 0 01-.301.927zm-1.271-11.971h-.168l-17.32-12.535a.511.511 0 11.6-.83l17.173 12.43a.51.51 0 01-.285.935zm.59-15.061H49.151l2.642-18.511h14.405l2.644 18.511zm-18.508-1.025h17.325l-2.349-16.461H52.685l-2.351 16.461z" fill="#48499F" fill-opacity=".49"/><path d="M154.1 197.67h-46.202l-40.335-31.275-.884-6.195 42.664 33.259H154.1v4.211zm-45.852-1.025h44.825v-2.158h-44.082l-40.938-31.915.465 3.268 39.73 30.805zm50.732-1.968a2.652 2.652 0 01-2.649-2.649 2.651 2.651 0 012.649-2.648 2.651 2.651 0 012.648 2.648 2.65 2.65 0 01-2.648 2.649zm0-4.274a1.624 1.624 0 100 3.249 1.624 1.624 0 000-3.249z" fill="#48499F" fill-opacity=".49"/><path d="M185.97 208.626h-32.895V174.71h.513a3.789 3.789 0 013.766 4.17 8.375 8.375 0 014.453 8.956c.135-.009.27-.011.408-.011 4.182 0 7.585 3.404 7.585 7.586a7.6 7.6 0 01-.666 3.11 4.393 4.393 0 012.446 3.001 7.954 7.954 0 015.23-1.966 7.977 7.977 0 017.69 5.936 2.03 2.03 0 011.605 2.829l-.135.305zm-31.87-1.025h31.146c.002-.033.004-.063.004-.096 0-.554-.451-1.005-1.004-1.005-.031 0-.062 0-.092.004l-.468.058-.094-.462c-.658-3.198-3.51-5.517-6.78-5.517a6.938 6.938 0 00-5.257 2.418l-1.008 1.172.112-1.586c.002-.035.007-.068.007-.103a3.346 3.346 0 00-2.387-3.19l-.611-.18.306-.558a6.568 6.568 0 00-6.747-9.632l-.781.119.209-.763a7.311 7.311 0 00.262-1.943 7.348 7.348 0 00-4.338-6.692l-.379-.17.086-.406a2.765 2.765 0 00-2.188-3.288v31.82h.002zm37.118-17.76a2.741 2.741 0 01-2.737-2.737 2.741 2.741 0 012.737-2.737 2.74 2.74 0 012.737 2.737 2.74 2.74 0 01-2.737 2.737zm0-4.447a1.713 1.713 0 000 3.424 1.712 1.712 0 000-3.424zm-1.172-4.428a1.46 1.46 0 01-1.458-1.458 1.46 1.46 0 011.458-1.458 1.46 1.46 0 011.457 1.458 1.46 1.46 0 01-1.457 1.458zm0-1.891a.434.434 0 00-.433.433c0 .238.195.433.433.433a.433.433 0 000-.866zm2.46-28.337a2.164 2.164 0 01-2.161-2.161c0-1.191.97-2.161 2.161-2.161s2.161.97 2.161 2.161c0 1.193-.97 2.161-2.161 2.161zm0-3.295a1.136 1.136 0 100 2.272 1.136 1.136 0 000-2.272zm-33.526-10.972a1.636 1.636 0 01-1.634-1.634c0-.902.734-1.634 1.634-1.634a1.635 1.635 0 010 3.268zm0-2.245a.609.609 0 100 1.218.609.609 0 000-1.218zm31.066 11.042a1.61 1.61 0 01-1.608-1.607 1.61 1.61 0 011.608-1.607 1.61 1.61 0 011.607 1.607 1.61 1.61 0 01-1.607 1.607zm0-2.189a.583.583 0 10.001 1.165.583.583 0 00-.001-1.165zm-32.188-19.134a3.062 3.062 0 01-3.059-3.059 3.061 3.061 0 013.059-3.059 3.061 3.061 0 013.059 3.059 3.063 3.063 0 01-3.059 3.059zm0-5.093a2.036 2.036 0 00-2.034 2.034c0 1.121.913 2.034 2.034 2.034a2.036 2.036 0 002.034-2.034 2.036 2.036 0 00-2.034-2.034zm-1.605 9.824a1.574 1.574 0 01-1.573-1.572c0-.867.706-1.573 1.573-1.573s1.572.706 1.572 1.573a1.576 1.576 0 01-1.572 1.572zm0-2.119a.548.548 0 00-.547.547c0 .301.246.547.547.547a.548.548 0 00.547-.547.55.55 0 00-.547-.547zm34.965 11.191a2.276 2.276 0 01-2.273-2.273 2.276 2.276 0 012.273-2.274 2.276 2.276 0 012.274 2.274 2.275 2.275 0 01-2.274 2.273zm0-3.522a1.25 1.25 0 10.002 2.498 1.25 1.25 0 00-.002-2.498zm1.288 42.131a1.138 1.138 0 01-1.136-1.136c0-.625.509-1.136 1.136-1.136.625 0 1.136.509 1.136 1.136a1.14 1.14 0 01-1.136 1.136zm0-1.245c-.06 0-.111.05-.111.111a.11.11 0 10.222 0 .114.114 0 00-.111-.111zm-6.663 17.429a1.746 1.746 0 11-.001-3.491 1.746 1.746 0 01.001 3.491zm0-2.467a.723.723 0 00-.722.72.723.723 0 001.444 0 .724.724 0 00-.722-.72zm7.284 12.668a1.595 1.595 0 01-1.593-1.593c0-.879.716-1.593 1.593-1.593a1.593 1.593 0 110 3.186zm0-2.161a.568.568 0 100 1.137.568.568 0 000-1.137zm-12.887-80.038c-.923 0-1.675-.75-1.675-1.675 0-.922.75-1.675 1.675-1.675.922 0 1.675.751 1.675 1.675a1.678 1.678 0 01-1.675 1.675zm0-2.323a.65.65 0 10.001 1.301.65.65 0 00-.001-1.301zm3.45-.666a1.18 1.18 0 111.179-1.179 1.18 1.18 0 01-1.179 1.179zm0-1.332a.154.154 0 000 .307.153.153 0 100-.307zM154.1 138.08h-13.762l-.267-7.192H154.1v7.192zm-12.774-1.025h11.749v-5.141h-11.942l.193 5.141zm-59.281 15.713c-.151.078-.471.158-.875.158-.935 0-1.634-.59-1.634-1.683 0-1.043.703-1.743 1.732-1.743.408 0 .675.089.788.148l-.109.349a1.534 1.534 0 00-.664-.138c-.777 0-1.294.498-1.294 1.368 0 .816.468 1.332 1.27 1.332.266 0 .53-.053.702-.137l.084.346zm3.272-1.589c0 1.136-.692 1.747-1.54 1.747-.88 0-1.49-.685-1.49-1.688 0-1.054.65-1.742 1.536-1.742.91 0 1.495.693 1.495 1.683zm-2.579.049c0 .713.384 1.349 1.062 1.349.679 0 1.062-.625 1.062-1.378 0-.664-.344-1.353-1.057-1.353-.712-.002-1.067.658-1.067 1.382zm3.602.601l-.344 1.043h-.443l1.132-3.317h.512l1.132 3.317h-.457l-.355-1.043h-1.176zm1.093-.336l-.33-.956c-.074-.215-.123-.414-.172-.605h-.01c-.05.193-.099.398-.168.601l-.324.96h1.004zm1.378-1.938h.433v2.959h1.416v.358h-1.85v-3.317h.002zM167.584 99.8c.193.123.468.217.763.217.439 0 .693-.231.693-.566 0-.305-.176-.488-.625-.654-.542-.197-.876-.481-.876-.945 0-.517.429-.9 1.072-.9.335 0 .587.078.728.162l-.119.35a1.224 1.224 0 00-.625-.157c-.453 0-.625.27-.625.496 0 .31.201.463.66.64.562.217.84.488.84.974 0 .512-.373.959-1.156.959-.32 0-.668-.098-.847-.217l.117-.36zm3.11-2.43h-1.008v-.365h2.456v.365h-1.013v2.953h-.433V97.37h-.002zm3.527 1.396h-1.284v1.196h1.437v.359h-1.869v-3.318h1.796v.36h-1.364v1.047h1.284v.356zm1.244.513l-.344 1.044h-.443l1.132-3.318h.512l1.132 3.318h-.457l-.355-1.044h-1.177zm1.093-.334l-.33-.956c-.074-.217-.123-.414-.172-.604h-.011c-.049.192-.098.4-.168.6l-.326.96h1.007zm4.158-.08a29.842 29.842 0 01-.054-1.431h-.01c-.119.383-.25.802-.418 1.259l-.587 1.609h-.324l-.541-1.58a15.235 15.235 0 01-.379-1.29h-.01a50.36 50.36 0 01-.064 1.466l-.088 1.423h-.408l.232-3.318h.545l.566 1.604c.137.408.246.772.334 1.117h.01c.088-.334.207-.7.355-1.117l.59-1.604h.546l.207 3.318h-.423l-.079-1.456zm41.466-17.902h-1.009v-.365h2.456v.365h-1.012v2.952h-.433v-2.952h-.002zm2.245-.367v1.968c0 .738.33 1.054.773 1.054.488 0 .808-.324.808-1.054v-1.968h.432v1.94c0 1.018-.537 1.43-1.254 1.43-.679 0-1.192-.383-1.192-1.416v-1.954h.433zm2.753.045c.218-.039.531-.07.822-.07.458 0 .759.088.96.27.162.149.26.374.26.637 0 .432-.274.723-.619.84v.014c.25.089.404.324.482.669.109.463.186.783.256.91h-.443c-.053-.098-.127-.38-.217-.791-.098-.458-.281-.63-.668-.644h-.404v1.437h-.429v-3.272zm.429 1.509h.438c.458 0 .749-.25.749-.63 0-.428-.31-.614-.763-.614a1.81 1.81 0 00-.422.034v1.21h-.002zm2.22-1.505a3.72 3.72 0 01.783-.074c.429 0 .703.074.906.242a.695.695 0 01.281.587c0 .323-.217.604-.561.727v.015c.315.074.684.334.684.826a.87.87 0 01-.285.664c-.225.211-.6.31-1.142.31-.295 0-.52-.02-.664-.04v-3.257h-.002zm.427 1.357h.389c.447 0 .714-.242.714-.561 0-.384-.292-.542-.724-.542-.197 0-.31.015-.379.029v1.074zm0 1.585c.088.014.207.02.358.02.443 0 .851-.161.851-.643 0-.447-.389-.64-.857-.64h-.355v1.263h.003zm2.667-2.991v3.317h-.433v-3.317h.433zm.748 3.317v-3.317h.472l1.058 1.677c.241.39.438.738.59 1.078l.014-.004a14.887 14.887 0 01-.049-1.363v-1.388h.404v3.317h-.433l-1.053-1.683a9.519 9.519 0 01-.615-1.107l-.015.004c.025.418.029.816.029 1.367v1.417h-.402v.002zm4.951-1.556h-1.283v1.195h1.437v.36h-1.87v-3.318h1.796v.359h-1.363V82h1.283v.357zm-17.572 84.836c-.151.078-.471.158-.875.158-.935 0-1.634-.59-1.634-1.683 0-1.043.703-1.742 1.732-1.742.408 0 .675.088.788.147l-.109.351a1.535 1.535 0 00-.664-.138c-.777 0-1.294.496-1.294 1.368 0 .816.468 1.334 1.269 1.334.267 0 .531-.055.703-.137l.084.342zm1.097-.941l-.344 1.043h-.443l1.132-3.317h.512l1.132 3.317h-.457l-.355-1.043h-1.177zm1.093-.335l-.33-.955c-.074-.217-.123-.414-.172-.605h-.011c-.049.193-.098.4-.168.601l-.324.959h1.005zm1.384-1.9c.207-.035.478-.064.822-.064.422 0 .734.099.931.277a.912.912 0 01.291.693c0 .299-.088.537-.256.709-.232.242-.595.365-1.013.365-.127 0-.246-.004-.345-.028v1.328h-.428v-3.28h-.002zm.426 1.599c.095.025.211.035.355.035.517 0 .832-.256.832-.703 0-.443-.315-.654-.783-.654-.186 0-.33.014-.404.035v1.287zm2.313.636l-.345 1.043h-.442l1.131-3.317h.513l1.131 3.317h-.457l-.354-1.043h-1.177zm1.093-.335l-.331-.955c-.073-.217-.123-.414-.172-.605h-.01c-.049.193-.098.4-.168.601l-.324.959h1.005zm3.622 1.275c-.151.078-.471.158-.875.158-.935 0-1.634-.59-1.634-1.683 0-1.043.703-1.742 1.732-1.742.408 0 .675.088.788.147l-.109.351a1.535 1.535 0 00-.664-.138c-.777 0-1.294.497-1.294 1.368 0 .816.467 1.334 1.269 1.334.267 0 .531-.055.703-.137l.084.342zm.968-3.214v3.317h-.433v-3.317h.433zm1.378.365h-1.009v-.365h2.456v.365h-1.013v2.952h-.432v-2.952h-.002zm4.518 1.259c0 1.135-.693 1.746-1.54 1.746-.881 0-1.49-.684-1.49-1.687 0-1.054.65-1.743 1.536-1.743.908 0 1.494.695 1.494 1.684zm-2.579.049c0 .713.383 1.349 1.062 1.349s1.062-.625 1.062-1.378c0-.664-.344-1.353-1.058-1.353-.711 0-1.066.658-1.066 1.382zm3.135-1.628c.217-.039.531-.07.822-.07.457 0 .758.089.959.271a.849.849 0 01.261.636c0 .432-.275.723-.619.84v.014c.25.089.403.324.481.669.109.463.187.783.257.91h-.443c-.054-.098-.127-.379-.218-.793-.098-.458-.28-.63-.668-.644h-.404v1.437h-.428v-3.27zm.428 1.511h.439c.457 0 .748-.25.748-.629 0-.429-.309-.615-.762-.615-.208 0-.349.014-.423.034v1.21h-.002zm-46.424 47.199l1.251 3.059-1.251-.726-1.248.726 1.248-3.059zm72.59 15.757l-1.248-3.058 1.248.725 1.251-.725-1.251 3.058zm35.337-100.183a.307.307 0 01-.308-.307v-16.81a.307.307 0 01.616 0V128c0 .17-.138.307-.308.307zm-70.868-32.714a.307.307 0 01-.307-.308v-9.203a.308.308 0 01.615 0v9.203a.31.31 0 01-.308.308zm-56.179 17.25a.307.307 0 01-.307-.308v-10.498a.307.307 0 11.615 0v10.498a.309.309 0 01-.308.308zM83.94 167.014a.307.307 0 01-.308-.307v-11.52a.308.308 0 11.615 0v11.52a.308.308 0 01-.307.307zm271.148 41.613a.514.514 0 01-.496-.644l7.729-29.236v-69.205l.012-.053 5.896-27.157h2.996a.512.512 0 010 1.026h-2.169l-5.71 26.295v69.228l-.017.063-7.745 29.301a.515.515 0 01-.496.382z" fill="#48499F" fill-opacity=".49"/><path d="M387.359 208.627a.515.515 0 01-.496-.382l-7.762-29.364v-69.228l-5.709-26.295h-2.169a.513.513 0 010-1.026h2.995l5.908 27.21v69.205l7.73 29.236a.516.516 0 01-.497.644zm-16.134-88.539h-31.087v-4.275l22.609-7.823h8.478a.513.513 0 010 1.025h-8.306l-21.756 7.528v2.52h30.062a.512.512 0 010 1.025zm0 23.284h-39.296v-4.31l30.843-7.788h8.455a.512.512 0 110 1.025h-8.328l-29.945 7.563v2.485h38.271a.512.512 0 110 1.025zm-2.584-60.014a.523.523 0 01-.174-.031l-6.956-2.53v-3.348h9.714a.512.512 0 010 1.025h-8.689v1.605l6.282 2.284a.512.512 0 01-.177.995zm2.584 95.968h-8.392a.513.513 0 010-1.025h8.392a.512.512 0 110 1.025z" fill="#48499F" fill-opacity=".49"/><path d="M402.311 120.088h-31.086a.513.513 0 010-1.025h30.061v-2.52l-21.756-7.528h-8.305a.513.513 0 010-1.025h8.477l.082.029 22.527 7.794v4.275zm8.209 23.284h-39.295a.513.513 0 010-1.025h38.27v-2.485l-29.945-7.563h-8.327a.513.513 0 010-1.025h8.454l30.843 7.788v4.31zm-36.714-60.014a.513.513 0 01-.175-.995l6.282-2.284v-1.605h-8.688a.513.513 0 010-1.025h9.713v3.348l-6.956 2.53a.54.54 0 01-.176.03zm5.808 95.968h-8.391a.513.513 0 010-1.025h8.391a.512.512 0 110 1.025z" fill="#48499F" fill-opacity=".49"/><path d="M362.833 142.154a.513.513 0 01-.233-.97l16.782-8.635a.514.514 0 01.47.912l-16.783 8.636a.519.519 0 01-.236.057zm-21.231 1.218a.512.512 0 01-.26-.953l16.782-9.853a.511.511 0 11.519.883l-16.783 9.853a.516.516 0 01-.258.07zm6.396-23.284a.514.514 0 01-.326-.91l12.566-10.288a.513.513 0 11.65.794l-12.566 10.289a.504.504 0 01-.324.115zm14.835 10.544a.512.512 0 01-.233-.969l16.782-8.636a.514.514 0 01.47.913l-16.783 8.635a.519.519 0 01-.236.057zm0 35.193a.513.513 0 01-.233-.97l16.782-8.635a.514.514 0 01.47.912l-16.783 8.636a.519.519 0 01-.236.057zm0 10.286a.513.513 0 01-.233-.97l16.782-8.635a.513.513 0 01.47.912l-16.783 8.635a.52.52 0 01-.236.058zM359.2 193.07a.514.514 0 01-.233-.968l21.166-10.905a.513.513 0 01.469.913l-21.166 10.903a.526.526 0 01-.236.057zm-3.462 13.094a.513.513 0 01-.234-.97l27.261-14.045a.514.514 0 01.469.912l-.846.435-26.413 13.609a.498.498 0 01-.237.059zm7.095-51.863a.513.513 0 01-.233-.97l16.782-8.635a.514.514 0 01.47.913l-16.783 8.635a.519.519 0 01-.236.057zm0-35.433a.512.512 0 01-.233-.969l16.782-8.636a.512.512 0 11.47.913l-16.783 8.635a.495.495 0 01-.236.057zm1.05-13.588a.513.513 0 01-.234-.97l13.208-6.798a.512.512 0 11.469.912l-13.207 6.798a.52.52 0 01-.236.058zm2.341-10.79a.513.513 0 01-.233-.97l8.994-4.625a.514.514 0 01.469.912l-8.994 4.625a.513.513 0 01-.236.058zm-.984-12.37a.513.513 0 01-.234-.97l7.086-3.646a.513.513 0 11.469.913l-7.085 3.647a.545.545 0 01-.236.055z" fill="#48499F" fill-opacity=".49"/><path d="M362.833 142.154a.513.513 0 01-.233-.97l16.782-8.635a.514.514 0 01.47.912l-16.783 8.636a.519.519 0 01-.236.057zm0-11.522a.512.512 0 01-.233-.969l16.782-8.636a.514.514 0 01.47.913l-16.783 8.635a.519.519 0 01-.236.057zm0 35.193a.513.513 0 01-.233-.97l16.782-8.635a.514.514 0 01.47.912l-16.783 8.636a.519.519 0 01-.236.057zm0 10.286a.513.513 0 01-.233-.97l16.782-8.635a.513.513 0 01.47.912l-16.783 8.635a.52.52 0 01-.236.058zM359.2 193.07a.514.514 0 01-.233-.968l21.166-10.905a.513.513 0 01.469.913l-21.166 10.903a.526.526 0 01-.236.057zm-3.462 13.094a.513.513 0 01-.234-.97l27.261-14.045a.514.514 0 01.469.912l-.846.435-26.413 13.609a.498.498 0 01-.237.059zm7.095-51.863a.513.513 0 01-.233-.97l16.782-8.635a.514.514 0 01.47.913l-16.783 8.635a.519.519 0 01-.236.057zm0-35.433a.512.512 0 01-.233-.969l16.782-8.636a.512.512 0 11.47.913l-16.783 8.635a.495.495 0 01-.236.057zm1.05-13.588a.513.513 0 01-.234-.97l13.208-6.798a.512.512 0 11.469.912l-13.207 6.798a.52.52 0 01-.236.058zm2.341-10.79a.513.513 0 01-.233-.97l8.994-4.625a.514.514 0 01.469.912l-8.994 4.625a.513.513 0 01-.236.058zm-.984-12.37a.513.513 0 01-.234-.97l7.086-3.646a.513.513 0 11.469.913l-7.085 3.647a.545.545 0 01-.236.055z" fill="#48499F" fill-opacity=".49"/><path d="M379.518 142.154a.505.505 0 01-.234-.057l-16.783-8.636a.513.513 0 01.47-.912l16.782 8.635a.514.514 0 01-.235.97zm0-11.522a.505.505 0 01-.234-.057l-16.783-8.635a.514.514 0 01.47-.913l16.782 8.636a.512.512 0 01-.235.969zm0 35.193a.505.505 0 01-.234-.057l-16.783-8.636a.512.512 0 11.47-.912l16.782 8.635a.514.514 0 01-.235.97zm0 10.286a.506.506 0 01-.234-.058l-16.783-8.635a.513.513 0 01.47-.912l16.782 8.635a.514.514 0 01-.235.97zm3.745 17.016a.5.5 0 01-.234-.057l-21.192-10.917a.512.512 0 01.469-.913l21.193 10.917a.514.514 0 01-.236.97zm3.463 13.097a.5.5 0 01-.234-.058l-27.286-14.058a.513.513 0 01.47-.912l.758.389 26.528 13.669a.513.513 0 01-.236.97zm-7.208-51.923a.505.505 0 01-.234-.057l-16.783-8.635a.514.514 0 01.47-.913l16.782 8.635a.514.514 0 01-.235.97zm0-35.433a.505.505 0 01-.234-.057l-16.783-8.635a.514.514 0 01.47-.913l16.782 8.636a.512.512 0 01-.235.969zm-.939-13.533a.505.505 0 01-.234-.057l-13.23-6.809a.513.513 0 01.47-.912l13.229 6.808a.514.514 0 01-.235.97zm-2.344-10.79a.499.499 0 01-.233-.057l-9.019-4.638a.512.512 0 11.469-.912l9.019 4.638a.514.514 0 01-.236.97zm.917-12.403a.507.507 0 01-.234-.058l-7.129-3.667a.513.513 0 01.47-.913l7.128 3.668a.513.513 0 01-.235.97zm-17.5 61.23a.512.512 0 01-.259-.07l-12.229-7.181a.513.513 0 01.519-.884l12.229 7.18a.511.511 0 01.182.701.51.51 0 01-.442.254zm-.001-23.284a.512.512 0 01-.307-.102l-9.115-6.817a.514.514 0 01.613-.822l9.117 6.817a.512.512 0 01-.308.924zm41.098 23.284a.51.51 0 01-.258-.07l-16.783-9.853a.511.511 0 11.519-.883l16.782 9.853a.512.512 0 01-.26.953zm-6.396-23.284a.495.495 0 01-.324-.117l-12.566-10.287a.515.515 0 01-.072-.722.515.515 0 01.722-.072l12.565 10.288a.513.513 0 01-.325.91z" fill="#48499F" fill-opacity=".49"/><path d="M382.697 143.372a.512.512 0 01-.26-.953l12.262-7.196a.511.511 0 11.519.883l-12.262 7.196a.514.514 0 01-.259.07zm0-23.284a.512.512 0 01-.307-.922l9.148-6.842a.512.512 0 01.615.82l-9.148 6.842a.526.526 0 01-.308.102zm-33.991 2.762h-6.073a.513.513 0 010-1.025h6.073a.512.512 0 110 1.025zm0 2.282h-6.073a.513.513 0 010-1.026h6.073a.513.513 0 010 1.026zm0 2.281h-6.073a.512.512 0 110-1.025h6.073a.513.513 0 010 1.025zm0 2.28h-6.073a.512.512 0 110-1.025h6.073a.513.513 0 010 1.025zm-1.686 2.282h-2.704a.513.513 0 010-1.025h2.704a.513.513 0 010 1.025zm18.526-49.421h-4.318a.513.513 0 010-1.025h4.318a.512.512 0 010 1.025zm0 1.634h-4.318a.513.513 0 010-1.025h4.318a.512.512 0 010 1.025zm0 1.636h-4.318a.513.513 0 010-1.025h4.318a.512.512 0 010 1.025zm0 1.634h-4.318a.513.513 0 010-1.025h4.318a.512.512 0 010 1.025zm-1.198 1.636h-1.923a.512.512 0 010-1.025h1.923a.513.513 0 010 1.025zm-23.392 56.779h-6.072a.513.513 0 010-1.025h6.072a.513.513 0 010 1.025zm0 2.28h-6.072a.513.513 0 010-1.025h6.072a.513.513 0 110 1.025zm0 2.282h-6.072a.513.513 0 010-1.026h6.072a.513.513 0 010 1.026zm0 2.281h-6.072a.513.513 0 110-1.025h6.072a.513.513 0 010 1.025zm-1.683 2.282h-2.704a.513.513 0 110-1.025h2.704a.513.513 0 010 1.025zm60.541-32.148h-6.072a.513.513 0 010-1.025h6.072a.513.513 0 110 1.025zm0 2.282h-6.072a.513.513 0 010-1.026h6.072a.513.513 0 010 1.026zm0 2.281h-6.072a.513.513 0 110-1.025h6.072a.513.513 0 010 1.025zm0 2.28h-6.072a.513.513 0 110-1.025h6.072a.513.513 0 010 1.025zm-1.683 2.282h-2.704a.513.513 0 010-1.025h2.704a.512.512 0 010 1.025zm-16.91-49.421h-4.317a.513.513 0 010-1.025h4.317a.513.513 0 010 1.025zm0 1.634h-4.317a.513.513 0 010-1.025h4.317a.513.513 0 010 1.025zm0 1.636h-4.317a.513.513 0 010-1.025h4.317a.513.513 0 010 1.025zm0 1.634h-4.317a.513.513 0 010-1.025h4.317a.513.513 0 010 1.025zm-1.197 1.636h-1.923a.513.513 0 010-1.025h1.923a.512.512 0 010 1.025zm27.54 56.779h-6.073a.513.513 0 010-1.025h6.073a.512.512 0 010 1.025zm0 2.28h-6.073a.513.513 0 010-1.025h6.073a.512.512 0 110 1.025zm0 2.282h-6.073a.513.513 0 010-1.026h6.073a.513.513 0 010 1.026zm0 2.281h-6.073a.512.512 0 110-1.025h6.073a.513.513 0 010 1.025zm-1.686 2.282h-2.704a.512.512 0 110-1.025h2.704a.513.513 0 010 1.025zm117.073-31.999h-35.577a.512.512 0 110-1.025h35.577a.513.513 0 010 1.025zm0 7.859h-35.577a.513.513 0 010-1.025h35.577a.512.512 0 110 1.025zm-8.959 7.858h-26.618a.513.513 0 010-1.025h26.618a.513.513 0 010 1.025zm-19.186 7.856h-7.43a.512.512 0 010-1.025h7.43a.513.513 0 010 1.025zm0 7.858h-7.43a.512.512 0 010-1.025h7.43a.513.513 0 010 1.025zm59.65 54.194H532.23V108.249h22.226v100.375zm-21.203-1.025h20.176v-98.325h-20.176v98.325z" fill="#48499F" fill-opacity=".49"/><path d="M537.374 148.928a.513.513 0 01-.513-.513v-39.654a.513.513 0 011.025 0v39.654a.513.513 0 01-.512.513zm5.968 3.633a.513.513 0 01-.513-.513v-43.287a.513.513 0 011.025 0v43.289a.512.512 0 01-.512.511zm5.966 3.905a.513.513 0 01-.513-.512v-47.193a.513.513 0 011.025 0v47.195c0 .281-.229.51-.512.51zm-86.152 52.158h-29.494V102.746h29.494v105.878zm-28.469-1.025h27.444V103.771h-27.444v103.828z" fill="#48499F" fill-opacity=".49"/><path d="M439.395 160.7a.513.513 0 01-.513-.513v-49.503a.513.513 0 011.025 0v49.503a.513.513 0 01-.512.513zm6.009-3.188a.513.513 0 01-.513-.513v-46.315a.513.513 0 011.025 0v46.317a.512.512 0 01-.512.511zm6.009 1.437a.513.513 0 01-.513-.513v-47.752a.513.513 0 011.025 0v47.752a.513.513 0 01-.512.513zm6.009 3.76a.513.513 0 01-.513-.513v-51.512a.513.513 0 011.025 0v51.512a.513.513 0 01-.512.513zm71.688 45.915h-47.683v-92.858h47.683v92.858zm-46.656-1.025h45.633v-90.808h-45.633v90.808z" fill="#48499F" fill-opacity=".49"/><path d="M517.487 116.791h-24.436v-11.419h24.436v11.419zm-23.411-1.025h22.386v-9.369h-22.386v9.369zm-11.622 92.86h-20.323v-88.614h13.193l7.13 11.815v76.799zm-19.298-1.025h18.273v-75.489l-6.686-11.075h-11.587v86.564z" fill="#48499F" fill-opacity=".49"/><path d="M499.11 208.368h-34.3v-29.489h34.3v29.489zm-33.274-1.025h32.249v-27.439h-32.249v27.439zm28.938-31.252h-25.625v-4.884h25.625v4.884zm-24.6-1.026h23.574v-2.833h-23.574v2.833z" fill="#48499F" fill-opacity=".49"/><path d="M485.638 179.904h-7.352v-4.839h7.352v4.839zm-6.329-1.025h5.302v-2.788h-5.302v2.788zm-5.25 8.867h-4.939v-4.519h4.939v4.519zm-3.916-1.025h2.889v-2.469h-2.889v2.469zm10.831 1.025h-4.939v-4.519h4.939v4.519zm-3.916-1.025h2.889v-2.469h-2.889v2.469zm10.831 1.025h-4.939v-4.519h4.939v4.519zm-3.916-1.025h2.889v-2.469h-2.889v2.469zm10.831 1.025h-4.939v-4.519h4.939v4.519zm-3.916-1.025h2.889v-2.469h-2.889v2.469zm-16.829 8.555h-4.939v-4.519h4.939v4.519zm-3.916-1.025h2.889v-2.469h-2.889v2.469zm10.831 1.025h-4.939v-4.519h4.939v4.519zm-3.916-1.025h2.889v-2.469h-2.889v2.469zm10.831 1.025h-4.939v-4.519h4.939v4.519zm-3.916-1.025h2.889v-2.469h-2.889v2.469zm10.831 1.025h-4.939v-4.519h4.939v4.519zm-3.916-1.025h2.889v-2.469h-2.889v2.469zm-16.829 8.555h-4.939v-4.518h4.939v4.518zm-3.916-1.025h2.889v-2.468h-2.889v2.468zm10.831 1.025h-4.939v-4.518h4.939v4.518zm-3.916-1.025h2.889v-2.468h-2.889v2.468zm10.831 1.025h-4.939v-4.518h4.939v4.518zm-3.916-1.025h2.889v-2.468h-2.889v2.468zm10.831 1.025h-4.939v-4.518h4.939v4.518zm-3.916-1.025h2.889v-2.468h-2.889v2.468zm66.957 6.587h-59.758v-66.741h21.11l38.648 24.381v42.36zm-58.735-1.025h57.708v-40.769l-37.92-23.922h-19.79v64.691h.002z" fill="#48499F" fill-opacity=".49"/><path d="M507.862 157.512h-5.866v-9.609h5.866v9.609zm-4.839-1.025h3.816v-7.559h-3.816v7.559zm13.902 1.025h-5.865v-9.609h5.865v9.609zm-4.84-1.025h3.815v-7.559h-3.815v7.559zm-4.223 12.799h-5.866v-9.609h5.866v9.609zm-4.839-1.025h3.816v-7.559h-3.816v7.559zm13.902 1.025h-5.865v-9.609h5.865v9.609zm-4.84-1.025h3.815v-7.559h-3.815v7.559zm-4.223 12.797h-5.866v-9.609h5.866v9.609zm-4.839-1.025h3.816v-7.559h-3.816v7.559zm13.902 1.025h-5.865v-9.609h5.865v9.609zm-4.84-1.025h3.815v-7.559h-3.815v7.559zm-4.223 12.797h-5.866v-9.609h5.866v9.609zm-4.839-1.025h3.816v-7.559h-3.816v7.559zm13.902 1.025h-5.865v-9.609h5.865v9.609zm-4.84-1.025h3.815v-7.559h-3.815v7.559zm-4.223 12.797h-5.866v-9.609h5.866v9.609zm-4.839-1.025h3.816v-7.559h-3.816v7.559zm13.902 1.025h-5.865v-9.609h5.865v9.609zm-4.84-1.025h3.815v-7.559h-3.815v7.559zm10.005.816a.513.513 0 01-.513-.513v-51.832a.513.513 0 011.025 0v51.832a.513.513 0 01-.512.513zm7.083 0a.513.513 0 01-.512-.513v-48.533a.513.513 0 111.025 0v48.533c0 .283-.23.513-.513.513zm7.086 0a.513.513 0 01-.513-.513v-44.386a.513.513 0 011.025 0v44.386c0 .283-.23.513-.512.513zm7.083 0a.513.513 0 01-.513-.512v-39.4a.513.513 0 011.025 0v39.4a.512.512 0 01-.512.512zm7.083 0a.513.513 0 01-.512-.513v-35.584a.513.513 0 111.025 0v35.582c0 .285-.23.515-.513.515zm21.9-3.278c-3.75 0-6.8-3.051-6.8-6.801 0-3.713 2.872-12.448 6.8-12.448s6.8 8.735 6.8 12.448c.002 3.748-3.048 6.801-6.8 6.801zm0-18.226c-2.876 0-5.775 7.833-5.775 11.423a5.783 5.783 0 005.775 5.776 5.783 5.783 0 005.775-5.776c.002-3.59-2.899-11.423-5.775-11.423z" fill="#48499F" fill-opacity=".49"/><path d="M572.325 208.624a.513.513 0 01-.513-.512V194.07a.513.513 0 011.026 0v14.042c0 .285-.23.512-.513.512zm-73.701-7.509a6.809 6.809 0 01-6.801-6.801c0-3.713 2.873-12.448 6.801-12.448s6.8 8.735 6.8 12.448c0 3.748-3.051 6.801-6.8 6.801zm0-18.226c-2.877 0-5.776 7.833-5.776 11.423a5.784 5.784 0 005.776 5.776 5.783 5.783 0 005.775-5.776c0-3.59-2.899-11.423-5.775-11.423z" fill="#48499F" fill-opacity=".49"/><path d="M498.624 208.624a.513.513 0 01-.513-.512V194.07a.513.513 0 011.025 0v14.042a.51.51 0 01-.512.512zm64.065-8.791c-4.953 0-8.984-4.03-8.984-8.983 0-2.315.939-7.434 2.51-11.994 1.361-3.953 3.59-8.664 6.474-8.664 2.885 0 5.113 4.711 6.475 8.664 1.57 4.56 2.509 9.679 2.509 11.994 0 4.953-4.031 8.983-8.984 8.983zm0-28.616c-4.002 0-7.959 14.435-7.959 19.633 0 4.389 3.572 7.958 7.959 7.958s7.959-3.571 7.959-7.958c0-5.2-3.957-19.633-7.959-19.633z" fill="#48499F" fill-opacity=".49"/><path d="M562.689 208.624a.512.512 0 01-.512-.512v-27.171a.513.513 0 111.025 0v27.173a.51.51 0 01-.513.51z" fill="#48499F" fill-opacity=".49"/><path d="M562.689 194.585a.514.514 0 01-.148-1.005c.039-.012 3.781-1.189 3.781-4.213a.512.512 0 011.025 0c0 3.789-4.326 5.138-4.508 5.193a.425.425 0 01-.15.025zm0-4.703c-.014 0-.027 0-.041-.002-.123-.01-3.022-.277-4.422-3.594a.514.514 0 01.945-.4c1.16 2.747 3.535 2.969 3.559 2.971a.512.512 0 01-.041 1.025zm-149.51 11.233c-3.75 0-6.8-3.051-6.8-6.801 0-3.713 2.872-12.448 6.8-12.448s6.801 8.735 6.801 12.448c0 3.748-3.051 6.801-6.801 6.801zm0-18.226c-2.876 0-5.775 7.833-5.775 11.423a5.783 5.783 0 005.775 5.776 5.783 5.783 0 005.775-5.776c0-3.59-2.898-11.423-5.775-11.423z" fill="#48499F" fill-opacity=".49"/><path d="M413.179 208.624a.512.512 0 01-.512-.512V194.07a.512.512 0 111.025 0v14.042c0 .285-.23.512-.513.512zm-73.176-7.509a6.809 6.809 0 01-6.801-6.801c0-3.713 2.873-12.448 6.801-12.448s6.8 8.735 6.8 12.448c0 3.748-3.05 6.801-6.8 6.801zm0-18.226c-2.877 0-5.776 7.833-5.776 11.423a5.784 5.784 0 005.776 5.776 5.783 5.783 0 005.775-5.776c0-3.59-2.901-11.423-5.775-11.423z" fill="#48499F" fill-opacity=".49"/><path d="M340.001 208.624a.513.513 0 01-.513-.512V194.07a.513.513 0 011.025 0v14.042a.51.51 0 01-.512.512zm63.54-8.791c-4.953 0-8.983-4.03-8.983-8.983 0-2.315.939-7.434 2.509-11.994 1.361-3.953 3.59-8.664 6.474-8.664 2.887 0 5.113 4.711 6.475 8.664 1.57 4.56 2.509 9.679 2.509 11.994.002 4.953-4.028 8.983-8.984 8.983zm0-28.616c-3.999 0-7.958 14.435-7.958 19.633 0 4.389 3.571 7.958 7.958 7.958 4.39 0 7.959-3.571 7.959-7.958.002-5.2-3.957-19.633-7.959-19.633z" fill="#48499F" fill-opacity=".49"/><path d="M403.543 208.624a.512.512 0 01-.512-.512v-27.171a.513.513 0 011.025 0v27.173a.51.51 0 01-.513.51z" fill="#48499F" fill-opacity=".49"/><path d="M403.543 194.585a.514.514 0 01-.147-1.005c.039-.012 3.78-1.189 3.78-4.213a.513.513 0 011.025 0c0 3.789-4.325 5.138-4.508 5.193a.425.425 0 01-.15.025zm0-4.703c-.014 0-.026 0-.041-.002-.123-.01-3.021-.277-4.422-3.594a.514.514 0 01.945-.4c1.151 2.725 3.463 2.961 3.562 2.971a.512.512 0 01-.044 1.025zm43.937-7.645c-.6 0-1.197-.052-1.775-.154a10.25 10.25 0 01-8.502-10.124c0-5.666 4.611-10.275 10.277-10.275 5.667 0 10.278 4.609 10.278 10.275 0 5.009-3.576 9.267-8.504 10.124a10.22 10.22 0 01-1.774.154zm0-19.528c-5.1 0-9.252 4.149-9.252 9.25a9.23 9.23 0 007.653 9.115 9.371 9.371 0 003.196 0 9.229 9.229 0 007.656-9.115c0-5.101-4.15-9.25-9.253-9.25z" fill="#48499F" fill-opacity=".49"/><path d="M460.841 191.147c-4.857 0-8.809-3.953-8.809-8.81 0-4.857 3.952-8.809 8.809-8.809 4.857 0 8.81 3.952 8.81 8.809 0 4.859-3.953 8.81-8.81 8.81zm0-16.592c-4.293 0-7.784 3.491-7.784 7.784 0 4.293 3.491 7.785 7.784 7.785 4.293 0 7.785-3.492 7.785-7.785s-3.494-7.784-7.785-7.784zm-24.335 17.939a6.642 6.642 0 01-6.634-6.635 6.642 6.642 0 016.634-6.634 6.643 6.643 0 016.634 6.634 6.642 6.642 0 01-6.634 6.635zm0-12.244a5.614 5.614 0 00-5.609 5.609 5.615 5.615 0 005.609 5.61 5.615 5.615 0 005.609-5.61 5.616 5.616 0 00-5.609-5.609zm13.174 28.376h-4.398v-27.658l.601.106a9.36 9.36 0 003.194 0l.601-.106v27.658h.002zm-3.372-1.025h2.347v-25.43c-.775.088-1.572.088-2.347 0v25.43z" fill="#48499F" fill-opacity=".49"/><path d="M445.795 196.223a.487.487 0 01-.178-.033l-3.059-1.128a1.515 1.515 0 01-.814-.709l-1.859-3.477a.511.511 0 11.904-.482l1.859 3.477a.506.506 0 00.265.232l3.061 1.128a.514.514 0 01.303.658.516.516 0 01-.482.334zm3.434 3.089a.514.514 0 01-.123-1.01l9.328-2.299a.488.488 0 00.355-.338l1.558-5.178a.512.512 0 11.98.295l-1.558 5.178a1.522 1.522 0 01-1.093 1.038l-9.328 2.298a.389.389 0 01-.119.016zm-4.168-22.156a.513.513 0 01-.236-.057 5.765 5.765 0 01-3.13-5.14 5.79 5.79 0 015.783-5.783 5.764 5.764 0 015.696 4.783.513.513 0 01-1.011.174 4.739 4.739 0 00-4.685-3.934 4.763 4.763 0 00-4.758 4.758c0 1.788.986 3.408 2.575 4.23a.51.51 0 01.219.691.504.504 0 01-.453.278zm13.277 9.28a.518.518 0 01-.293-.093 4.882 4.882 0 01-2.091-4.006 4.89 4.89 0 014.885-4.885 4.891 4.891 0 014.888 4.885 4.856 4.856 0 01-1.392 3.414.514.514 0 01-.734-.718 3.829 3.829 0 001.099-2.696 3.866 3.866 0 00-3.863-3.86 3.865 3.865 0 00-3.86 3.86c0 1.261.617 2.444 1.652 3.164a.512.512 0 01.127.713.5.5 0 01-.418.222zm-23.628 2.853a.518.518 0 01-.293-.092 3.657 3.657 0 01-1.56-2.991 3.654 3.654 0 013.649-3.652c.945 0 1.841.359 2.519 1.011a.513.513 0 11-.711.74 2.605 2.605 0 00-1.81-.725 2.627 2.627 0 00-2.624 2.626c0 .855.42 1.66 1.121 2.15a.513.513 0 01-.291.933zm-126.886-26.127h-10.813a.513.513 0 010-1.025h10.813a.512.512 0 110 1.025zm0-4.147h-10.813a.513.513 0 010-1.025h10.813a.512.512 0 110 1.025zm0-4.146h-10.813a.512.512 0 010-1.025h10.813a.513.513 0 010 1.025zm0-4.147h-10.813a.513.513 0 010-1.025h10.813a.512.512 0 110 1.025zm-5.407-2.553a.512.512 0 01-.512-.512v-5.113a.513.513 0 111.025 0v5.113c0 .283-.23.512-.513.512z" fill="#48499F" fill-opacity=".49"/><path d="M306.647 166.61h-8.457v-19.466h8.457v19.466zm-7.432-1.025h6.407v-17.416h-6.407v17.416zm-5.306-2.423h-10.812a.513.513 0 010-1.025h10.812a.513.513 0 110 1.025zm0-4.147h-10.812a.513.513 0 010-1.025h10.812a.513.513 0 110 1.025zm0-4.146h-10.812a.513.513 0 010-1.025h10.812a.513.513 0 010 1.025zm0-4.147h-10.812a.513.513 0 010-1.025h10.812a.513.513 0 110 1.025zm-5.406-2.553a.513.513 0 01-.513-.512v-5.113a.513.513 0 011.025 0v5.113a.512.512 0 01-.512.512z" fill="#48499F" fill-opacity=".49"/><path d="M292.732 166.61h-8.457v-19.466h8.457v19.466zm-7.432-1.025h6.407v-17.416H285.3v17.416zm36.438-2.423h-10.813a.513.513 0 010-1.025h10.813a.512.512 0 110 1.025zm0-4.147h-10.813a.513.513 0 010-1.025h10.813a.512.512 0 110 1.025zm0-4.146h-10.813a.512.512 0 010-1.025h10.813a.513.513 0 010 1.025zm0-4.147h-10.813a.513.513 0 010-1.025h10.813a.512.512 0 110 1.025zm-5.406-2.553a.513.513 0 01-.513-.512v-5.113a.513.513 0 011.025 0v5.113a.512.512 0 01-.512.512z" fill="#48499F" fill-opacity=".49"/><path d="M320.561 166.61h-8.457v-19.466h8.457v19.466zm-7.432-1.025h6.407v-17.416h-6.407v17.416z" fill="#48499F" fill-opacity=".49"/><path d="M324.805 208.553h-45.032v-42.968h45.032v42.968zm-44.007-1.025h42.982v-40.917h-42.982v40.917z" fill="#48499F" fill-opacity=".49"/><path d="M302.417 205.42a.513.513 0 01-.512-.513v-36.595a.512.512 0 111.025 0v36.593c0 .285-.23.515-.513.515zm3.717 0a.513.513 0 01-.512-.513v-36.595a.512.512 0 111.025 0v36.593c0 .285-.23.515-.513.515zm3.715 0a.513.513 0 01-.513-.513v-36.595a.513.513 0 011.025 0v36.593a.513.513 0 01-.512.515zm3.717 0a.513.513 0 01-.513-.513v-36.595a.513.513 0 011.026 0v36.593c0 .285-.23.515-.513.515zm3.715 0a.513.513 0 01-.513-.513v-36.595a.513.513 0 011.025 0v36.593a.513.513 0 01-.512.515zm3.717 0a.513.513 0 01-.513-.513v-36.595a.513.513 0 011.025 0v36.593a.513.513 0 01-.512.515zm-22.296 0a.513.513 0 01-.512-.513v-36.595a.512.512 0 111.025 0v36.593c0 .285-.23.515-.513.515zm-3.717 0a.513.513 0 01-.512-.513v-36.595a.512.512 0 111.025 0v36.593c0 .285-.23.515-.513.515zm-3.715 0a.513.513 0 01-.512-.513v-36.595a.512.512 0 011.025 0v36.593c0 .285-.23.515-.513.515zm-3.716 0a.513.513 0 01-.513-.513v-36.595a.513.513 0 011.025 0v36.593c0 .285-.23.515-.512.515zm-3.715 0a.513.513 0 01-.513-.513v-36.595a.513.513 0 011.025 0v36.593a.513.513 0 01-.512.515zM562.828 13.957h-2.702a.907.907 0 01-.758-.408 8.855 8.855 0 00-7.377-3.948 8.774 8.774 0 00-3.178.588.91.91 0 01-1.215-.654 4.632 4.632 0 00-1.183-2.232 4.634 4.634 0 00-3.393-1.46c-.607 0-1.2.115-1.759.342a.908.908 0 01-1.165-.455 5.473 5.473 0 00-4.932-3.133 5.452 5.452 0 00-3.516 1.286.927.927 0 01-.685.213.897.897 0 01-.621-.342 7.079 7.079 0 00-.65-.722 6.949 6.949 0 00-4.863-1.972 6.995 6.995 0 00-6.987 6.987l.002.91-.681-.205a4.26 4.26 0 00-1.216-.178c-2.087 0-3.895 1.554-4.207 3.614a.528.528 0 11-1.047-.158c.389-2.573 2.649-4.514 5.254-4.514.285 0 .57.022.849.067.24-4.223 3.752-7.585 8.033-7.585 2.103 0 4.092.806 5.599 2.27.229.223.447.46.65.709a6.511 6.511 0 014.086-1.442 6.54 6.54 0 015.83 3.615 5.74 5.74 0 012.028-.37 5.69 5.69 0 014.162 1.789 5.732 5.732 0 011.41 2.566 9.85 9.85 0 013.397-.598 9.91 9.91 0 018.215 4.356h2.62c.294 0 .529.238.529.53a.53.53 0 01-.529.534z" fill="#48499F" fill-opacity=".49"/><path d="M546.345 27.794h-2.214a.914.914 0 01-.808-.492 5.951 5.951 0 00-5.275-3.182c-.957 0-1.872.22-2.716.654a.899.899 0 01-.812.006.913.913 0 01-.494-.654 4.589 4.589 0 00-4.519-3.762 4.54 4.54 0 00-2.097.504.918.918 0 01-.851-.004.9.9 0 01-.473-.689 23.918 23.918 0 00-.035-.264c-.71-4.857-4.951-8.519-9.868-8.519a9.99 9.99 0 00-4.715 1.184 9.956 9.956 0 00-3.139 2.638.902.902 0 01-1.193.207 11.216 11.216 0 00-5.987-1.722c-4.291 0-8.27 2.5-10.14 6.364a11.085 11.085 0 00-.947 2.936l-.078.449-.457-.013c-.055-.002-.111-.002-.166-.002a9.19 9.19 0 00-7.575 3.982l-.027.038-.035.035a.53.53 0 01-.799-.693 10.253 10.253 0 018.176-4.418c.205-.96.522-1.892.953-2.778 2.044-4.23 6.398-6.962 11.093-6.962 2.28 0 4.5.625 6.434 1.812a11.03 11.03 0 0115.845-1.406 11.027 11.027 0 013.683 6.79 5.664 5.664 0 012.398-.533 5.646 5.646 0 015.521 4.439 6.953 6.953 0 013.02-.681 7.002 7.002 0 016.171 3.674h2.126a.53.53 0 01.529.529.529.529 0 01-.529.533zM344.587 81.092h-2.214a.913.913 0 01-.808-.492 5.951 5.951 0 00-5.275-3.182 5.89 5.89 0 00-2.717.654.897.897 0 01-.811.006.914.914 0 01-.495-.654 4.588 4.588 0 00-4.518-3.762 4.54 4.54 0 00-2.097.505.918.918 0 01-.851-.004.9.9 0 01-.474-.69 7.979 7.979 0 00-.035-.264c-.709-4.856-4.951-8.518-9.867-8.518a9.99 9.99 0 00-4.715 1.183 9.955 9.955 0 00-3.139 2.638.902.902 0 01-1.193.207 11.216 11.216 0 00-5.987-1.722c-4.291 0-8.27 2.5-10.14 6.364a11.086 11.086 0 00-.947 2.936l-.078.449-.457-.012c-.056-.002-.111-.002-.166-.002a9.195 9.195 0 00-7.576 3.981l-.026.039-.035.035a.532.532 0 01-.8-.693 10.253 10.253 0 018.176-4.418c.203-.96.523-1.893.954-2.778 2.044-4.23 6.398-6.963 11.093-6.963 2.28 0 4.5.626 6.433 1.813a11.033 11.033 0 0115.846-1.406 11.026 11.026 0 013.67 6.71l.012.08a5.67 5.67 0 012.399-.534 5.646 5.646 0 015.521 4.439 6.953 6.953 0 013.02-.68 7.002 7.002 0 016.171 3.673h2.126a.53.53 0 010 1.062zm54.7-13.832h-.326l-.137-.281a6.685 6.685 0 01-.679-2.957c0-.508.056-1.008.164-1.488.683-3.049 3.455-5.263 6.585-5.263.062 0 .123 0 .185.002-.002-.102-.002-.205-.002-.31 0-10.178 8.28-18.457 18.457-18.457a18.442 18.442 0 0116.26 9.71 8.14 8.14 0 011.7-.18c4.235 0 7.719 3.284 8.036 7.44a5.597 5.597 0 017.574 4.375 4.473 4.473 0 012.398-.692 4.497 4.497 0 014.066 2.573 3.564 3.564 0 011.099-.174c1.203 0 2.308.597 2.968 1.601.269-.01.536.04.779.15a6.541 6.541 0 018.826 3.188.498.498 0 11-.91.41 5.544 5.544 0 00-7.528-2.677.868.868 0 01-.779 0 .699.699 0 00-.381-.072.856.856 0 01-.808-.398 2.548 2.548 0 00-2.169-1.206 2.54 2.54 0 00-.876.154.858.858 0 01-1.082-.459 3.498 3.498 0 00-3.205-2.093 3.48 3.48 0 00-2.484 1.033l-.884.888.033-1.253c.002-.057.002-.102.002-.15a4.597 4.597 0 00-4.59-4.592c-.8 0-1.587.21-2.276.605l-.796.455.05-.916a7.07 7.07 0 00-8.648-7.016.856.856 0 01-.945-.435 17.444 17.444 0 00-15.427-9.275c-9.628 0-17.462 7.834-17.462 17.462 0 .145.002.289.006.434a.858.858 0 01-.9.878 6.482 6.482 0 00-.283-.006c-2.669 0-5.031 1.886-5.613 4.485a5.776 5.776 0 00-.139 1.27c0 .848.18 1.664.535 2.427a.503.503 0 01.108.311.504.504 0 01-.502.499z" fill="#48499F" fill-opacity=".49"/><path d="M453.315 72.365h-7.899a.863.863 0 01-.64-.285.847.847 0 01-.213-.66 4.198 4.198 0 00-.426-2.392 4.26 4.26 0 00-1.751-1.828 4.269 4.269 0 00-3.459-.311.847.847 0 01-.687-.062.86.86 0 01-.42-.562 8.093 8.093 0 00-7.93-6.314 8.089 8.089 0 00-6.927 3.868.856.856 0 01-1.087.324 6.66 6.66 0 00-2.833-.625c-.275 0-.546.017-.808.047a6.728 6.728 0 00-5.076 3.436 6.698 6.698 0 00-.734 4.328.86.86 0 01-.845.999h-2.846a.499.499 0 010-.997h2.682a7.721 7.721 0 01.869-4.81 7.727 7.727 0 016.758-4.001 7.62 7.62 0 013.138.666 9.084 9.084 0 017.709-4.234c2.081 0 4.117.718 5.732 2.022a9.183 9.183 0 013.137 4.92 5.27 5.27 0 016.269 2.684 5.238 5.238 0 01.544 2.792h7.745a.497.497 0 11-.002.994zM60.849 50.67h-7.9a.862.862 0 01-.64-.285.849.849 0 01-.212-.66 4.72 4.72 0 00.026-.478c0-.677-.151-1.32-.453-1.915a4.254 4.254 0 00-1.75-1.827 4.266 4.266 0 00-2.077-.539c-.474 0-.94.076-1.382.228a.847.847 0 01-.687-.062.86.86 0 01-.42-.561 8.093 8.093 0 00-7.93-6.315 8.09 8.09 0 00-6.928 3.869.855.855 0 01-1.086.324 6.66 6.66 0 00-2.834-.626c-.274 0-.545.017-.808.047a6.729 6.729 0 00-5.076 3.437 6.706 6.706 0 00-.734 4.327.859.859 0 01-.844.999h-2.85a.499.499 0 010-.997h2.681a7.72 7.72 0 01.87-4.81 7.724 7.724 0 016.757-4.001c1.095 0 2.15.223 3.139.666a9.082 9.082 0 017.709-4.233c2.08 0 4.116.717 5.732 2.021a9.183 9.183 0 013.136 4.918 5.269 5.269 0 016.27 2.684 5.238 5.238 0 01.543 2.792h7.746a.499.499 0 01.002.997zm241.568 149.553c-7.204 0-13.068-5.862-13.068-13.068 0-7.204 5.862-13.068 13.068-13.068 7.204 0 13.068 5.862 13.068 13.068 0 7.206-5.862 13.068-13.068 13.068zm0-24.92c-6.536 0-11.854 5.318-11.854 11.854s5.318 11.854 11.854 11.854 11.854-5.318 11.854-11.854-5.318-11.854-11.854-11.854z" fill="#48499F" fill-opacity=".49"/><path d="M300.474 198.201a.608.608 0 01-.542-.877l4.63-9.32h-4.773a.915.915 0 01-.849-1.249l4.053-10.259a.607.607 0 011.13.447l-3.889 9.847h4.816c.317 0 .606.162.774.433.169.27.183.6.041.885l-4.846 9.757a.613.613 0 01-.545.336zm-69.817-41.263c-13.773 0-24.977-11.205-24.977-24.978 0-13.772 11.204-24.977 24.977-24.977s24.978 11.205 24.978 24.977c0 13.771-11.205 24.978-24.978 24.978zm0-48.932c-13.207 0-23.952 10.745-23.952 23.952 0 13.208 10.745 23.952 23.952 23.952 13.208 0 23.952-10.744 23.952-23.952 0-13.207-10.744-23.952-23.952-23.952z" fill="#48499F" fill-opacity=".49"/><path d="M230.319 158.705c-14.843 0-26.918-12.076-26.918-26.919s12.075-26.918 26.918-26.918 26.919 12.075 26.919 26.918-12.076 26.919-26.919 26.919zm0-52.81c-14.277 0-25.893 11.616-25.893 25.893 0 14.278 11.616 25.894 25.893 25.894 14.277 0 25.894-11.616 25.894-25.894 0-14.279-11.617-25.893-25.894-25.893z" fill="#48499F" fill-opacity=".49"/><path d="M238.085 131.272a7.422 7.422 0 00-1.285-3.551 7.493 7.493 0 00-3.03-2.549 7.44 7.44 0 00-3.717-.658 7.426 7.426 0 00-3.723 1.347 7.507 7.507 0 00-2.432 2.889 7.445 7.445 0 00-.691 3.899 7.394 7.394 0 001.288 3.551 7.487 7.487 0 003.03 2.549 7.439 7.439 0 003.717.658 7.416 7.416 0 003.721-1.347v-.002a7.458 7.458 0 002.431-2.889 7.392 7.392 0 00.691-3.897zm-7.438 3.397a2.71 2.71 0 11-.002-5.418 2.71 2.71 0 01.002 5.418z" stroke="#48499F" stroke-opacity=".49" stroke-width="5" stroke-miterlimit="10" stroke-linecap="round"/><path d="M230.647 135.181a3.226 3.226 0 01-3.223-3.22 3.226 3.226 0 013.223-3.221 3.225 3.225 0 013.221 3.221 3.223 3.223 0 01-3.221 3.22zm0-5.416a2.199 2.199 0 00-2.198 2.196 2.197 2.197 0 004.394 0 2.197 2.197 0 00-2.196-2.196zm3.368-3.916l-.461-.213a6.857 6.857 0 00-3.458-.613l-.507.041-.047-.507c-.014-.149-1.419-15.037-5.529-21.176a.72.72 0 01-.039-.742.729.729 0 01.906-.328l12.172 4.877a3.16 3.16 0 011.927 3.504c-.547 2.905-1.892 8.674-4.748 14.696l-.216.461zm-3.368-1.872c.994 0 1.956.179 2.868.531 2.663-5.755 3.934-11.216 4.459-14a2.13 2.13 0 00-1.299-2.364l-11.313-4.533c3.508 6.077 4.887 17.789 5.156 20.366h.129z" fill="#48499F" fill-opacity=".49"/><path d="M232.101 115.787a.512.512 0 01-.511-.486c-.313-5.816-3.048-10.497-3.077-10.544a.513.513 0 01.884-.523c.116.199 2.89 4.945 3.218 11.01a.512.512 0 01-.484.539c-.012.004-.02.004-.03.004zm-7.955 13.636l-.478-.216c-1.31-.596-13.002-5.818-20.222-5.818-.298 0-.587.008-.862.027l-.051.002a.722.722 0 01-.447-1.286l10.313-8.106a3.143 3.143 0 013.999.086c2.241 1.925 6.567 5.972 10.354 11.458l.287.416-.412.294a6.988 6.988 0 00-2.266 2.691l-.215.452zm-20.694-7.059c6.919.002 17.678 4.594 20.212 5.72a8.003 8.003 0 011.962-2.333c-3.651-5.185-7.747-9.015-9.896-10.86a2.12 2.12 0 00-2.698-.057l-9.58 7.53z" fill="#48499F" fill-opacity=".49"/><path d="M223.9 129.263a.516.516 0 01-.353-.142l-.002-.002a.512.512 0 11.724-.016.502.502 0 01-.369.16zm-6.975-6.393a.513.513 0 01-.231-.055c-5.185-2.63-10.618-2.606-10.669-2.608h-.007a.511.511 0 01-.512-.506.514.514 0 01.506-.519c.23-.004 5.728-.031 11.145 2.719a.512.512 0 01-.232.969zm-8.354 29.527a.717.717 0 01-.714-.62l-1.863-12.979a3.156 3.156 0 012.073-3.422c2.78-.978 8.44-2.7 15.099-3.237l.506-.041.046.506a6.89 6.89 0 001.199 3.305l.289.416-.414.294c-.505.358-12.348 8.811-15.575 15.374a.715.715 0 01-.646.404zm14.189-19.196c-6.333.572-11.688 2.204-14.355 3.141a2.128 2.128 0 00-1.396 2.308l1.732 12.061c3.492-6.029 12.967-13.121 15.061-14.644a7.892 7.892 0 01-1.042-2.866z" fill="#48499F" fill-opacity=".49"/><path d="M224.495 136.713a.512.512 0 11.362-.152l-.002.002a.507.507 0 01-.36.15zm-16.783 10.956a.512.512 0 01-.445-.763c.113-.201 2.837-4.976 7.926-8.291a.512.512 0 11.56.859c-4.872 3.174-7.565 7.889-7.592 7.936a.524.524 0 01-.449.259zm28.975 13.99a.703.703 0 01-.275-.055l-12.17-4.875a3.158 3.158 0 01-1.927-3.504c.546-2.899 1.886-8.666 4.748-14.696l.218-.459.461.213a6.857 6.857 0 003.459.613l.506-.043.047.507c.014.149 1.417 15.038 5.527 21.176a.72.72 0 01-.594 1.123zm-8.906-22.246c-2.669 5.763-3.936 11.22-4.457 14a2.129 2.129 0 001.3 2.364l11.31 4.531c-3.507-6.077-4.885-17.789-5.152-20.366a7.89 7.89 0 01-3.001-.529z" fill="#48499F" fill-opacity=".49"/><path d="M232.34 159.933a.509.509 0 01-.44-.252c-.117-.199-2.891-4.945-3.219-11.01a.512.512 0 011.023-.055c.314 5.806 3.049 10.497 3.077 10.544a.51.51 0 01-.441.773zm14.606-9.367a3.142 3.142 0 01-2.048-.759c-2.239-1.921-6.559-5.966-10.356-11.458l-.09-.131v-.425l.217-.155a6.961 6.961 0 002.264-2.69l.215-.453.478.215c1.31.594 13 5.818 20.221 5.818h.002c.297 0 .588-.008.861-.026l.049-.002c.307 0 .582.194.683.485a.714.714 0 01-.236.802l-10.313 8.104a3.162 3.162 0 01-1.947.675zm-11.28-12.397c3.661 5.193 7.754 9.018 9.9 10.861a2.118 2.118 0 002.694.056l9.582-7.533c-6.919-.002-17.678-4.592-20.214-5.72a8.011 8.011 0 01-1.962 2.336z" fill="#48499F" fill-opacity=".49"/><path d="M237.394 135.68a.513.513 0 01-.369-.158l-.002-.002a.511.511 0 11.742-.705.513.513 0 01-.016.725.523.523 0 01-.355.14zm17.834 9.057c-.623 0-5.894-.082-11.089-2.718a.514.514 0 01.464-.915c5.195 2.637 10.611 2.61 10.669 2.608a.512.512 0 01.012 1.025h-.056zm-17.606-12.914l-.045-.504a6.914 6.914 0 00-1.198-3.307l-.287-.416.412-.293c.505-.359 12.349-8.816 15.573-15.374a.714.714 0 01.646-.404c.363 0 .664.26.716.619l1.861 12.979a3.152 3.152 0 01-2.07 3.42c-2.789.98-8.459 2.702-15.102 3.237l-.506.043zm-.127-3.971a7.958 7.958 0 011.039 2.866c6.317-.57 11.682-2.204 14.355-3.141a2.126 2.126 0 001.396-2.306l-1.73-12.065c-3.489 6.027-12.969 13.123-15.06 14.646z" fill="#48499F" fill-opacity=".49"/><path d="M236.798 128.235a.511.511 0 01-.353-.883.513.513 0 11.709.74l-.002.002a.515.515 0 01-.354.141zm9.026-2.845a.512.512 0 01-.281-.943c4.872-3.174 7.566-7.889 7.592-7.936a.514.514 0 01.699-.195.511.511 0 01.195.697c-.113.201-2.837 4.976-7.926 8.293a.517.517 0 01-.279.084z" fill="#48499F" fill-opacity=".49"/></g><defs><clipPath id="clip0_1_6016"><path fill="#fff" d="M0 0h583v286.541H0z"/></clipPath></defs></svg>